<svg width="29" height="28" viewBox="0 0 29 28" fill="none" xmlns="http://www.w3.org/2000/svg">
<path d="M14.6667 5.6375H14.6666C13.0127 5.6375 11.3959 6.12795 10.0207 7.04684C8.64547 7.96572 7.57362 9.27176 6.94069 10.7998C6.30775 12.3279 6.14214 14.0093 6.46481 15.6314C6.78748 17.2536 7.58393 18.7437 8.75345 19.9132C9.92297 21.0827 11.413 21.8792 13.0352 22.2018C14.6574 22.5245 16.3388 22.3589 17.8668 21.7259C19.3949 21.093 20.7009 20.0212 21.6198 18.646C22.5387 17.2708 23.0291 15.6539 23.0291 14V13.9999C23.0267 11.7828 22.1449 9.65724 20.5771 8.08951C19.0094 6.52177 16.8838 5.63995 14.6667 5.6375ZM14.6666 21.3875C13.2055 21.3875 11.7772 20.9542 10.5624 20.1425C9.34749 19.3307 8.40061 18.177 7.84147 16.8271C7.28233 15.4772 7.13603 13.9918 7.42108 12.5588C7.70613 11.1257 8.40972 9.80941 9.44288 8.77625C10.476 7.74309 11.7924 7.0395 13.2254 6.75445C14.6584 6.4694 16.1438 6.6157 17.4937 7.17484C18.8436 7.73398 19.9974 8.68086 20.8091 9.89572C21.6208 11.1106 22.0541 12.5389 22.0541 13.9999C22.0519 15.9586 21.2729 17.8364 19.888 19.2213C18.503 20.6063 16.6252 21.3853 14.6666 21.3875Z" fill="black" stroke="black" stroke-width="0.1"/>
<path d="M6.40413 4.8125V4.7625H6.35413H5.47913H5.42913V4.8125V8.7H5.09163V4.8125V4.7625H5.04163H4.16663H4.11663V4.8125V8.7H3.77913V4.8125V4.7625H3.72913H2.85413H2.80413V4.8125V8.7H2.46663V4.8125V4.7625H2.41663H1.54163H1.49163V4.8125L1.49163 11.375L1.49163 11.3751C1.49197 11.6567 1.57944 11.9314 1.74205 12.1614C1.89783 12.3818 2.11526 12.5508 2.36663 12.6475V22.75C2.36663 23.1114 2.51017 23.4579 2.76569 23.7134C3.02121 23.969 3.36777 24.1125 3.72913 24.1125H4.16663C4.52798 24.1125 4.87454 23.969 5.13006 23.7134C5.38558 23.4579 5.52913 23.1114 5.52913 22.75V12.6475C5.78049 12.5508 5.99792 12.3818 6.1537 12.1614C6.31631 11.9314 6.40378 11.6567 6.40413 11.3751V11.375V9.1875V4.8125ZM27.3541 4.325L27.3541 4.325C26.2969 4.32617 25.2834 4.74665 24.5358 5.49419C23.7883 6.24173 23.3678 7.25527 23.3666 8.31244V8.3125V14C23.3666 14.3614 23.5102 14.7079 23.7657 14.9634C24.0094 15.2071 24.3359 15.349 24.6791 15.3616V23.625C24.6791 23.7543 24.7305 23.8783 24.8219 23.9697C24.9133 24.0611 25.0373 24.1125 25.1666 24.1125H27.3541C27.4834 24.1125 27.6074 24.0611 27.6988 23.9697C27.7903 23.8783 27.8416 23.7543 27.8416 23.625V4.8125C27.8416 4.68321 27.7903 4.55921 27.6988 4.46779C27.6074 4.37636 27.4834 4.325 27.3541 4.325ZM24.5712 5.52955C23.833 6.26772 23.4178 7.26857 23.4166 8.3125L27.3541 4.375C26.3102 4.37616 25.3093 4.79137 24.5712 5.52955ZM5.42913 11.375C5.42913 11.4778 5.3883 11.5763 5.31563 11.649C5.24296 11.7217 5.1444 11.7625 5.04163 11.7625C4.91233 11.7625 4.78834 11.8139 4.69691 11.9053C4.60549 11.9967 4.55413 12.1207 4.55413 12.25V22.75C4.55413 22.8528 4.5133 22.9513 4.44063 23.024C4.36796 23.0967 4.2694 23.1375 4.16663 23.1375H3.72913C3.62635 23.1375 3.52779 23.0967 3.45512 23.024C3.38245 22.9513 3.34163 22.8528 3.34163 22.75V12.25C3.34163 12.1207 3.29026 11.9967 3.19884 11.9053C3.10742 11.8139 2.98342 11.7625 2.85413 11.7625C2.75135 11.7625 2.65279 11.7217 2.58012 11.649C2.50745 11.5763 2.46663 11.4778 2.46663 11.375V9.675H5.42913V11.375ZM26.8666 23.1375H25.6541V14.875C25.6541 14.7457 25.6028 14.6217 25.5113 14.5303C25.4199 14.4389 25.2959 14.3875 25.1666 14.3875H24.7291C24.6264 14.3875 24.5278 14.3467 24.4551 14.274C24.3825 14.2013 24.3416 14.1028 24.3416 14V8.31256C24.3425 7.58835 24.6039 6.88863 25.0779 6.34115C25.5394 5.80828 26.1724 5.45424 26.8666 5.33944V23.1375Z" fill="black" stroke="black" stroke-width="0.1"/>
<path d="M24.7291 6.95H24.6791V7V13.5625V13.6125H24.7291H25.6041H25.6541V13.5625V7V6.95H25.6041H24.7291Z" fill="black" stroke="black" stroke-width="0.1"/>
<path d="M14.6667 9.575H14.6666C13.7914 9.575 12.9359 9.83452 12.2082 10.3207C11.4805 10.807 10.9134 11.4981 10.5785 12.3066C10.2435 13.1152 10.1559 14.0049 10.3267 14.8633C10.4974 15.7216 10.9188 16.5101 11.5377 17.1289C12.1565 17.7478 12.945 18.1692 13.8034 18.34C14.6617 18.5107 15.5514 18.4231 16.36 18.0882C17.1686 17.7533 17.8597 17.1861 18.3459 16.4584C18.8321 15.7307 19.0916 14.8752 19.0916 14V13.9999C19.0903 12.8268 18.6237 11.702 17.7942 10.8725C16.9646 10.0429 15.8399 9.57629 14.6667 9.575ZM14.6666 17.45C13.9842 17.45 13.3172 17.2477 12.7499 16.8686C12.1826 16.4895 11.7404 15.9507 11.4792 15.3203C11.2181 14.6899 11.1498 13.9962 11.2829 13.3269C11.416 12.6577 11.7446 12.043 12.2271 11.5605C12.7096 11.078 13.3243 10.7494 13.9936 10.6163C14.6628 10.4832 15.3565 10.5515 15.9869 10.8126C16.6173 11.0737 17.1561 11.5159 17.5352 12.0833C17.9143 12.6506 18.1166 13.3176 18.1166 13.9999C18.1156 14.9146 17.7518 15.7916 17.105 16.4384C16.4582 17.0852 15.5813 17.449 14.6666 17.45Z" fill="black" stroke="black" stroke-width="0.1"/>
</svg>
