<svg width="17" height="17" viewBox="0 0 17 17" fill="none" xmlns="http://www.w3.org/2000/svg">
<g clip-path="url(#clip0_114_2246)">
<path d="M6.37484 15.5834C6.76604 15.5834 7.08317 15.2663 7.08317 14.8751C7.08317 14.4839 6.76604 14.1667 6.37484 14.1667C5.98364 14.1667 5.6665 14.4839 5.6665 14.8751C5.6665 15.2663 5.98364 15.5834 6.37484 15.5834Z" stroke="#4CAF4F" stroke-width="2" stroke-linecap="round" stroke-linejoin="round"/>
<path d="M14.1668 15.5834C14.558 15.5834 14.8752 15.2663 14.8752 14.8751C14.8752 14.4839 14.558 14.1667 14.1668 14.1667C13.7756 14.1667 13.4585 14.4839 13.4585 14.8751C13.4585 15.2663 13.7756 15.5834 14.1668 15.5834Z" stroke="#4CAF4F" stroke-width="2" stroke-linecap="round" stroke-linejoin="round"/>
<path d="M0.708496 0.708252H3.54183L5.44016 10.1928C5.50494 10.5189 5.68235 10.8119 5.94134 11.0204C6.20033 11.2289 6.52441 11.3396 6.85683 11.3333H13.7418C14.0743 11.3396 14.3983 11.2289 14.6573 11.0204C14.9163 10.8119 15.0937 10.5189 15.1585 10.1928L16.2918 4.24992H4.25016" stroke="#4CAF4F" stroke-width="2" stroke-linecap="round" stroke-linejoin="round"/>
</g>
<defs>
<clipPath id="clip0_114_2246">
<rect width="17" height="17" fill="white"/>
</clipPath>
</defs>
</svg>
