<svg width="9" height="9" viewBox="0 0 9 9" fill="none" xmlns="http://www.w3.org/2000/svg">
<path d="M3.77447 0.463524C3.92415 0.00286901 4.57585 0.00287014 4.72553 0.463525L5.37257 2.45492C5.43951 2.66093 5.63149 2.80041 5.8481 2.80041H7.94197C8.42633 2.80041 8.62772 3.42021 8.23586 3.70491L6.54188 4.93566C6.36664 5.06298 6.29331 5.28867 6.36025 5.49468L7.00729 7.48607C7.15697 7.94672 6.62973 8.32979 6.23787 8.04508L4.54389 6.81434C4.36865 6.68702 4.13135 6.68702 3.95611 6.81434L2.26213 8.04509C1.87027 8.32979 1.34303 7.94672 1.49271 7.48607L2.13975 5.49468C2.20669 5.28867 2.13336 5.06298 1.95812 4.93566L0.264137 3.70491C-0.12772 3.42021 0.0736692 2.80041 0.558031 2.80041H2.6519C2.86852 2.80041 3.06049 2.66093 3.12743 2.45491L3.77447 0.463524Z" fill="#FFCC00"/>
</svg>
