<svg width="512" height="512" viewBox="0 0 512 512" fill="none" xmlns="http://www.w3.org/2000/svg">
<path d="M284.56 274.96C283.605 276.84 283.431 279.02 284.075 281.028C284.719 283.035 286.13 284.707 288 285.68L305.2 294.4H293.52C290.841 294.577 288.201 293.696 286.166 291.945C284.131 290.194 282.865 287.715 282.64 285.04V203.28C282.64 201.158 281.797 199.123 280.297 197.623C278.796 196.123 276.762 195.28 274.64 195.28C272.518 195.28 270.483 196.123 268.983 197.623C267.483 199.123 266.64 201.158 266.64 203.28V225.84L242.64 198C241.946 197.207 241.104 196.558 240.159 196.091C239.215 195.623 238.188 195.346 237.137 195.276C236.086 195.205 235.031 195.342 234.033 195.679C233.035 196.016 232.113 196.547 231.32 197.24C230.527 197.933 229.878 198.776 229.41 199.72C228.943 200.665 228.666 201.691 228.595 202.743C228.525 203.794 228.662 204.849 228.999 205.847C229.336 206.845 229.866 207.767 230.56 208.56L266.8 250C266.33 254.039 265.028 257.937 262.976 261.448C260.925 264.959 258.168 268.007 254.88 270.4L220.64 296C219.799 296.636 219.092 297.431 218.559 298.339C218.026 299.248 217.677 300.253 217.532 301.297C217.387 302.341 217.449 303.403 217.715 304.422C217.98 305.442 218.444 306.4 219.08 307.24C219.715 308.08 220.51 308.788 221.419 309.321C222.328 309.854 223.333 310.203 224.377 310.348C225.42 310.493 226.482 310.431 227.502 310.165C228.522 309.899 229.479 309.436 230.32 308.8L264 283.12L266.4 281.12V285.04C266.63 291.958 269.584 298.505 274.618 303.254C279.653 308.004 286.36 310.573 293.28 310.4H338.64C340.431 310.389 342.167 309.778 343.57 308.663C344.972 307.549 345.96 305.996 346.375 304.253C346.79 302.51 346.608 300.679 345.858 299.052C345.108 297.425 343.834 296.097 342.24 295.28L295.12 271.28C293.228 270.393 291.063 270.281 289.09 270.968C287.117 271.656 285.491 273.089 284.56 274.96ZM208 195.28C205.878 195.28 203.843 196.123 202.343 197.623C200.843 199.123 200 201.158 200 203.28V298.16C197.076 299.83 193.767 300.708 190.4 300.708C187.033 300.708 183.724 299.83 180.8 298.16V278.56C180.8 276.438 179.957 274.403 178.457 272.903C176.956 271.403 174.922 270.56 172.8 270.56C170.678 270.56 168.643 271.403 167.143 272.903C165.643 274.403 164.8 276.438 164.8 278.56V302.56C164.803 303.782 165.085 304.987 165.626 306.082C166.167 307.178 166.952 308.135 167.92 308.88L168.96 309.68C174.838 314.173 181.983 316.699 189.379 316.9C196.775 317.102 204.046 314.967 210.16 310.8L212.56 309.12C213.642 308.37 214.522 307.364 215.122 306.191C215.722 305.019 216.024 303.717 216 302.4V203.28C216 201.158 215.157 199.123 213.657 197.623C212.156 196.123 210.122 195.28 208 195.28Z" fill="black"/>
<path d="M465.28 250.32L408 193.04V112C408 109.878 407.157 107.843 405.657 106.343C404.156 104.843 402.122 104 400 104H318.96L261.68 46.72C260.181 45.23 258.153 44.3937 256.04 44.3937C253.926 44.3937 251.899 45.23 250.4 46.72L193.04 104H112C109.878 104 107.843 104.843 106.343 106.343C104.843 107.843 104 109.878 104 112V193.04L46.7199 250.32C45.2299 251.819 44.3936 253.847 44.3936 255.96C44.3936 258.074 45.2299 260.101 46.7199 261.6L104 318.96V400C104 402.122 104.843 404.157 106.343 405.657C107.843 407.157 109.878 408 112 408H193.04L250.32 465.28C251.819 466.77 253.846 467.606 255.96 467.606C258.073 467.606 260.101 466.77 261.6 465.28L318.96 408H400C402.122 408 404.156 407.157 405.657 405.657C407.157 404.157 408 402.122 408 400V318.96L465.28 261.68C466.03 260.936 466.625 260.051 467.031 259.077C467.437 258.102 467.646 257.056 467.646 256C467.646 254.944 467.437 253.898 467.031 252.923C466.625 251.949 466.03 251.064 465.28 250.32ZM394.32 310C393.578 310.748 392.992 311.634 392.594 312.609C392.196 313.583 391.994 314.627 392 315.68V392H315.68C314.627 391.994 313.583 392.196 312.609 392.594C311.634 392.992 310.747 393.579 310 394.32L256 448L202 394C201.252 393.259 200.366 392.672 199.391 392.274C198.416 391.876 197.373 391.674 196.32 391.68H120V315.68C120.006 314.627 119.804 313.583 119.406 312.609C119.008 311.634 118.421 310.748 117.68 310L63.9999 256L118 202C118.741 201.252 119.328 200.366 119.726 199.391C120.124 198.417 120.326 197.373 120.32 196.32V120H196.64C197.693 120.006 198.736 119.804 199.711 119.406C200.686 119.008 201.572 118.421 202.32 117.68L256 64L310 118C310.747 118.741 311.634 119.328 312.609 119.726C313.583 120.124 314.627 120.326 315.68 120.32H392V196.64C391.994 197.693 392.196 198.737 392.594 199.711C392.992 200.686 393.578 201.573 394.32 202.32L448 256L394.32 310Z" fill="black"/>
<path d="M256 128C230.684 128 205.936 135.507 184.887 149.572C163.837 163.637 147.431 183.628 137.743 207.017C128.055 230.405 125.52 256.142 130.459 280.972C135.398 305.801 147.589 328.609 165.49 346.51C183.391 364.411 206.199 376.602 231.028 381.541C255.858 386.479 281.594 383.945 304.983 374.257C328.372 364.569 348.363 348.162 362.428 327.113C376.493 306.063 384 281.316 384 256C384 222.052 370.514 189.495 346.509 165.49C322.505 141.486 289.948 128 256 128ZM256 368C233.848 368 212.194 361.431 193.776 349.125C175.358 336.818 161.002 319.326 152.525 298.861C144.048 278.395 141.83 255.876 146.152 234.15C150.473 212.424 161.14 192.468 176.804 176.804C192.467 161.141 212.424 150.474 234.15 146.152C255.876 141.831 278.395 144.048 298.86 152.525C319.326 161.003 336.818 175.358 349.124 193.776C361.431 212.194 368 233.848 368 256C368 285.704 356.2 314.192 335.196 335.196C314.192 356.2 285.704 368 256 368Z" fill="black"/>
</svg>
