<svg width="264" height="197" viewBox="0 0 264 197" fill="none" xmlns="http://www.w3.org/2000/svg">
<path d="M263.168 172.323H0V172.454H263.168V172.323Z" fill="#EBEBEB"/>
<path d="M236.799 180.792H219.367V180.923H236.799V180.792Z" fill="#EBEBEB"/>
<path d="M174.333 182.223H169.759V182.355H174.333V182.223Z" fill="#EBEBEB"/>
<path d="M218.84 175.907H208.74V176.039H218.84V175.907Z" fill="#EBEBEB"/>
<path d="M50.3441 176.791H27.6116V176.923H50.3441V176.791Z" fill="#EBEBEB"/>
<path d="M58.3655 176.791H55.0338V176.923H58.3655V176.791Z" fill="#EBEBEB"/>
<path d="M118.505 179.012H69.1975V179.144H118.505V179.012Z" fill="#EBEBEB"/>
<path d="M124.742 148.848H23.1114C22.3153 148.847 21.5522 148.529 20.9897 147.966C20.4272 147.402 20.1113 146.639 20.1113 145.843V2.97907C20.1183 2.18747 20.4372 1.43057 20.999 0.872781C21.5607 0.314991 22.3198 0.00135605 23.1114 0H124.742C125.539 0 126.303 0.316638 126.867 0.880256C127.431 1.44387 127.747 2.20831 127.747 3.00538V145.843C127.747 146.64 127.431 147.404 126.867 147.968C126.303 148.531 125.539 148.848 124.742 148.848ZM23.1114 0.105268C22.3502 0.106662 21.6206 0.410051 21.0828 0.948841C20.545 1.48763 20.2429 2.2178 20.2429 2.97907V145.843C20.2429 146.604 20.545 147.334 21.0828 147.873C21.6206 148.412 22.3502 148.715 23.1114 148.716H124.742C125.504 148.715 126.234 148.412 126.772 147.873C127.311 147.335 127.614 146.604 127.616 145.843V2.97907C127.614 2.21731 127.311 1.48716 126.772 0.94852C126.234 0.40988 125.504 0.106659 124.742 0.105268H23.1114Z" fill="#EBEBEB"/>
<path d="M238.594 148.848H136.958C136.161 148.847 135.398 148.53 134.835 147.966C134.271 147.403 133.954 146.639 133.953 145.843V2.97907C133.961 2.18699 134.281 1.4301 134.844 0.872452C135.406 0.314807 136.166 0.00134126 136.958 0H238.594C239.384 0.00273932 240.142 0.316986 240.703 0.874628C241.263 1.43227 241.582 2.18838 241.589 2.97907V145.843C241.589 146.638 241.273 147.401 240.712 147.964C240.151 148.527 239.389 148.845 238.594 148.848ZM136.958 0.105268C136.196 0.106659 135.466 0.40988 134.928 0.94852C134.389 1.48716 134.086 2.21731 134.084 2.97907V145.843C134.086 146.604 134.389 147.335 134.928 147.873C135.466 148.412 136.196 148.715 136.958 148.716H238.594C239.355 148.715 240.086 148.412 240.624 147.873C241.163 147.335 241.466 146.604 241.468 145.843V2.97907C241.466 2.21731 241.163 1.48716 240.624 0.94852C240.086 0.40988 239.355 0.106659 238.594 0.105268H136.958Z" fill="#EBEBEB"/>
<path d="M44.9492 96.1985H47.9124L47.9124 33.8276H44.9492L44.9492 96.1985Z" fill="#E0E0E0"/>
<path d="M103.051 33.833H46.6598V96.2039H103.051V33.833Z" fill="#E0E0E0"/>
<path d="M104.852 33.833H46.3597V96.2039H104.852V33.833Z" fill="#F0F0F0"/>
<path d="M102.378 35.8225H48.744V93.3353H102.378V35.8225Z" fill="white"/>
<path d="M102.378 35.8225H100.825V93.3353H102.378V35.8225Z" fill="#E0E0E0"/>
<path d="M48.6019 77.1768V78.7295H100.988V77.1768H48.6019Z" fill="#E0E0E0"/>
<path d="M102.378 74.5767H47.9124V77.182H102.378V74.5767Z" fill="#F0F0F0"/>
<path d="M144.064 171.349H221.651V73.0976L144.064 73.0976V171.349Z" fill="#F0F0F0"/>
<path d="M146.806 97.6829L218.909 97.6829V76.6715H146.806V97.6829Z" fill="#E0E0E0"/>
<path d="M214.809 97.6829H218.903V80.0769H214.809V97.6829Z" fill="#EBEBEB"/>
<path d="M195.003 97.6829H199.097V80.0769H195.003V97.6829Z" fill="#EBEBEB"/>
<path d="M169.533 96.9863L173.568 97.6819L176.559 80.3318L172.523 79.6362L169.533 96.9863Z" fill="#EBEBEB"/>
<path d="M209.74 97.6829H213.835V82.3928H209.74V97.6829Z" fill="#EBEBEB"/>
<path d="M200.319 97.6829H204.413V82.3928H200.319V97.6829Z" fill="#EBEBEB"/>
<path d="M176.554 97.6829H180.649V82.3928H176.554V97.6829Z" fill="#EBEBEB"/>
<path d="M186.316 96.7937L190.313 97.6821L193.631 82.7562L189.633 81.8678L186.316 96.7937Z" fill="#EBEBEB"/>
<path d="M206.198 97.6829H208.245V79.1979H206.198V97.6829Z" fill="#EBEBEB"/>
<path d="M181.834 97.6829H183.881V79.1979H181.834V97.6829Z" fill="#EBEBEB"/>
<path d="M218.903 101.015H146.801V122.026H218.903V101.015Z" fill="#E0E0E0"/>
<path d="M150.895 104.415H146.801V122.021H150.895V104.415Z" fill="#EBEBEB"/>
<path d="M170.702 104.415H166.607V122.021H170.702V104.415Z" fill="#EBEBEB"/>
<path d="M193.188 103.969L189.153 104.665L192.143 122.015L196.179 121.319L193.188 103.969Z" fill="#EBEBEB"/>
<path d="M155.975 106.736H151.88V122.026H155.975V106.736Z" fill="#EBEBEB"/>
<path d="M165.386 106.736H161.291V122.026H165.386V106.736Z" fill="#EBEBEB"/>
<path d="M189.15 106.736H185.055V122.026H189.15V106.736Z" fill="#EBEBEB"/>
<path d="M176.088 106.203L172.091 107.092L175.408 122.018L179.405 121.129L176.088 106.203Z" fill="#EBEBEB"/>
<path d="M159.517 103.541H157.469V122.026H159.517V103.541Z" fill="#EBEBEB"/>
<path d="M183.876 103.541H181.828V122.026H183.876V103.541Z" fill="#EBEBEB"/>
<path d="M214.809 122.021H218.903V104.415H214.809V122.021Z" fill="#EBEBEB"/>
<path d="M209.74 122.021H213.835V106.73H209.74V122.021Z" fill="#EBEBEB"/>
<path d="M200.319 122.021H204.413V106.73H200.319V122.021Z" fill="#EBEBEB"/>
<path d="M206.198 122.021H208.245V103.536H206.198V122.021Z" fill="#EBEBEB"/>
<path d="M146.806 146.358H218.909V125.347H146.806V146.358Z" fill="#E0E0E0"/>
<path d="M173.423 146.358H177.518V128.752H173.423V146.358Z" fill="#EBEBEB"/>
<path d="M147.955 145.656L151.99 146.351L154.981 129.001L150.945 128.306L147.955 145.656Z" fill="#EBEBEB"/>
<path d="M188.16 146.358H192.255V131.068H188.16V146.358Z" fill="#EBEBEB"/>
<path d="M178.744 146.358H182.839V131.068H178.744V146.358Z" fill="#EBEBEB"/>
<path d="M154.975 146.358H159.07V131.068H154.975V146.358Z" fill="#EBEBEB"/>
<path d="M164.74 145.463L168.737 146.351L172.055 131.425L168.057 130.537L164.74 145.463Z" fill="#EBEBEB"/>
<path d="M184.618 146.358H186.665V127.873H184.618V146.358Z" fill="#EBEBEB"/>
<path d="M160.254 146.358H162.301V127.873H160.254V146.358Z" fill="#EBEBEB"/>
<path d="M195.078 145.657L199.113 146.353L202.104 129.002L198.069 128.307L195.078 145.657Z" fill="#EBEBEB"/>
<path d="M202.103 146.358H206.198V131.068H202.103V146.358Z" fill="#EBEBEB"/>
<path d="M211.864 145.461L215.861 146.349L219.179 131.423L215.181 130.535L211.864 145.461Z" fill="#EBEBEB"/>
<path d="M207.371 146.358H209.419V127.873H207.371V146.358Z" fill="#EBEBEB"/>
<path d="M92.8458 110.941H47.8124C46.6496 110.939 45.4979 111.166 44.4229 111.61C43.348 112.053 42.371 112.704 41.5478 113.525C40.7246 114.346 40.0714 115.322 39.6254 116.396C39.1795 117.47 38.9496 118.621 38.9489 119.784V154.953H101.694V119.784C101.694 118.622 101.465 117.472 101.02 116.399C100.575 115.325 99.9234 114.35 99.1018 113.529C98.2801 112.708 97.3047 112.057 96.2313 111.613C95.1579 111.169 94.0075 110.94 92.8458 110.941Z" fill="#E6E6E6"/>
<path d="M115.01 137.005H106.952C105.556 137.005 104.217 137.56 103.23 138.547C102.243 139.534 101.688 140.873 101.688 142.269V171.349H120.257V142.263C120.256 140.871 119.703 139.536 118.72 138.551C117.736 137.565 116.402 137.01 115.01 137.005Z" fill="#E0E0E0"/>
<path d="M115.01 137.005H114.836C113.44 137.005 112.101 137.56 111.114 138.547C110.127 139.534 109.573 140.873 109.573 142.269V171.349H120.252V142.263C120.251 140.872 119.699 139.538 118.716 138.553C117.734 137.567 116.401 137.011 115.01 137.005Z" fill="#EBEBEB"/>
<path d="M107.336 157.985H45.5281V171.344H107.336V157.985Z" fill="#E6E6E6"/>
<path d="M107.42 145.769H47.8124C44.8619 145.769 42.4701 148.161 42.4701 151.111V154.443C42.4701 157.393 44.8619 159.785 47.8124 159.785H107.42C110.371 159.785 112.762 157.393 112.762 154.443V151.111C112.762 148.161 110.371 145.769 107.42 145.769Z" fill="#F5F5F5"/>
<path d="M55.3075 145.769H47.9124C44.9619 145.769 42.5701 148.161 42.5701 151.111V154.443C42.5701 157.393 44.9619 159.785 47.9124 159.785H55.3075C58.2579 159.785 60.6498 157.393 60.6498 154.443V151.111C60.6498 148.161 58.2579 145.769 55.3075 145.769Z" fill="#E0E0E0"/>
<path d="M47.1124 137.005H39.0542C37.6583 137.005 36.3195 137.56 35.3324 138.547C34.3453 139.534 33.7908 140.873 33.7908 142.269V171.349H52.3705V142.263C52.3691 140.869 51.8147 139.533 50.8289 138.547C49.8431 137.561 48.5065 137.007 47.1124 137.005Z" fill="#E0E0E0"/>
<path d="M47.1124 137.005H46.944C45.548 137.005 44.2093 137.56 43.2222 138.547C42.2351 139.534 41.6806 140.873 41.6806 142.269V171.349H52.3705V142.263C52.3691 140.869 51.8147 139.533 50.8289 138.547C49.8431 137.561 48.5065 137.007 47.1124 137.005Z" fill="#F0F0F0"/>
<path d="M180.891 49.7547C186.81 49.7547 191.608 44.9569 191.608 39.0385C191.608 33.1201 186.81 28.3223 180.891 28.3223C174.973 28.3223 170.175 33.1201 170.175 39.0385C170.175 44.9569 174.973 49.7547 180.891 49.7547Z" fill="#E0E0E0"/>
<path d="M189.894 40.5016C190.7 35.5348 187.327 30.8549 182.36 30.0486C177.394 29.2424 172.714 32.6152 171.907 37.582C171.101 42.5488 174.474 47.2288 179.441 48.035C184.408 48.8412 189.088 45.4684 189.894 40.5016Z" fill="#F0F0F0"/>
<path d="M180.465 32.7854V39.1541L176.244 36.7645" fill="#F0F0F0"/>
<path d="M180.465 39.6119C180.385 39.6122 180.307 39.5904 180.239 39.5488L176.028 37.1645C175.929 37.1012 175.858 37.0024 175.83 36.8885C175.802 36.7745 175.819 36.6541 175.877 36.5521C175.935 36.45 176.03 36.3742 176.142 36.3403C176.255 36.3064 176.376 36.3169 176.481 36.3697L180.018 38.3751V32.7854C180.03 32.673 180.083 32.5692 180.167 32.4937C180.251 32.4182 180.36 32.3765 180.473 32.3765C180.586 32.3765 180.695 32.4182 180.779 32.4937C180.863 32.5692 180.916 32.673 180.928 32.7854V39.154C180.929 39.234 180.908 39.3126 180.868 39.3819C180.829 39.4512 180.771 39.5088 180.702 39.5488C180.631 39.5923 180.548 39.6142 180.465 39.6119Z" fill="#E0E0E0"/>
<path d="M131.584 196.097C187.946 196.097 233.636 192.852 233.636 188.85C233.636 184.847 187.946 181.602 131.584 181.602C75.2227 181.602 29.5328 184.847 29.5328 188.85C29.5328 192.852 75.2227 196.097 131.584 196.097Z" fill="#F5F5F5"/>
<path d="M204.566 79.3821H190.355C189.061 79.3821 187.82 79.8961 186.905 80.8111C185.99 81.7262 185.476 82.9672 185.476 84.2612V90.1457C185.476 91.4397 185.99 92.6807 186.905 93.5957C187.82 94.5108 189.061 95.0248 190.355 95.0248H196.429L198.061 100.178L199.708 95.0248H204.54C205.834 95.0248 207.075 94.5108 207.99 93.5957C208.905 92.6807 209.419 91.4397 209.419 90.1457V84.2612C209.419 82.9717 208.908 81.7347 207.999 80.8204C207.09 79.9062 205.856 79.389 204.566 79.3821Z" fill="#4CAF4F"/>
<path d="M191.944 86.8456C191.944 87.0402 191.887 87.2305 191.779 87.3924C191.67 87.5543 191.517 87.6804 191.337 87.7549C191.157 87.8294 190.959 87.8489 190.768 87.8109C190.577 87.7729 190.402 87.6792 190.264 87.5415C190.127 87.4039 190.033 87.2285 189.995 87.0376C189.957 86.8467 189.976 86.6488 190.051 86.4689C190.125 86.2891 190.252 86.1353 190.413 86.0272C190.575 85.919 190.766 85.8613 190.96 85.8613C191.09 85.8613 191.217 85.8868 191.337 85.9362C191.456 85.9857 191.565 86.0582 191.656 86.1496C191.748 86.241 191.82 86.3495 191.87 86.4689C191.919 86.5883 191.944 86.7163 191.944 86.8456ZM195.303 85.8613C195.108 85.8613 194.918 85.919 194.756 86.0272C194.594 86.1353 194.468 86.2891 194.393 86.4689C194.319 86.6488 194.299 86.8467 194.337 87.0376C194.375 87.2285 194.469 87.4039 194.607 87.5415C194.744 87.6792 194.92 87.7729 195.111 87.8109C195.301 87.8489 195.499 87.8294 195.679 87.7549C195.859 87.6804 196.013 87.5543 196.121 87.3924C196.229 87.2305 196.287 87.0402 196.287 86.8456C196.281 86.5882 196.175 86.3432 195.991 86.1632C195.807 85.9831 195.56 85.8823 195.303 85.8824V85.8613ZM199.645 85.8613C199.45 85.8613 199.26 85.919 199.098 86.0272C198.936 86.1353 198.81 86.2891 198.735 86.4689C198.661 86.6488 198.641 86.8467 198.679 87.0376C198.717 87.2285 198.811 87.4039 198.949 87.5415C199.086 87.6792 199.262 87.7729 199.453 87.8109C199.644 87.8489 199.842 87.8294 200.021 87.7549C200.201 87.6804 200.355 87.5543 200.463 87.3924C200.571 87.2305 200.629 87.0402 200.629 86.8456C200.624 86.5882 200.517 86.3432 200.333 86.1632C200.149 85.9831 199.902 85.8823 199.645 85.8824V85.8613ZM203.987 85.8613C203.792 85.8613 203.602 85.919 203.44 86.0272C203.278 86.1353 203.152 86.2891 203.078 86.4689C203.003 86.6488 202.984 86.8467 203.022 87.0376C203.06 87.2285 203.153 87.4039 203.291 87.5415C203.429 87.6792 203.604 87.7729 203.795 87.8109C203.986 87.8489 204.184 87.8294 204.364 87.7549C204.544 87.6804 204.697 87.5543 204.805 87.3924C204.914 87.2305 204.971 87.0402 204.971 86.8456C204.966 86.5882 204.86 86.3432 204.676 86.1632C204.492 85.9831 204.245 85.8823 203.987 85.8824V85.8613Z" fill="white"/>
<path d="M58.6865 96.7512H44.5018C43.861 96.7512 43.2266 96.8774 42.6346 97.1226C42.0426 97.3678 41.5048 97.7272 41.0517 98.1803C40.5986 98.6334 40.2392 99.1712 39.994 99.7632C39.7488 100.355 39.6226 100.99 39.6226 101.63V107.515C39.6226 108.809 40.1367 110.05 41.0517 110.965C41.9667 111.88 43.2077 112.394 44.5018 112.394H50.5757L52.2073 117.542L53.8548 112.394H58.6865C59.9806 112.394 61.2216 111.88 62.1366 110.965C63.0516 110.05 63.5657 108.809 63.5657 107.515V101.63C63.5657 100.99 63.4395 100.355 63.1943 99.7632C62.9491 99.1712 62.5897 98.6334 62.1366 98.1803C61.6835 97.7272 61.1457 97.3678 60.5537 97.1226C59.9617 96.8774 59.3273 96.7512 58.6865 96.7512Z" fill="#4CAF4F"/>
<path d="M46.065 104.215C46.065 104.409 46.0073 104.6 45.8991 104.762C45.791 104.923 45.6373 105.05 45.4574 105.124C45.2776 105.199 45.0797 105.218 44.8888 105.18C44.6978 105.142 44.5225 105.048 44.3848 104.911C44.2472 104.773 44.1534 104.598 44.1154 104.407C44.0775 104.216 44.0969 104.018 44.1714 103.838C44.2459 103.658 44.3721 103.505 44.5339 103.396C44.6958 103.288 44.8861 103.231 45.0808 103.231C45.3418 103.231 45.5922 103.334 45.7767 103.519C45.9613 103.703 46.065 103.954 46.065 104.215ZM49.423 103.231C49.2284 103.231 49.0381 103.288 48.8762 103.396C48.7144 103.505 48.5882 103.658 48.5137 103.838C48.4392 104.018 48.4197 104.216 48.4577 104.407C48.4957 104.598 48.5894 104.773 48.7271 104.911C48.8647 105.048 49.0401 105.142 49.231 105.18C49.422 105.218 49.6199 105.199 49.7997 105.124C49.9796 105.05 50.1333 104.923 50.2414 104.762C50.3496 104.6 50.4073 104.409 50.4073 104.215C50.4031 103.957 50.2974 103.711 50.1132 103.531C49.9289 103.351 49.6809 103.25 49.423 103.252V103.231ZM53.7653 103.231C53.5702 103.228 53.3789 103.284 53.2157 103.391C53.0524 103.498 52.9246 103.651 52.8485 103.831C52.7724 104.01 52.7514 104.209 52.7882 104.4C52.825 104.592 52.9179 104.768 53.0551 104.907C53.1923 105.046 53.3677 105.14 53.5589 105.179C53.7501 105.218 53.9485 105.199 54.129 105.125C54.3094 105.051 54.4638 104.925 54.5724 104.763C54.681 104.601 54.739 104.41 54.739 104.215C54.7349 103.959 54.6307 103.715 54.4487 103.535C54.2667 103.355 54.0213 103.253 53.7653 103.252V103.231ZM58.1076 103.231C57.9129 103.231 57.7226 103.288 57.5608 103.396C57.3989 103.505 57.2728 103.658 57.1983 103.838C57.1238 104.018 57.1043 104.216 57.1423 104.407C57.1802 104.598 57.274 104.773 57.4116 104.911C57.5493 105.048 57.7247 105.142 57.9156 105.18C58.1065 105.218 58.3044 105.199 58.4843 105.124C58.6641 105.05 58.8178 104.923 58.926 104.762C59.0341 104.6 59.0919 104.409 59.0919 104.215C59.0877 103.957 58.982 103.711 58.7977 103.531C58.6134 103.351 58.3654 103.25 58.1076 103.252V103.231Z" fill="white"/>
<path d="M217.377 189.587H150.574C138.095 189.587 137.295 174.891 147.553 167.975C149.429 166.728 151.505 165.813 153.69 165.27C174.002 159.927 202.54 124.015 222.64 139.042L222.698 139.084C242.72 154.217 228.725 189.587 217.377 189.587Z" fill="#263238"/>
<path opacity="0.5" d="M217.377 189.587H150.574C138.095 189.587 137.295 174.891 147.553 167.975C149.429 166.728 151.505 165.813 153.69 165.27C174.002 159.927 202.54 124.015 222.64 139.042L222.698 139.084C242.72 154.217 228.725 189.587 217.377 189.587Z" fill="white"/>
<path opacity="0.2" d="M222.588 139.016C220.904 138.905 218.861 139.379 216.661 141.221C210.951 146.011 219.635 169.07 205.977 178.66C198.355 184.012 165.475 186.37 154.501 179.807C146.401 174.959 146.295 171.912 147.553 167.975C149.429 166.728 151.505 165.813 153.69 165.27C173.975 159.901 202.513 123.989 222.588 139.016Z" fill="black"/>
<path d="M170.649 134.668L166.665 131.863L169.644 128.815C169.644 128.815 172.702 130.394 172.412 133.21L170.649 134.668Z" fill="#E4897B"/>
<path d="M165.101 128.768L167.865 127.031L169.644 128.816L166.665 131.863L165.101 128.768Z" fill="#E4897B"/>
<path d="M190.25 127.421C186.476 128.531 184.618 135.169 181.502 141.437L172.433 132.426L169.549 134.984C169.549 134.984 177.854 148.18 181.776 148.18C186.671 148.18 191.75 134.584 191.75 134.584L190.25 127.421Z" fill="#263238"/>
<path opacity="0.1" d="M191.75 134.584C191.75 134.584 190.944 136.737 189.644 139.321C188.408 141.837 186.723 144.769 184.907 146.543C183.881 147.537 182.802 148.169 181.749 148.169C177.828 148.169 169.523 134.974 169.523 134.974L172.407 132.416L181.476 141.427C184.592 135.158 186.444 128.521 190.229 127.41L191.75 134.584Z" fill="white"/>
<path opacity="0.2" d="M189.665 139.332C188.429 141.848 186.744 144.779 184.928 146.553C185.123 140.537 188.086 134.668 188.086 134.668C188.903 136.109 189.439 137.691 189.665 139.332Z" fill="black"/>
<path d="M186.639 164.085C186.639 164.085 154.611 159.485 152.917 166.512C151.132 173.944 176.849 178.954 192.218 179.481C207.587 180.007 211.998 176.323 209.529 157.375H188.476L186.639 164.085Z" fill="#4CAF4F"/>
<path opacity="0.6" d="M186.639 164.085C186.639 164.085 154.611 159.485 152.917 166.512C151.132 173.944 176.849 178.954 192.218 179.481C207.587 180.007 211.998 176.323 209.529 157.375H188.476L186.639 164.085Z" fill="white"/>
<path d="M168.801 178.739L162.091 178.744L158.869 178.749L158.485 175.354L161.464 174.954L168.744 173.986L168.801 178.739Z" fill="#E4897B"/>
<path d="M159.212 174.928L160.027 178.802C160.039 178.853 160.04 178.905 160.03 178.957C160.021 179.008 160.001 179.057 159.972 179.1C159.943 179.143 159.905 179.18 159.861 179.209C159.817 179.237 159.768 179.256 159.717 179.265L157.785 179.612C157.785 179.612 155.222 180.265 154.501 179.807C152.396 178.46 150.374 169.944 151.232 169.312C151.543 169.08 152.085 169.433 152.359 169.712C153.222 170.591 155.059 173.049 155.79 173.775C156.638 174.628 158.148 174.654 158.812 174.617C158.904 174.613 158.996 174.642 159.069 174.699C159.142 174.756 159.193 174.837 159.212 174.928Z" fill="#263238"/>
<path opacity="0.2" d="M168.801 178.739L162.091 178.744L161.464 174.954L168.744 173.986L168.801 178.739Z" fill="black"/>
<path d="M178.612 172.749L184.981 174.87L188.039 175.886L187.329 179.223L184.376 178.66L177.165 177.281L178.612 172.749Z" fill="#E4897B"/>
<path d="M186.507 179.396L186.955 175.465C186.961 175.413 186.978 175.363 187.004 175.318C187.029 175.273 187.064 175.234 187.105 175.202C187.146 175.17 187.193 175.147 187.243 175.133C187.293 175.12 187.345 175.116 187.397 175.123L189.339 175.407C189.339 175.407 191.971 175.596 192.497 176.26C194.076 178.202 193.297 186.923 192.287 187.249C191.913 187.37 191.513 186.865 191.339 186.518C190.813 185.407 189.834 182.491 189.371 181.576C188.844 180.497 187.407 179.997 186.771 179.818C186.684 179.79 186.61 179.732 186.562 179.655C186.514 179.578 186.494 179.486 186.507 179.396Z" fill="#263238"/>
<path opacity="0.2" d="M178.612 172.749L184.981 174.87L184.376 178.66L177.165 177.281L178.612 172.749Z" fill="black"/>
<path d="M183.27 179.249L181.455 179.423L182.539 173.138L184.623 174.238L183.27 179.249Z" fill="#4CAF4F"/>
<path opacity="0.6" d="M183.27 179.249L181.455 179.423L182.539 173.138L184.623 174.238L183.27 179.249Z" fill="white"/>
<path d="M189.35 181.528C189.397 181.813 189.355 182.105 189.229 182.365C189.178 182.443 189.107 182.506 189.024 182.547C188.941 182.589 188.848 182.608 188.755 182.602C188.699 182.604 188.643 182.592 188.593 182.566C188.543 182.54 188.501 182.502 188.471 182.455C188.197 181.991 188.839 180.565 188.918 180.407C188.923 180.389 188.934 180.374 188.95 180.364C188.966 180.355 188.984 180.351 189.002 180.354C189.022 180.356 189.041 180.364 189.056 180.378C189.072 180.391 189.082 180.409 189.086 180.428C189.211 180.785 189.299 181.154 189.35 181.528ZM188.592 182.212C188.595 182.259 188.61 182.304 188.634 182.344C188.644 182.364 188.66 182.381 188.68 182.391C188.7 182.402 188.722 182.405 188.744 182.402C188.808 182.409 188.873 182.399 188.931 182.371C188.988 182.343 189.037 182.299 189.071 182.244C189.224 181.743 189.196 181.205 188.992 180.723C188.77 181.191 188.635 181.696 188.592 182.212Z" fill="#4CAF4F"/>
<path d="M189.102 180.439V180.481C188.929 180.939 188.139 181.844 187.692 181.781C187.618 181.768 187.552 181.731 187.502 181.676C187.452 181.62 187.423 181.55 187.418 181.476C187.398 181.402 187.394 181.324 187.407 181.249C187.419 181.173 187.448 181.102 187.492 181.039C187.818 180.512 188.95 180.344 189.013 180.349C189.03 180.346 189.048 180.348 189.064 180.356C189.08 180.363 189.094 180.376 189.102 180.391C189.106 180.407 189.106 180.423 189.102 180.439ZM187.586 181.402V181.444C187.618 181.576 187.671 181.581 187.697 181.591C187.96 181.628 188.565 181.039 188.829 180.586C188.38 180.641 187.961 180.842 187.639 181.16C187.594 181.232 187.574 181.317 187.581 181.402H187.586Z" fill="#4CAF4F"/>
<path d="M162.701 174.465C162.701 174.465 192.497 162.885 201.624 164.822C210.751 166.759 210.793 171.533 206.166 175.986C201.54 180.439 194.629 178.723 194.629 178.723C194.629 178.723 200.061 175.47 199.682 173.459C199.303 171.449 195.85 176.044 195.85 176.044C195.85 176.044 177.844 180.449 162.975 179.286L162.701 174.465Z" fill="#4CAF4F"/>
<path d="M155.996 173.838C155.823 173.609 155.727 173.331 155.722 173.044C155.73 172.951 155.763 172.862 155.817 172.787C155.87 172.711 155.943 172.651 156.027 172.612C156.076 172.585 156.132 172.571 156.188 172.571C156.244 172.571 156.299 172.585 156.348 172.612C156.801 172.901 156.875 174.465 156.875 174.644C156.877 174.662 156.873 174.68 156.863 174.695C156.854 174.71 156.839 174.722 156.822 174.728C156.806 174.739 156.786 174.745 156.767 174.745C156.747 174.745 156.728 174.739 156.712 174.728C156.442 174.457 156.203 174.159 155.996 173.838ZM156.354 172.88C156.327 172.842 156.293 172.81 156.254 172.786C156.236 172.773 156.215 172.767 156.193 172.767C156.171 172.767 156.15 172.773 156.133 172.786C156.072 172.808 156.019 172.847 155.979 172.898C155.94 172.949 155.917 173.011 155.911 173.075C156.006 173.59 156.28 174.055 156.685 174.386C156.665 173.868 156.552 173.359 156.354 172.88Z" fill="#4CAF4F"/>
<path d="M156.711 174.691V174.644C156.659 174.159 156.938 172.991 157.369 172.838C157.441 172.816 157.517 172.818 157.587 172.845C157.657 172.872 157.716 172.921 157.754 172.986C157.853 173.103 157.902 173.254 157.891 173.407C157.838 174.023 156.912 174.691 156.838 174.723C156.823 174.733 156.806 174.738 156.788 174.738C156.77 174.738 156.753 174.733 156.738 174.723C156.727 174.714 156.718 174.704 156.711 174.691ZM157.617 173.138V173.102C157.533 173.002 157.48 173.023 157.454 173.028C157.201 173.112 156.927 173.912 156.927 174.438C157.185 174.223 157.685 173.77 157.717 173.386C157.722 173.3 157.7 173.216 157.654 173.144L157.617 173.138Z" fill="#4CAF4F"/>
<path opacity="0.7" d="M162.701 174.465C162.701 174.465 192.497 162.885 201.624 164.822C210.751 166.759 210.793 171.533 206.166 175.986C201.54 180.439 194.629 178.723 194.629 178.723C194.629 178.723 200.061 175.47 199.682 173.459C199.303 171.449 195.85 176.044 195.85 176.044C195.85 176.044 177.844 180.449 162.975 179.286L162.701 174.465Z" fill="white"/>
<path d="M162.338 174.375L164.012 173.607L164.975 179.876L162.649 179.497L162.338 174.375Z" fill="#4CAF4F"/>
<path opacity="0.6" d="M162.338 174.375L164.012 173.607L164.975 179.876L162.649 179.497L162.338 174.375Z" fill="white"/>
<path d="M211.645 128.426C208.429 146.322 209.598 157.901 209.598 157.901C209.598 157.901 194.634 157.696 188.486 157.348C185.207 135.658 190.25 127.416 190.25 127.416C191.857 127.093 193.483 126.87 195.118 126.747C195.46 126.721 195.813 126.705 196.171 126.689C199.071 126.687 201.969 126.851 204.85 127.179C205.377 127.237 205.95 127.31 206.487 127.389C209.229 127.805 211.645 128.426 211.645 128.426Z" fill="#263238"/>
<path opacity="0.1" d="M211.645 128.426C211.245 130.647 210.914 132.773 210.64 134.784C210.208 137.942 209.919 140.869 209.729 143.469C209.672 144.253 209.619 145.016 209.582 145.742C209.429 148.406 209.387 150.685 209.393 152.527C209.393 155.99 209.598 157.901 209.598 157.901C209.598 157.901 194.634 157.696 188.486 157.348C185.202 135.658 190.255 127.415 190.255 127.415C191.861 127.093 193.485 126.87 195.118 126.747C195.46 126.721 195.813 126.705 196.171 126.689C199.071 126.684 201.969 126.848 204.85 127.179C205.377 127.236 205.95 127.31 206.487 127.389C209.229 127.8 211.645 128.426 211.645 128.426Z" fill="white"/>
<path opacity="0.2" d="M198.282 148.179C202.116 147.724 205.9 146.91 209.582 145.748C209.429 148.411 209.387 150.69 209.393 152.532C202.25 153.19 199.334 151.816 199.334 151.816L198.282 148.179Z" fill="black"/>
<path opacity="0.2" d="M210.64 134.789C210.208 137.947 209.919 140.874 209.729 143.474C207.682 139.305 209.203 134.305 209.203 134.305L210.64 134.789Z" fill="black"/>
<path d="M199.092 155.527H188.208C187.996 155.524 187.793 155.441 187.64 155.296C187.486 155.151 187.392 154.954 187.376 154.743L185.86 140.295C185.85 140.198 185.86 140.1 185.89 140.007C185.92 139.914 185.97 139.829 186.036 139.757C186.101 139.685 186.182 139.628 186.271 139.589C186.361 139.55 186.457 139.53 186.555 139.532H197.439C197.647 139.536 197.845 139.616 197.998 139.757C198.15 139.897 198.245 140.089 198.266 140.295L199.787 154.743C199.801 154.842 199.793 154.942 199.764 155.037C199.735 155.133 199.686 155.22 199.62 155.295C199.554 155.37 199.473 155.429 199.382 155.469C199.29 155.509 199.192 155.529 199.092 155.527Z" fill="#263238"/>
<path opacity="0.6" d="M199.092 155.527H188.208C187.996 155.524 187.793 155.441 187.64 155.296C187.486 155.151 187.392 154.954 187.376 154.743L185.86 140.295C185.85 140.198 185.86 140.1 185.89 140.007C185.92 139.914 185.97 139.829 186.036 139.757C186.101 139.685 186.182 139.628 186.271 139.589C186.361 139.55 186.457 139.53 186.555 139.532H197.439C197.647 139.536 197.845 139.616 197.998 139.757C198.15 139.897 198.245 140.089 198.266 140.295L199.787 154.743C199.801 154.842 199.793 154.942 199.764 155.037C199.735 155.133 199.686 155.22 199.62 155.295C199.554 155.37 199.473 155.429 199.382 155.469C199.29 155.509 199.192 155.529 199.092 155.527Z" fill="white"/>
<path opacity="0.2" d="M198.64 155.527H188.208C187.996 155.524 187.793 155.441 187.64 155.296C187.486 155.151 187.392 154.954 187.376 154.743L185.86 140.295C185.85 140.198 185.86 140.1 185.89 140.007C185.92 139.914 185.97 139.829 186.036 139.757C186.101 139.685 186.182 139.628 186.271 139.589C186.361 139.55 186.457 139.53 186.555 139.532H196.987C197.194 139.536 197.393 139.616 197.545 139.757C197.697 139.897 197.793 140.089 197.813 140.295L199.334 154.743C199.348 154.842 199.34 154.942 199.311 155.037C199.283 155.133 199.233 155.22 199.167 155.295C199.101 155.37 199.02 155.429 198.929 155.469C198.838 155.509 198.739 155.529 198.64 155.527Z" fill="white"/>
<path d="M192.292 146.358C192.142 146.357 191.993 146.388 191.856 146.449C191.719 146.51 191.597 146.6 191.497 146.712C191.397 146.824 191.323 146.956 191.278 147.099C191.234 147.243 191.22 147.394 191.239 147.543C191.27 147.862 191.418 148.159 191.654 148.376C191.89 148.594 192.197 148.717 192.518 148.722C192.668 148.723 192.816 148.692 192.953 148.631C193.089 148.571 193.211 148.482 193.311 148.37C193.411 148.259 193.485 148.127 193.53 147.984C193.575 147.842 193.589 147.691 193.571 147.543C193.25 147.536 192.942 147.412 192.706 147.194C192.47 146.976 192.323 146.678 192.292 146.358Z" fill="#263238"/>
<path opacity="0.3" d="M194.65 140.7H188.897C188.756 140.698 188.618 140.657 188.499 140.58C188.38 140.504 188.284 140.396 188.223 140.269L187.881 139.553H195.471L195.271 140.269C195.232 140.4 195.149 140.515 195.036 140.593C194.923 140.672 194.787 140.709 194.65 140.7Z" fill="black"/>
<path d="M198.029 147.716L195.513 147.511L195.618 150.858L197.724 151.964L202.577 151.522L202.971 149.264C201.376 146.927 198.029 147.716 198.029 147.716Z" fill="#E4897B"/>
<path d="M211.645 128.426C214.23 129.205 217.893 144.216 217.309 147.532C216.724 150.848 210.351 152.269 202.25 152.085V148.169L211.645 145.427L210.066 139.637C210.066 139.637 208.761 135.379 209.345 132.4C209.666 130.863 210.472 129.47 211.645 128.426Z" fill="#263238"/>
<path opacity="0.1" d="M211.645 128.426C214.23 129.205 217.893 144.216 217.309 147.532C216.724 150.848 210.351 152.269 202.25 152.085V148.169L211.645 145.427L210.066 139.637C210.066 139.637 208.761 135.379 209.345 132.4C209.666 130.863 210.472 129.47 211.645 128.426Z" fill="white"/>
<path d="M203.598 127.01C202.287 128.379 200.229 129.526 196.929 129.405C194.397 129.305 194.045 127.716 194.487 126.842C196.024 126.526 196.718 125.858 196.934 125.005C197.15 124.152 196.85 123.005 196.408 121.942L200.676 118.347L201.398 117.736C201.398 117.942 201.371 118.157 201.361 118.384C201.311 119.218 201.311 120.055 201.361 120.889C201.503 123.242 202.061 125.795 203.598 127.01Z" fill="#E4897B"/>
<path opacity="0.2" d="M201.366 120.889C200.571 122.515 199.176 124.478 196.934 125.005C197.166 124.1 196.85 123.005 196.408 121.942L200.676 118.347C200.903 118.347 201.134 118.347 201.361 118.384C201.313 119.218 201.314 120.055 201.366 120.889Z" fill="black"/>
<path d="M191.587 111.199C190.96 112.631 190.881 115.704 193.06 114.941C195.239 114.178 192.639 108.741 191.587 111.199Z" fill="#263238"/>
<path d="M202.024 114.373C201.834 118.205 201.924 120.463 200.008 122.436C197.124 125.405 192.366 123.657 191.397 119.836C190.534 116.389 190.987 110.699 194.724 109.162C195.552 108.823 196.454 108.699 197.344 108.802C198.234 108.905 199.083 109.232 199.812 109.753C200.541 110.273 201.126 110.97 201.513 111.778C201.9 112.586 202.076 113.479 202.024 114.373Z" fill="#E4897B"/>
<path d="M196.213 115.457C196.213 115.768 196.055 116.026 195.85 116.026C195.645 116.026 195.476 115.773 195.471 115.457C195.466 115.141 195.634 114.894 195.834 114.894C196.034 114.894 196.208 115.147 196.213 115.457Z" fill="#263238"/>
<path d="M192.676 115.468C192.676 115.778 192.518 116.031 192.313 116.031C192.108 116.031 191.939 115.778 191.939 115.468C191.939 115.157 192.097 114.905 192.302 114.905C192.508 114.905 192.676 115.152 192.676 115.468Z" fill="#263238"/>
<path d="M193.802 115.62C193.43 116.545 192.931 117.413 192.318 118.199C192.535 118.342 192.78 118.438 193.037 118.481C193.293 118.523 193.556 118.512 193.808 118.447L193.802 115.62Z" fill="#DE5753"/>
<path d="M197.287 114.315C197.255 114.32 197.223 114.316 197.193 114.304C197.164 114.292 197.138 114.272 197.118 114.247C196.982 114.06 196.804 113.907 196.599 113.801C196.393 113.695 196.165 113.638 195.934 113.636C195.886 113.639 195.838 113.623 195.8 113.592C195.763 113.56 195.739 113.516 195.734 113.468C195.732 113.443 195.735 113.419 195.742 113.396C195.749 113.373 195.761 113.351 195.777 113.333C195.792 113.314 195.812 113.299 195.833 113.288C195.855 113.276 195.878 113.27 195.903 113.268C196.195 113.266 196.484 113.333 196.745 113.464C197.007 113.595 197.234 113.785 197.408 114.02C197.438 114.059 197.451 114.107 197.445 114.156C197.439 114.204 197.415 114.248 197.376 114.278C197.35 114.298 197.319 114.311 197.287 114.315Z" fill="#263238"/>
<path d="M191.139 114.257C191.105 114.267 191.068 114.267 191.034 114.257C191.012 114.246 190.993 114.231 190.977 114.213C190.96 114.195 190.948 114.174 190.94 114.151C190.933 114.128 190.929 114.103 190.931 114.079C190.933 114.055 190.939 114.031 190.95 114.01C191.066 113.742 191.246 113.506 191.473 113.323C191.7 113.14 191.969 113.014 192.255 112.957C192.279 112.954 192.304 112.956 192.327 112.963C192.351 112.969 192.373 112.98 192.392 112.996C192.411 113.011 192.427 113.03 192.439 113.051C192.45 113.072 192.458 113.096 192.46 113.12C192.464 113.144 192.463 113.168 192.457 113.191C192.452 113.214 192.441 113.236 192.427 113.255C192.413 113.274 192.395 113.29 192.375 113.302C192.354 113.314 192.331 113.322 192.308 113.325C192.082 113.368 191.87 113.466 191.691 113.61C191.512 113.754 191.371 113.94 191.281 114.152C191.268 114.179 191.248 114.203 191.223 114.221C191.198 114.24 191.169 114.252 191.139 114.257Z" fill="#263238"/>
<path d="M196.003 111.299C196.003 111.299 197.055 110.541 197.539 111.357C198.024 112.173 197.992 114.347 197.992 114.347L198.203 113.962C198.203 113.962 199.566 118.805 201.54 117.583C203.513 116.362 206.414 111.446 201.803 108.941C201.803 108.941 201.313 107.773 198.266 107.194C195.218 106.615 191.534 108.499 190.897 110.515C190.26 112.531 191.15 113.673 191.15 113.673C191.247 113.234 191.448 112.825 191.734 112.478C191.775 112.683 191.866 112.876 191.999 113.037C192.132 113.199 192.303 113.325 192.497 113.404C192.466 112.992 192.552 112.58 192.745 112.215C192.845 112.573 193.025 112.904 193.271 113.183C193.492 111.11 194.903 110.688 195.345 110.704C195.503 110.722 195.652 110.789 195.77 110.895C195.888 111.002 195.969 111.143 196.003 111.299Z" fill="#263238"/>
<path d="M203.545 117.547C203.404 118.003 203.174 118.426 202.869 118.793C202.564 119.16 202.189 119.462 201.766 119.684C200.629 120.268 199.797 119.305 199.892 118.105C199.976 117.015 200.666 115.399 201.913 115.32C202.186 115.308 202.458 115.363 202.704 115.481C202.951 115.599 203.164 115.776 203.325 115.997C203.487 116.217 203.591 116.474 203.63 116.744C203.668 117.014 203.639 117.29 203.545 117.547Z" fill="#E4897B"/>
<path d="M193.929 119.731C194.257 120.075 194.56 120.442 194.834 120.831L195.06 120.72C196.076 120.194 196.382 119.631 196.408 119.141C196.415 118.905 196.366 118.671 196.266 118.457C196.212 118.335 196.141 118.222 196.055 118.12C195.57 118.718 194.961 119.202 194.271 119.541C194.066 119.668 193.929 119.731 193.929 119.731Z" fill="#263238"/>
<path d="M194.271 119.552L194.55 119.868C195.503 119.384 196.129 118.91 196.266 118.468C196.212 118.346 196.141 118.232 196.055 118.131C195.57 118.728 194.961 119.213 194.271 119.552Z" fill="white"/>
<path d="M195.06 120.721C196.076 120.194 196.382 119.631 196.408 119.142C196.025 119.345 195.681 119.614 195.392 119.936C195.201 120.156 195.085 120.431 195.06 120.721Z" fill="#A24E3F"/>
<path d="M102.325 132.206L102.599 135.127C102.599 135.127 119.694 137.727 122.431 140.39C125.168 143.053 134.879 185.176 134.879 185.176L130.963 185.702C130.963 185.702 117.373 154.649 116.647 150.154C116.647 150.154 104.678 150.601 96.5091 150.601C88.3404 150.601 87.3667 132.179 87.3667 132.179L102.325 132.206Z" fill="#4CAF4F"/>
<path opacity="0.3" d="M134.879 185.181L130.963 185.708C130.963 185.708 125.405 173.007 121.21 162.675C118.836 156.849 116.905 151.775 116.647 150.153C116.647 150.153 108.362 150.459 100.857 150.564C99.3408 150.564 97.8618 150.596 96.4881 150.596C88.3193 150.596 87.3456 132.174 87.3456 132.174H102.304L102.578 135.095C102.578 135.095 119.678 137.69 122.41 140.358C125.142 143.027 134.879 185.181 134.879 185.181Z" fill="white"/>
<path d="M137.9 188.955C135.269 188.955 134.916 188.913 133.432 188.86C132.163 188.818 131.853 188.976 130.842 188.955C129.989 188.955 130.021 188.118 130.284 187.181C130.416 186.708 130.616 185.713 130.81 184.955L134.674 184.671C135.2 185.723 136.442 187.192 137.927 187.392C139.411 187.592 138.953 188.955 137.9 188.955Z" fill="#263238"/>
<path opacity="0.2" d="M121.21 162.696C118.836 156.869 116.905 151.796 116.647 150.174C116.647 150.174 108.362 150.48 100.857 150.585L100.046 136.274C100.046 136.274 110.615 137.79 117.72 143.911C118.621 144.669 120.373 156.391 121.21 162.696Z" fill="black"/>
<path d="M117.526 153.338H86.9403V151.459C86.9403 150.832 87.1893 150.231 87.6325 149.788C88.0757 149.345 88.6768 149.096 89.3036 149.096H115.162C115.789 149.096 116.39 149.345 116.834 149.788C117.277 150.231 117.526 150.832 117.526 151.459V153.338Z" fill="#263238"/>
<path opacity="0.2" d="M117.526 153.338H86.9403V151.459C86.9403 150.832 87.1893 150.231 87.6325 149.788C88.0757 149.345 88.6768 149.096 89.3036 149.096H115.162C115.789 149.096 116.39 149.345 116.834 149.788C117.277 150.231 117.526 150.832 117.526 151.459V153.338Z" fill="white"/>
<path d="M116.463 180.839L104.673 179.812V164.328H100.53V179.807L88.6983 180.86C88.1953 180.91 87.7286 181.144 87.3891 181.519C87.0497 181.893 86.8615 182.381 86.8614 182.886V184.465H118.305V182.886C118.31 182.376 118.123 181.883 117.782 181.504C117.441 181.125 116.97 180.888 116.463 180.839Z" fill="#263238"/>
<path d="M90.6721 186.386C90.6721 186.923 90.5131 187.447 90.2152 187.892C89.9174 188.338 89.494 188.686 88.9987 188.891C88.5034 189.096 87.9584 189.15 87.4326 189.045C86.9068 188.94 86.4238 188.682 86.0447 188.303C85.6656 187.924 85.4075 187.441 85.3029 186.915C85.1983 186.389 85.252 185.844 85.4571 185.349C85.6623 184.854 86.0097 184.43 86.4555 184.133C86.9012 183.835 87.4253 183.676 87.9614 183.676C88.6803 183.676 89.3698 183.961 89.8781 184.47C90.3865 184.978 90.6721 185.668 90.6721 186.386Z" fill="#263238"/>
<path d="M117.194 189.097C118.691 189.097 119.905 187.883 119.905 186.386C119.905 184.889 118.691 183.676 117.194 183.676C115.697 183.676 114.484 184.889 114.484 186.386C114.484 187.883 115.697 189.097 117.194 189.097Z" fill="#263238"/>
<path d="M99.8145 152.327H105.388V165.533C105.388 166.051 105.183 166.547 104.816 166.914C104.45 167.28 103.954 167.486 103.436 167.486H101.772C101.255 167.486 100.758 167.28 100.392 166.914C100.026 166.547 99.8198 166.051 99.8198 165.533V152.327H99.8145Z" fill="#263238"/>
<path opacity="0.2" d="M99.8145 152.327H105.388V165.533C105.388 166.051 105.183 166.547 104.816 166.914C104.45 167.28 103.954 167.486 103.436 167.486H101.772C101.255 167.486 100.758 167.28 100.392 166.914C100.026 166.547 99.8198 166.051 99.8198 165.533V152.327H99.8145Z" fill="white"/>
<path d="M86.7245 153.827H117.736C118.262 153.827 118.689 153.401 118.689 152.874V152.659C118.689 152.133 118.262 151.706 117.736 151.706H86.7245C86.1984 151.706 85.7719 152.133 85.7719 152.659V152.874C85.7719 153.401 86.1984 153.827 86.7245 153.827Z" fill="#263238"/>
<path opacity="0.2" d="M90.6721 186.386C90.6721 186.923 90.5131 187.447 90.2152 187.892C89.9174 188.338 89.494 188.686 88.9987 188.891C88.5034 189.096 87.9584 189.15 87.4326 189.045C86.9068 188.94 86.4238 188.682 86.0447 188.303C85.6656 187.924 85.4075 187.441 85.3029 186.915C85.1983 186.389 85.252 185.844 85.4571 185.349C85.6623 184.854 86.0097 184.43 86.4555 184.133C86.9012 183.835 87.4253 183.676 87.9614 183.676C88.6803 183.676 89.3698 183.961 89.8781 184.47C90.3865 184.978 90.6721 185.668 90.6721 186.386Z" fill="white"/>
<path opacity="0.2" d="M117.194 189.097C118.691 189.097 119.905 187.883 119.905 186.386C119.905 184.889 118.691 183.676 117.194 183.676C115.697 183.676 114.484 184.889 114.484 186.386C114.484 187.883 115.697 189.097 117.194 189.097Z" fill="white"/>
<path d="M120.126 127.3H110.678C107.91 127.3 105.909 124.81 106.215 121.747L106.615 117.652C106.92 114.584 109.404 112.094 112.173 112.094H121.621C124.389 112.094 126.389 114.584 126.089 117.652L125.684 121.747C125.384 124.81 122.894 127.3 120.126 127.3Z" fill="#263238"/>
<path opacity="0.2" d="M120.126 127.3H110.678C107.91 127.3 105.909 124.81 106.215 121.747L106.615 117.652C106.92 114.584 109.404 112.094 112.173 112.094H121.621C124.389 112.094 126.389 114.584 126.089 117.652L125.684 121.747C125.384 124.81 122.894 127.3 120.126 127.3Z" fill="white"/>
<path d="M119.257 125.305H113.689C112.052 125.305 110.868 123.837 111.057 122.021L111.299 119.605C111.473 117.789 112.947 116.321 114.584 116.321H120.163C121.8 116.321 122.984 117.789 122.794 119.605L122.552 122.021C122.363 123.837 120.894 125.305 119.257 125.305Z" fill="#263238"/>
<path d="M114.826 121.694C114.826 121.694 113.552 147.301 108.036 151.696H113.936C113.936 151.696 119.199 142.974 119.584 121.694H114.826Z" fill="#263238"/>
<path d="M119.573 111.025L120.589 110.499C120.78 110.402 120.991 110.351 121.205 110.351C121.419 110.351 121.63 110.402 121.821 110.499L123.642 111.394C124 111.57 124.311 111.83 124.549 112.151C124.786 112.473 124.942 112.847 125.005 113.241L125.089 113.741C123.463 114.762 120.957 114.668 120.957 114.668L120.236 114.726C120.089 114.741 119.941 114.727 119.799 114.684C119.658 114.641 119.526 114.571 119.412 114.477C119.298 114.383 119.203 114.267 119.134 114.136C119.065 114.006 119.023 113.862 119.01 113.715L118.884 112.294C118.86 112.038 118.912 111.781 119.035 111.555C119.158 111.329 119.345 111.145 119.573 111.025Z" fill="#B97964"/>
<path opacity="0.2" d="M119.573 111.025L120.589 110.499C120.78 110.402 120.991 110.351 121.205 110.351C121.419 110.351 121.63 110.402 121.821 110.499L123.642 111.394C124 111.57 124.311 111.83 124.549 112.151C124.786 112.473 124.942 112.847 125.005 113.241L125.089 113.741C123.463 114.762 120.957 114.668 120.957 114.668L120.236 114.726C120.089 114.741 119.941 114.727 119.799 114.684C119.658 114.641 119.526 114.571 119.412 114.477C119.298 114.383 119.203 114.267 119.134 114.136C119.065 114.006 119.023 113.862 119.01 113.715L118.884 112.294C118.86 112.038 118.912 111.781 119.035 111.555C119.158 111.329 119.345 111.145 119.573 111.025Z" fill="black"/>
<path d="M112.11 112.278L108.425 116.936H104.92L105.378 110.436C108.031 110.947 112.11 112.278 112.11 112.278Z" fill="#4CAF4F"/>
<path opacity="0.2" d="M108.115 116.936H105.083L106.967 112.278C106.967 112.278 108.046 113.915 108.115 116.936Z" fill="black"/>
<path d="M102.551 133.963L87.1245 132.532C87.6088 130.889 88.0351 129.279 88.393 127.726C88.8457 125.826 89.2036 124.005 89.4878 122.305C89.772 120.605 90.0141 119.026 90.1826 117.594L90.2299 117.189C90.2299 116.963 90.2826 116.742 90.3036 116.531C90.4563 115.147 90.551 113.941 90.6142 112.947C90.7457 111.004 90.7457 109.883 90.7457 109.883C96.0314 108.871 101.486 109.195 106.615 110.826C108.91 117.289 102.551 133.963 102.551 133.963Z" fill="#4CAF4F"/>
<path d="M102.499 111.857C102.265 112.343 101.906 112.758 101.46 113.061C101.014 113.363 100.496 113.543 99.9584 113.581C99.4207 113.62 98.8824 113.516 98.3978 113.28C97.9133 113.043 97.4996 112.683 97.1986 112.236L96.5302 111.241L95.7091 110.005C97.0881 109.189 97.6302 106.578 97.8144 104.336C97.8723 103.631 97.8934 102.967 97.8934 102.404L101.357 107.141C101.114 107.643 100.938 108.174 100.83 108.72C100.786 108.946 100.769 109.175 100.778 109.405C100.783 110.326 101.241 111.178 102.499 111.857Z" fill="#B97964"/>
<path opacity="0.2" d="M101.346 107.168C101.104 107.669 100.927 108.2 100.82 108.747C99.9092 109.915 98.4934 111.152 96.5407 111.231L95.7091 110.005C97.0881 109.189 97.6302 106.578 97.8144 104.336C97.8723 103.631 97.8934 102.967 97.8934 102.404L101.346 107.168Z" fill="black"/>
<path d="M93.0248 99.2567C93.0248 99.2567 91.3142 98.6146 91.8195 97.4303C92.3247 96.246 92.9353 96.2566 92.9353 96.2566C92.6768 95.7724 92.5363 95.2339 92.5253 94.6851C92.5143 94.1363 92.6332 93.5927 92.8721 93.0986C93.7195 91.5195 95.5933 92.1617 95.5933 92.1617C95.6007 91.6657 95.7768 91.187 96.0924 90.8043C96.4081 90.4217 96.8447 90.1579 97.3302 90.0563C97.8258 89.9743 98.3346 90.0564 98.7792 90.2901C99.2239 90.5238 99.58 90.8964 99.7935 91.3511C99.7935 91.3511 100.972 89.8195 102.699 90.2405C104.425 90.6616 104.773 93.067 104.773 93.067C105.244 92.9132 105.757 92.9472 106.204 93.1619C106.651 93.3766 106.998 93.7555 107.173 94.2196C107.407 94.7041 107.506 95.2435 107.456 95.7796C107.407 96.3157 107.213 96.8282 106.894 97.2619C106.894 97.2619 107.994 96.7355 108.357 98.5093C108.72 100.283 106.867 101.841 106.867 101.841C106.867 101.841 107.867 101.962 107.352 103.273C106.836 104.583 105.209 104.604 105.209 104.604C105.209 104.604 105.841 104.925 104.646 106.004C103.452 107.083 99.604 105.541 99.604 105.541L93.0248 99.2567Z" fill="#263238"/>
<path d="M97.7302 96.4461C94.0459 96.6356 92.9932 98.6672 92.9037 102.473C92.8142 107.21 94.0406 110.531 98.5829 109.278C104.741 107.578 103.836 96.125 97.7302 96.4461Z" fill="#B97964"/>
<path d="M95.267 102.141C95.0017 102.705 94.6694 103.235 94.2775 103.72C94.3936 103.867 94.5478 103.979 94.7232 104.044C94.8987 104.109 95.0886 104.124 95.2722 104.089L95.267 102.141Z" fill="#A24E3F"/>
<path d="M97.5039 101.72C97.5039 102.025 97.6829 102.246 97.8829 102.246C98.0829 102.246 98.2408 101.994 98.2355 101.688C98.2302 101.383 98.0566 101.162 97.8513 101.162C97.646 101.162 97.4934 101.42 97.5039 101.72Z" fill="#263238"/>
<path d="M97.9355 101.178L97.2723 100.936C97.2723 100.936 97.6144 101.483 97.9355 101.178Z" fill="#263238"/>
<path d="M93.7406 101.767C93.7406 102.073 93.9195 102.294 94.1248 102.294C94.3301 102.294 94.4827 102.041 94.4722 101.736C94.4617 101.431 94.2932 101.209 94.0932 101.209C93.8932 101.209 93.7353 101.467 93.7406 101.767Z" fill="#263238"/>
<path d="M94.1774 101.22L93.509 100.983C93.509 100.983 93.8564 101.525 94.1774 101.22Z" fill="#263238"/>
<path d="M99.0303 99.8092C99.0083 99.8097 98.9864 99.8052 98.9664 99.7961C98.9464 99.787 98.9286 99.7735 98.9145 99.7566C98.7158 99.5793 98.4795 99.4493 98.2233 99.3763C97.9671 99.3034 97.6978 99.2895 97.4355 99.3355C97.4151 99.3393 97.3941 99.3391 97.3738 99.3348C97.3536 99.3305 97.3343 99.3223 97.3172 99.3105C97.3001 99.2988 97.2855 99.2838 97.2741 99.2664C97.2628 99.2491 97.2551 99.2296 97.2513 99.2092C97.2451 99.1688 97.2548 99.1276 97.2783 99.0943C97.3019 99.0609 97.3375 99.038 97.3776 99.0303C97.693 98.9726 98.0175 98.9902 98.3248 99.0817C98.6321 99.1732 98.9135 99.3359 99.1461 99.5566C99.175 99.5861 99.1912 99.6258 99.1912 99.6671C99.1912 99.7085 99.175 99.7482 99.1461 99.7777C99.1129 99.8025 99.0715 99.8138 99.0303 99.8092Z" fill="#263238"/>
<path d="M93.2774 99.6989C93.2534 99.6988 93.2298 99.6935 93.208 99.6836C93.1862 99.6736 93.1668 99.6591 93.1511 99.641C93.1259 99.6075 93.1152 99.5654 93.1211 99.5239C93.127 99.4824 93.1492 99.445 93.1827 99.4199C93.3987 99.2384 93.6528 99.1078 93.9261 99.0377C94.1994 98.9675 94.4849 98.9597 94.7617 99.0146C94.7819 99.0206 94.8006 99.0306 94.8169 99.044C94.8332 99.0573 94.8466 99.0738 94.8564 99.0925C94.8663 99.1111 94.8722 99.1315 94.874 99.1525C94.8758 99.1735 94.8734 99.1946 94.8669 99.2146C94.8537 99.2532 94.826 99.2852 94.7897 99.3039C94.7534 99.3225 94.7113 99.3264 94.6722 99.3146C94.4409 99.273 94.2032 99.2835 93.9764 99.3454C93.7497 99.4074 93.5397 99.5191 93.3616 99.6726C93.3365 99.6889 93.3074 99.698 93.2774 99.6989Z" fill="#263238"/>
<path d="M102.073 102.431C102.073 102.431 100.193 99.4989 100.336 97.1672C100.336 97.1672 92.8932 94.5724 92.9195 101.983C92.9195 101.983 91.8668 95.4566 98.1829 94.9777C104.499 94.4987 104.952 103.746 101.83 106.673C101.825 106.662 103.236 104.262 102.073 102.431Z" fill="#263238"/>
<path d="M101.515 103.241C101.519 103.028 101.566 102.819 101.652 102.624C101.738 102.43 101.862 102.254 102.016 102.107C102.17 101.96 102.351 101.846 102.55 101.769C102.748 101.693 102.96 101.656 103.173 101.662C104.32 101.73 104.983 104.041 102.178 104.752C101.778 104.862 101.525 104.478 101.515 103.241Z" fill="#B97964"/>
<path d="M96.1565 106.231C96.0514 106.238 95.9458 106.238 95.8407 106.231C95.8203 106.227 95.8008 106.219 95.7835 106.208C95.7661 106.197 95.7511 106.182 95.7394 106.165C95.7276 106.148 95.7194 106.128 95.7151 106.108C95.7108 106.088 95.7106 106.067 95.7144 106.047C95.7175 106.026 95.7247 106.007 95.7355 105.99C95.7463 105.972 95.7604 105.957 95.7771 105.946C95.7938 105.934 95.8127 105.925 95.8327 105.921C95.8526 105.917 95.8732 105.916 95.8933 105.92C96.2898 105.99 96.6981 105.924 97.0525 105.733C97.4068 105.542 97.6864 105.237 97.846 104.868C97.8536 104.848 97.865 104.831 97.8794 104.816C97.8938 104.801 97.9111 104.789 97.9301 104.78C97.9492 104.772 97.9697 104.767 97.9905 104.767C98.0113 104.767 98.0319 104.77 98.0513 104.778C98.0706 104.786 98.0883 104.797 98.1033 104.811C98.1183 104.826 98.1302 104.843 98.1385 104.862C98.1469 104.881 98.1513 104.902 98.1517 104.923C98.1521 104.943 98.1484 104.964 98.1408 104.983C97.9794 105.371 97.702 105.699 97.3466 105.922C96.9913 106.145 96.5756 106.253 96.1565 106.231Z" fill="#263238"/>
<path d="M103.425 101.088C102.546 96.5249 95.7986 92.6932 93.2669 97.9987C93.6913 96.669 94.5123 95.5009 95.6196 94.6511C95.6196 94.6511 102.462 92.6984 103.667 100.493L103.425 101.088Z" fill="#4CAF4F"/>
<path d="M99.8303 188.955C97.1986 188.955 96.846 188.913 95.3617 188.86C94.0932 188.818 93.7827 188.976 92.7721 188.955C91.9195 188.955 91.951 188.118 92.2142 187.181C92.3458 186.708 92.5458 185.713 92.7405 184.955L96.6038 184.671C97.1302 185.723 98.3723 187.192 99.8566 187.392C101.341 187.592 100.878 188.955 99.8303 188.955Z" fill="#263238"/>
<path d="M87.3719 132.205C87.3719 132.205 82.1085 140.032 84.9613 146.464C87.814 152.896 102.241 149.99 102.241 149.99L92.7353 184.971L97.2828 185.723C97.2828 185.723 113.405 151.053 113.815 145.143C114.226 139.232 96.8197 135.437 96.8197 135.437L87.3719 132.205Z" fill="#4CAF4F"/>
<path opacity="0.3" d="M87.3719 132.205C87.3719 132.205 82.1085 140.032 84.9613 146.464C87.814 152.896 102.241 149.99 102.241 149.99L92.7353 184.971L97.2828 185.723C97.2828 185.723 113.405 151.053 113.815 145.143C114.226 139.232 96.8197 135.437 96.8197 135.437L87.3719 132.205Z" fill="white"/>
<path opacity="0.2" d="M103.425 114.215C103.425 114.215 96.0565 119.405 90.2299 117.173C90.2299 116.947 90.2826 116.726 90.3036 116.515C90.4562 115.131 90.551 113.926 90.6141 112.931C92.5024 112.068 94.4626 111.372 96.4723 110.852C98.541 112.428 100.906 113.571 103.425 114.215Z" fill="black"/>
<path d="M93.1616 109.894C96.4039 111.473 99.7514 113.436 103.283 114.157C105.315 114.026 107.589 113.199 109.631 112.642L115.752 110.789C116.014 110.706 116.298 110.724 116.547 110.84C116.797 110.955 116.995 111.159 117.102 111.412C117.209 111.665 117.218 111.949 117.127 112.209C117.036 112.468 116.852 112.684 116.61 112.815C114.699 113.868 112.773 114.836 110.778 115.721C108.315 116.731 106.041 117.91 103.262 118.163C102.265 118.151 101.273 118.006 100.315 117.731C97.0788 116.782 93.9633 115.463 91.03 113.799C90.5632 113.494 90.2281 113.025 90.0909 112.484C89.9537 111.943 90.0245 111.371 90.2891 110.88C90.5538 110.389 90.9931 110.015 91.5202 109.833C92.0473 109.65 92.6236 109.672 93.1353 109.894H93.1616Z" fill="#B97864"/>
<path d="M91.4194 109.31C88.5825 109.984 88.4877 114.852 91.0931 117.136L97.4092 111.805C97.4092 111.805 94.7827 108.51 91.4194 109.31Z" fill="#4CAF4F"/>
<path d="M115.915 110.815L119.415 110.731L117.836 114.273C117.836 114.273 114.678 114.162 114.831 112.552L115.915 110.815Z" fill="#B97964"/>
<path d="M122.421 112.462L120.021 115.047L117.826 114.273L119.415 110.731L122.421 112.462Z" fill="#B97964"/>
<path d="M169.417 153.433C171.865 158.496 174.223 163.559 175.818 168.981C176.549 172.665 176.686 176.412 176.96 180.071C177.149 183.097 177.26 186.118 177.302 189.155L174.591 189.439C173.733 185.171 172.928 180.407 172.181 176.102C171.823 174.154 171.549 172.239 171.059 170.365C169.196 165.538 166.612 160.57 164.47 155.822L169.417 153.433Z" fill="#DC897C"/>
<path d="M173.46 160.059L169.17 162.112L166.507 163.402L164.891 159.517L163.201 155.449L164.628 148.032C169.007 149.948 173.46 160.059 173.46 160.059Z" fill="#4CAF4F"/>
<path opacity="0.2" d="M169.17 162.112L166.507 163.401L164.891 159.517C165.222 157.317 165.501 155.448 165.501 155.448C165.501 155.448 168.617 158.243 169.17 162.112Z" fill="black"/>
<path d="M156.322 134.584C156.369 134.9 156.575 135.111 156.78 135.111C156.985 135.111 157.112 134.8 157.064 134.484C157.017 134.169 156.806 133.958 156.601 133.958C156.396 133.958 156.243 134.274 156.322 134.584Z" fill="#263238"/>
<path d="M156.517 135.132C157.039 136.033 157.681 136.858 158.427 137.585C158.238 137.773 158.01 137.917 157.759 138.008C157.508 138.099 157.241 138.134 156.975 138.111L156.517 135.132Z" fill="#DE5753"/>
<path d="M154.875 133.021C154.828 133.02 154.783 133.001 154.748 132.969C154.714 132.933 154.695 132.886 154.695 132.837C154.695 132.788 154.714 132.741 154.748 132.705C154.954 132.494 155.208 132.336 155.489 132.244C155.769 132.152 156.068 132.13 156.359 132.179C156.383 132.184 156.406 132.194 156.426 132.208C156.446 132.221 156.463 132.239 156.476 132.26C156.489 132.28 156.499 132.303 156.503 132.327C156.507 132.352 156.506 132.376 156.501 132.4C156.496 132.424 156.486 132.447 156.472 132.467C156.459 132.487 156.441 132.504 156.42 132.518C156.4 132.531 156.377 132.54 156.353 132.544C156.328 132.548 156.304 132.548 156.28 132.542C156.049 132.509 155.813 132.532 155.592 132.609C155.371 132.686 155.172 132.815 155.011 132.984C154.992 132.999 154.97 133.01 154.947 133.016C154.923 133.023 154.899 133.024 154.875 133.021Z" fill="#263238"/>
<path d="M157.301 139.343C157.2 140.613 156.658 141.809 155.769 142.722C155.182 143.325 154.461 143.781 153.664 144.053C152.902 144.318 152.085 144.389 151.289 144.259C150.492 144.13 149.74 143.804 149.101 143.311C146.848 141.638 146.553 139.358 145.722 135.543C145.517 134.658 145.542 133.736 145.794 132.863C146.046 131.991 146.517 131.197 147.162 130.558C147.807 129.919 148.604 129.455 149.479 129.211C150.353 128.967 151.276 128.951 152.159 129.163C156.18 130.116 157.59 135.753 157.301 139.343Z" fill="#E4897B"/>
<path d="M147.169 141.769C148.748 142.764 154.717 139.969 153.732 135.269C153.732 135.269 156.085 132.695 155.969 129.732C155.854 126.768 153.864 125.521 151.696 126.079C149.769 126.547 149.774 127.595 149.774 127.595C149.774 127.595 140.742 128.232 142.49 131.974C138.648 135.795 145.227 140.532 147.169 141.769Z" fill="#263238"/>
<path d="M152.111 136C152.325 136.948 152.844 137.799 153.59 138.421C154.575 139.232 155.375 138.516 155.359 137.369C155.359 136.316 154.832 134.648 153.69 134.284C152.548 133.921 151.89 134.858 152.111 136Z" fill="#E4897B"/>
<path opacity="0.2" d="M157.027 140.669C156.765 141.438 156.335 142.139 155.769 142.722C155.182 143.325 154.461 143.781 153.664 144.053C153.129 143.782 152.615 143.471 152.127 143.122L152.927 141.158C152.927 141.158 155.38 142.358 157.027 140.669Z" fill="black"/>
<path d="M148.453 146.585L147.78 141.969C147.78 141.969 150.785 139.864 153.932 141.279L158.669 146.99L148.453 146.585Z" fill="#E4897B"/>
<path d="M159.217 146.422L158.117 144.774C158.117 144.774 150.138 141.821 146.658 145.606C146.658 145.606 154.443 149.722 159.217 146.422Z" fill="#4CAF4F"/>
<path opacity="0.2" d="M159.217 146.422L158.117 144.774C158.117 144.774 150.138 141.821 146.658 145.606C146.658 145.606 154.443 149.722 159.217 146.422Z" fill="black"/>
<path d="M128.579 191.176L125.573 189.239L126.726 187.518L129.858 182.844L132.868 184.781L129.405 189.945L128.579 191.176Z" fill="#E4897B"/>
<path d="M125.794 188.992L130.005 188.95C130.074 188.951 130.139 188.975 130.193 189.018C130.246 189.061 130.284 189.12 130.3 189.187L131.005 192.245C131.031 192.376 131.006 192.513 130.934 192.626C130.863 192.739 130.751 192.821 130.621 192.855H130.51C129.153 192.855 128.168 192.771 126.468 192.787C125.416 192.787 122.257 192.939 120.815 192.95C119.373 192.96 119.163 191.539 119.763 191.402C122.394 190.797 124.405 189.976 125.247 189.202C125.398 189.068 125.592 188.993 125.794 188.992Z" fill="#263238"/>
<path d="M126.605 186.355L132.111 187.839L161.996 165.165L146.664 161.807C145.569 161.572 144.428 161.677 143.394 162.107C142.36 162.536 141.481 163.271 140.874 164.212L126.605 186.355Z" fill="#263238"/>
<path opacity="0.2" d="M126.605 186.355L132.111 187.839L161.996 165.165L146.664 161.807C145.569 161.572 144.428 161.677 143.394 162.107C142.36 162.536 141.481 163.271 140.874 164.212L126.605 186.355Z" fill="black"/>
<path d="M110.268 191.287L107.162 189.513L108.225 187.734L111.104 182.902L114.21 184.676L111.025 190.013L110.268 191.287Z" fill="#E4897B"/>
<path d="M107.283 188.918H111.494C111.563 188.919 111.629 188.942 111.682 188.985C111.736 189.028 111.773 189.088 111.789 189.155L112.468 192.224C112.492 192.356 112.464 192.492 112.391 192.605C112.317 192.717 112.204 192.797 112.073 192.829H111.962C110.61 192.829 109.62 192.724 107.92 192.724C106.867 192.724 103.709 192.834 102.267 192.834C100.825 192.834 100.63 191.402 101.215 191.255C103.846 190.676 105.873 189.876 106.725 189.113C106.882 188.983 107.08 188.914 107.283 188.918Z" fill="#263238"/>
<path d="M169.207 177.07L148.311 177.123C147.785 175.27 147.122 168.823 145.079 160.849C144.527 158.685 143.869 156.412 143.095 154.08C142.453 151.971 141.672 149.907 140.758 147.901C142.649 146.758 144.726 145.958 146.895 145.538C156.143 143.959 164.628 148.032 164.628 148.032C164.628 148.032 168.296 158.243 169.207 177.07Z" fill="#4CAF4F"/>
<path opacity="0.2" d="M145.079 160.849C144.527 158.685 143.869 156.412 143.095 154.08L144.553 153.49C144.553 153.49 146.848 158.664 145.079 160.849Z" fill="black"/>
<path d="M135.937 164.428L138.363 165.575L139.29 161.491C139.29 161.491 137.353 160.812 135.9 161.801L135.937 164.428Z" fill="#E4897B"/>
<path d="M141.842 166.959L141.953 163.238L139.29 161.491L138.363 165.575L141.842 166.959Z" fill="#E4897B"/>
<path d="M143.5 154.296C139.463 156.48 134.853 158.507 131.342 161.365C131.263 161.433 131.289 161.465 131.379 161.159C131.396 160.965 131.371 160.769 131.305 160.586C131.247 160.385 131.118 160.213 130.942 160.101C130.874 160.075 130.916 160.138 131.01 160.201C131.142 160.283 131.281 160.352 131.426 160.407C133.047 161.022 135.295 161.228 137.111 161.459L137.384 164.17C136.811 164.333 136.274 164.444 135.711 164.549C133.605 164.912 131.421 165.17 129.205 164.438C128.253 164.152 127.449 163.506 126.965 162.638C126.481 161.769 126.353 160.746 126.61 159.785C127.695 155.938 137.505 151.138 141.106 149.354L143.5 154.301V154.296Z" fill="#DC897C"/>
<path d="M147.327 172.675L146.39 175.076C146.39 175.076 135.195 161.243 129.021 160.454C122.847 159.664 108.494 185.95 108.494 185.95L113.936 187.597L129.253 173.702C135.569 184.723 143.121 192.808 152.101 192.808H160.87C170.675 192.808 170.786 181.871 168.849 172.597L147.327 172.675Z" fill="#263238"/>
<path d="M140.758 147.901C137.248 149.185 133.121 153.08 133.121 153.08C133.121 153.08 136.595 159.101 136.942 158.87C137.29 158.638 144.416 156.596 144.416 156.596C144.416 156.596 145.869 154.712 144.753 151.522C144.463 150.621 143.941 149.813 143.24 149.177C142.539 148.542 141.683 148.102 140.758 147.901Z" fill="#4CAF4F"/>
<path d="M176.012 187.339L179.828 187.529L177.812 191.255C177.812 191.255 174.417 190.881 174.686 189.15L176.012 187.339Z" fill="#E4897B"/>
<path d="M182.955 189.655L180.139 192.271L177.812 191.255L179.828 187.529L182.955 189.655Z" fill="#E4897B"/>
<path d="M57.7497 149.595C60.3077 152.174 62.8288 155.064 65.8921 157.017C65.8921 157.017 66.0816 157.117 66.0974 157.133C66.0149 157.102 65.9273 157.088 65.8395 157.09C65.7605 157.09 65.8868 157.09 66.0237 157.09C69.5186 156.101 72.7661 153.822 75.982 152.069C76.2309 151.919 76.5263 151.866 76.8119 151.92C77.0975 151.973 77.3534 152.13 77.5308 152.36C77.7083 152.59 77.795 152.878 77.7743 153.168C77.7537 153.458 77.6272 153.73 77.4189 153.932C74.9135 156.254 68.1606 162.459 64.6131 161.159C62.4446 160.364 60.634 158.869 58.9287 157.433C57.2629 155.989 55.6928 154.438 54.2285 152.79C52.2231 150.406 55.5706 147.369 57.7497 149.601V149.595Z" fill="#E9B376"/>
<path d="M62.1498 153.238C61.7025 156.585 58.9918 159.869 58.9918 159.869L58.4234 159.48L55.6549 157.643C55.6549 157.643 55.6022 157.485 55.5233 157.206C55.4443 156.927 55.3443 156.601 55.2233 156.154C54.5864 153.922 53.439 149.748 53.2969 148.016C56.7338 147.937 58.2813 149.574 62.1498 153.238Z" fill="#4CAF4F"/>
<path opacity="0.7" d="M62.1498 153.238C61.7025 156.585 58.9918 159.869 58.9918 159.869L58.4234 159.48L55.6549 157.643C55.6549 157.643 55.6022 157.485 55.5233 157.206C55.4443 156.927 55.3443 156.601 55.2233 156.154C54.5864 153.922 53.439 149.748 53.2969 148.016C56.7338 147.937 58.2813 149.574 62.1498 153.238Z" fill="white"/>
<path opacity="0.2" d="M58.4234 159.48L55.6549 157.643C55.6549 157.643 55.6022 157.485 55.5233 157.206C55.626 156.359 55.7806 155.519 55.9864 154.69C56.7158 155.264 57.3116 155.99 57.7324 156.817C58.1533 157.644 58.389 158.553 58.4234 159.48Z" fill="black"/>
<path d="M55.0548 169.744L57.4181 173.881C63.7341 172.407 84.0402 169.312 86.5298 176.275C89.6299 184.923 67.2448 191.823 54.8601 192.245C42.4754 192.666 31.6697 189.718 39.5016 171.66L55.0548 169.744Z" fill="#263238"/>
<path opacity="0.2" d="M55.0548 169.744L57.4181 173.881C63.7341 172.407 84.0402 169.312 86.5298 176.275C89.6299 184.923 67.2448 191.823 54.8601 192.245C42.4754 192.666 31.6697 189.718 39.5016 171.66L55.0548 169.744Z" fill="black"/>
<path d="M82.9454 188.502C82.9312 188.511 82.9148 188.516 82.8981 188.516C82.8813 188.516 82.8649 188.511 82.8507 188.502C82.8432 188.49 82.8392 188.477 82.8392 188.463C82.8392 188.449 82.8432 188.435 82.8507 188.423C82.8928 188.286 83.3033 187.097 83.7191 186.97C83.7628 186.96 83.8084 186.96 83.8517 186.972C83.895 186.984 83.9346 187.007 83.9665 187.039C84.0236 187.087 84.0672 187.149 84.093 187.219C84.1189 187.289 84.1261 187.365 84.1139 187.439C84.046 187.663 83.9098 187.86 83.7244 188.002C83.4826 188.195 83.2216 188.363 82.9454 188.502ZM83.0507 188.276C83.4375 188.108 83.7499 187.805 83.9297 187.423C83.9414 187.373 83.9382 187.321 83.9204 187.274C83.9026 187.226 83.871 187.184 83.8297 187.155C83.818 187.14 83.8022 187.129 83.7844 187.124C83.7666 187.118 83.7476 187.118 83.7297 187.123C83.6946 187.136 83.6624 187.156 83.6349 187.181C83.3753 187.507 83.1773 187.878 83.0507 188.276Z" fill="#263238"/>
<path d="M82.9191 188.518C82.9087 188.527 82.8957 188.531 82.8823 188.531C82.8688 188.531 82.8558 188.527 82.8454 188.518C82.8033 188.486 82.2349 187.765 82.3191 187.276C82.3292 187.215 82.3517 187.157 82.3852 187.105C82.4187 187.054 82.4625 187.01 82.5138 186.976C82.5583 186.936 82.6147 186.911 82.6744 186.905C82.7341 186.899 82.7941 186.913 82.8454 186.944C83.1454 187.16 83.1086 188.123 82.9612 188.492V188.528L82.9191 188.518ZM82.598 187.107C82.5454 187.15 82.5099 187.209 82.498 187.276C82.5138 187.64 82.6488 187.99 82.8823 188.271C82.9717 187.86 82.9454 187.181 82.7665 187.06C82.7665 187.06 82.7138 187.018 82.6244 187.06V187.086L82.598 187.107Z" fill="#263238"/>
<path d="M61.1709 190.534C61.179 190.521 61.1908 190.51 61.2048 190.504C61.2188 190.497 61.2345 190.495 61.2498 190.497C61.264 190.498 61.2774 190.504 61.2879 190.513C61.2984 190.523 61.3054 190.536 61.3077 190.55C61.3393 190.692 61.5551 191.934 61.2551 192.244C61.2213 192.275 61.1802 192.295 61.1358 192.305C61.0915 192.314 61.0455 192.311 61.0024 192.297C60.9283 192.285 60.8591 192.252 60.8024 192.203C60.7457 192.154 60.7038 192.09 60.6814 192.018C60.6294 191.792 60.6534 191.555 60.7498 191.344C60.8616 191.06 61.0027 190.789 61.1709 190.534ZM61.1709 190.786C60.9146 191.12 60.7859 191.535 60.8077 191.955C60.8222 192.006 60.8514 192.051 60.8918 192.084C60.9321 192.118 60.9817 192.139 61.034 192.144C61.0488 192.154 61.0662 192.16 61.084 192.16C61.1018 192.16 61.1192 192.154 61.134 192.144C61.1577 192.117 61.1756 192.084 61.1867 192.05C61.2656 191.632 61.2656 191.204 61.1867 190.786H61.1709Z" fill="#263238"/>
<path d="M69.2764 184.265L64.1815 186.081L61.734 186.955L62.3604 189.634L64.7289 189.128L70.5186 187.892L69.2764 184.265Z" fill="#EBB376"/>
<path d="M63.0288 189.76L62.5972 186.602C62.5915 186.56 62.5774 186.52 62.5559 186.484C62.5345 186.448 62.506 186.416 62.4721 186.391C62.4383 186.366 62.3998 186.348 62.3589 186.339C62.318 186.329 62.2756 186.327 62.2341 186.334L60.6551 186.597C60.6551 186.597 58.5497 186.792 58.1129 187.339C56.8812 188.918 57.6497 195.939 58.4708 196.187C58.7708 196.276 59.0866 195.866 59.2182 195.581C59.634 194.676 60.3656 192.313 60.7235 191.565C61.134 190.686 62.3025 190.26 62.7867 190.107C62.8629 190.09 62.9299 190.045 62.9746 189.98C63.0194 189.916 63.0387 189.838 63.0288 189.76Z" fill="#4CAF4F"/>
<path d="M61.1814 190.534C61.1929 190.526 61.2067 190.521 61.2209 190.521C61.235 190.521 61.2488 190.526 61.2603 190.534C61.3077 190.534 62.1604 190.902 62.313 191.371C62.3316 191.429 62.3383 191.491 62.3329 191.553C62.3275 191.614 62.31 191.674 62.2814 191.729C62.2646 191.787 62.2282 191.838 62.1783 191.872C62.1285 191.907 62.0682 191.923 62.0077 191.918C61.6446 191.876 61.2077 191.013 61.1603 190.623V190.534C61.1673 190.532 61.1744 190.532 61.1814 190.534ZM62.1498 191.613C62.1708 191.548 62.1708 191.478 62.1498 191.413C62.0498 191.113 61.5761 190.85 61.334 190.729C61.4498 191.134 61.8025 191.713 62.0183 191.734C62.0183 191.734 62.0814 191.734 62.1288 191.644V191.613H62.1498Z" fill="#263238"/>
<path opacity="0.2" d="M69.2765 184.265L64.1815 186.081L64.7289 189.128L70.5186 187.892L69.2765 184.265Z" fill="black"/>
<path d="M65.6342 189.586L67.0974 189.692L66.1184 184.649L64.4552 185.565L65.6342 189.586Z" fill="#4CAF4F"/>
<path opacity="0.6" d="M65.6342 189.586L67.0974 189.692L66.1184 184.649L64.4552 185.565L65.6342 189.586Z" fill="white"/>
<path opacity="0.2" d="M44.3755 170.007L52.0073 178.47C52.0073 178.47 60.4287 178.281 70.6923 183.292C70.6923 183.292 81.6875 178.749 82.698 174.975C84.0244 170.033 57.4339 173.896 57.4339 173.896L44.3755 170.007Z" fill="black"/>
<path d="M54.9759 173.391L39.4121 171.586C39.7102 169.978 39.8861 168.351 39.9384 166.717C40.0008 164.389 39.9093 162.059 39.6647 159.743C39.4489 157.527 39.1384 154.98 38.6121 151.99C38.5068 151.456 38.5224 150.904 38.6579 150.376C38.7933 149.849 39.0451 149.358 39.3948 148.94C39.7446 148.522 40.1834 148.188 40.679 147.961C41.1747 147.735 41.7148 147.623 42.2596 147.632C42.8859 147.632 43.5438 147.664 44.2175 147.706C46.6009 147.813 48.9737 148.089 51.3178 148.532C52.0757 148.685 52.86 148.874 53.6127 149.059C56.3128 149.759 57.9865 153.159 57.7549 155.901C57.6638 158.032 57.4282 160.155 57.0496 162.254C56.5707 165.349 56.0075 168.37 54.9759 173.391Z" fill="#4CAF4F"/>
<path opacity="0.7" d="M54.9759 173.391L39.4121 171.586C39.7102 169.978 39.8861 168.351 39.9384 166.717C40.0008 164.389 39.9093 162.059 39.6647 159.743C39.4489 157.527 39.1384 154.98 38.6121 151.99C38.5068 151.456 38.5224 150.904 38.6579 150.376C38.7933 149.849 39.0451 149.358 39.3948 148.94C39.7446 148.522 40.1834 148.188 40.679 147.961C41.1747 147.735 41.7148 147.623 42.2596 147.632C42.8859 147.632 43.5438 147.664 44.2175 147.706C46.6009 147.813 48.9737 148.089 51.3178 148.532C52.0757 148.685 52.86 148.874 53.6127 149.059C56.3128 149.759 57.9865 153.159 57.7549 155.901C57.6638 158.032 57.4282 160.155 57.0496 162.254C56.5707 165.349 56.0075 168.37 54.9759 173.391Z" fill="white"/>
<path opacity="0.2" d="M39.949 166.722C40.0113 164.394 39.9199 162.065 39.6753 159.749C41.6227 157.448 43.4649 155.538 43.4649 155.538C43.4649 155.538 46.5176 163.396 39.949 166.722Z" fill="black"/>
<path d="M42.407 154.685C42.5859 158.017 42.5543 163.201 43.1596 166.386L43.0017 165.996C42.8964 165.843 42.9596 165.996 43.0701 166.08C43.2125 166.221 43.3637 166.353 43.5228 166.475C45.6281 168.054 48.1545 169.27 50.5283 170.528L53.5232 172.07C53.7828 172.2 53.9855 172.421 54.0928 172.691C54.2001 172.961 54.2044 173.261 54.105 173.534C54.0056 173.807 53.8093 174.034 53.5536 174.171C53.2979 174.309 53.0004 174.348 52.7179 174.281C51.5757 174.007 50.481 173.681 49.3704 173.344C46.2124 172.291 42.9701 171.28 40.2542 169.223C39.7238 168.811 39.3116 168.266 39.0594 167.644C37.8436 163.328 37.7489 159.159 37.6594 154.759C37.7699 151.69 42.2122 151.632 42.3964 154.701L42.407 154.685Z" fill="#E9B376"/>
<path d="M57.7234 171.88L56.776 171.191C56.6004 171.064 56.3969 170.981 56.1826 170.949C55.9683 170.917 55.7494 170.937 55.5443 171.007L53.5969 171.659C53.213 171.789 52.8657 172.009 52.5837 172.3C52.3018 172.591 52.0934 172.945 51.9758 173.333L51.8284 173.823C53.3232 175.065 55.8549 175.312 55.8549 175.312L56.5654 175.46C56.711 175.495 56.862 175.501 57.0098 175.477C57.1577 175.453 57.2993 175.4 57.4266 175.322C57.5539 175.243 57.6643 175.14 57.7513 175.018C57.8384 174.896 57.9005 174.758 57.9339 174.612L58.2497 173.202C58.3004 172.954 58.2777 172.697 58.1841 172.462C58.0906 172.228 57.9304 172.025 57.7234 171.88Z" fill="#EBB376"/>
<path d="M40.9858 147.848C37.9436 148.937 37.0699 151.59 37.0067 157.122C38.5857 158.559 43.3807 158.638 43.3807 158.638C43.3807 158.638 44.2123 150.248 40.9858 147.848Z" fill="#4CAF4F"/>
<path d="M77.8399 174.928V176.181C77.8399 176.502 77.461 176.633 77.1399 176.633H52.1073C51.781 176.633 51.3968 176.502 51.3968 176.181V174.928H77.8399Z" fill="#263238"/>
<path opacity="0.4" d="M77.8399 174.928V176.181C77.8399 176.502 77.461 176.633 77.1399 176.633H52.1073C51.781 176.633 51.3968 176.502 51.3968 176.181V174.928H77.8399Z" fill="white"/>
<path opacity="0.2" d="M77.8399 174.928V176.181C77.8399 176.502 77.461 176.633 77.1399 176.633H60.6129C60.2919 176.633 59.9076 176.502 59.9076 176.181V174.928H77.8399Z" fill="black"/>
<path d="M82.0349 161.906L79.0505 175.439C78.9953 175.655 78.8707 175.847 78.6958 175.986C78.5209 176.125 78.3053 176.202 78.0821 176.207H61.7656C61.6641 176.204 61.5645 176.178 61.4748 176.13C61.3851 176.083 61.3077 176.015 61.2485 175.932C61.1894 175.85 61.1502 175.755 61.134 175.654C61.1177 175.554 61.125 175.451 61.1551 175.354L64.1341 161.927C64.195 161.723 64.3245 161.545 64.5008 161.424C64.6771 161.303 64.8896 161.247 65.1026 161.264H81.419C81.8559 161.264 82.1085 161.464 82.0349 161.906Z" fill="#263238"/>
<path opacity="0.4" d="M82.0349 161.906L79.0505 175.439C78.9953 175.655 78.8707 175.847 78.6958 175.986C78.5209 176.125 78.3053 176.202 78.0821 176.207H62.3341C62.2325 176.204 62.1329 176.178 62.0431 176.13C61.9533 176.082 61.8756 176.015 61.8161 175.932C61.7566 175.85 61.7168 175.755 61.6998 175.655C61.6829 175.555 61.6892 175.452 61.7183 175.354L64.7026 161.927C64.7635 161.723 64.8929 161.545 65.0692 161.424C65.2456 161.303 65.458 161.247 65.671 161.264H81.419C81.8559 161.264 82.1085 161.464 82.0349 161.906Z" fill="white"/>
<path opacity="0.2" d="M73.9977 168.78C73.9456 169.329 73.7008 169.841 73.3067 170.227C72.9127 170.612 72.3948 170.846 71.845 170.885C70.9344 170.885 70.3923 169.943 70.6555 168.78C70.9186 167.617 71.8187 166.717 72.7082 166.675C72.4503 167.833 73.0082 168.78 73.9135 168.78H73.9977Z" fill="black"/>
<path d="M76.582 154.364L80.0874 154.453L78.5084 150.906C78.5084 150.906 75.3819 151.016 75.503 152.627L76.582 154.364Z" fill="#EBB376"/>
<path d="M83.0928 152.727L80.6927 150.137L78.4979 150.906L80.0874 154.453L83.0928 152.727Z" fill="#EBB376"/>
<path d="M43.4491 147.669C43.0912 147.643 44.186 152.038 49.502 153.122C54.818 154.206 54.4074 149.316 53.9916 148.09C53.9916 148.09 47.0019 147.901 43.4491 147.669Z" fill="#EBB376"/>
<path d="M44.907 130.484C44.907 130.484 47.9545 127.105 53.5284 128.847C59.1023 130.589 58.8655 140.537 56.0338 144.148C51.5991 143.992 47.1627 144.406 42.8333 145.379C42.8333 145.379 40.149 138.163 41.4806 133.921C42.8122 129.679 44.907 130.484 44.907 130.484Z" fill="#263238"/>
<path d="M46.0281 140.406C46.3808 142.753 46.6545 147.006 44.9755 148.353C44.9755 148.353 47.165 148.28 51.4126 151.638C52.9547 149.89 52.0442 149.169 52.0442 149.169C49.5335 148.269 49.6757 146.374 50.1862 144.643L46.0281 140.406Z" fill="#EBB376"/>
<path opacity="0.2" d="M47.7335 142.137L50.2125 144.643C50.0874 145.048 49.9976 145.464 49.9441 145.885C48.9809 145.632 47.6914 144.406 47.6335 143.369C47.5926 142.956 47.6265 142.538 47.7335 142.137Z" fill="black"/>
<path d="M44.6123 135.616C44.8755 139.369 44.9123 140.958 46.8019 142.985C49.6493 145.995 54.1706 145.09 54.9864 141.406C55.7496 138.079 55.1864 132.5 51.5442 130.852C50.7759 130.472 49.92 130.304 49.0649 130.365C48.2098 130.426 47.3865 130.714 46.68 131.199C45.9734 131.685 45.4093 132.35 45.0458 133.127C44.6823 133.903 44.5327 134.762 44.6123 135.616Z" fill="#EBB376"/>
<path d="M49.2336 136.769C49.2336 137.09 49.4072 137.348 49.6125 137.358C49.8178 137.369 49.9652 137.116 49.9599 136.8C49.9546 136.484 49.7809 136.221 49.5809 136.216C49.3809 136.211 49.223 136.453 49.2336 136.769Z" fill="#263238"/>
<path d="M53.16 136.811C53.16 137.126 53.339 137.39 53.539 137.4C53.739 137.411 53.8916 137.158 53.8864 136.842C53.8811 136.526 53.7074 136.263 53.5074 136.258C53.3074 136.253 53.16 136.495 53.16 136.811Z" fill="#263238"/>
<path d="M53.4021 136.269L54.1337 136.079C54.1337 136.079 53.7706 136.658 53.4021 136.269Z" fill="#263238"/>
<path d="M51.9705 137.458C52.2648 138.191 52.6503 138.884 53.1179 139.521C52.9603 139.629 52.7804 139.699 52.5918 139.727C52.4032 139.756 52.2106 139.741 52.0284 139.684L51.9705 137.458Z" fill="#D58745"/>
<path d="M48.6019 134.768C48.6256 134.772 48.6499 134.77 48.6728 134.763C48.6956 134.756 48.7164 134.743 48.7335 134.726C48.8978 134.574 49.0975 134.466 49.3145 134.411C49.5314 134.355 49.7587 134.355 49.9757 134.411C49.9978 134.418 50.0211 134.42 50.0443 134.418C50.0674 134.416 50.0898 134.409 50.1101 134.397C50.1303 134.386 50.148 134.37 50.162 134.352C50.1761 134.333 50.1861 134.312 50.1915 134.289C50.2046 134.241 50.1982 134.189 50.1736 134.144C50.1491 134.1 50.1083 134.067 50.0599 134.053C49.7852 133.979 49.4964 133.976 49.2203 134.044C48.9442 134.112 48.6898 134.249 48.4809 134.442C48.4471 134.477 48.4282 134.523 48.4282 134.571C48.4282 134.619 48.4471 134.666 48.4809 134.7C48.5111 134.737 48.5544 134.762 48.6019 134.768Z" fill="#263238"/>
<path d="M54.6864 134.8C54.7288 134.816 54.7756 134.816 54.818 134.8C54.8384 134.787 54.856 134.77 54.8698 134.751C54.8835 134.731 54.8932 134.708 54.8981 134.685C54.903 134.661 54.9031 134.637 54.8984 134.613C54.8937 134.59 54.8842 134.567 54.8706 134.547C54.726 134.288 54.5235 134.065 54.2789 133.896C54.0343 133.727 53.7541 133.617 53.46 133.574C53.4366 133.572 53.4131 133.576 53.3911 133.584C53.369 133.592 53.349 133.604 53.3321 133.621C53.3152 133.637 53.302 133.657 53.2932 133.679C53.2844 133.7 53.2803 133.724 53.2811 133.747C53.2819 133.797 53.3005 133.844 53.3333 133.881C53.3662 133.917 53.4112 133.941 53.46 133.947C53.6927 133.983 53.9139 134.071 54.1066 134.207C54.2993 134.342 54.4581 134.52 54.5706 134.726C54.5841 134.746 54.6013 134.762 54.6211 134.775C54.641 134.787 54.6632 134.796 54.6864 134.8Z" fill="#263238"/>
<path d="M49.4757 136.226L50.2073 136.042C50.2073 136.042 49.8599 136.616 49.4757 136.226Z" fill="#263238"/>
<path d="M45.3913 137.869C45.3913 137.869 48.2861 135.595 47.6282 132.037C47.6282 132.037 52.8074 129.989 54.8496 135.195C54.8496 135.195 55.2812 130.732 50.4125 129.858C45.5439 128.984 39.7805 135.584 45.2966 140.59L45.3913 137.869Z" fill="#263238"/>
<path d="M43.4175 138.648C43.6053 138.996 43.8601 139.303 44.1672 139.553C44.4743 139.802 44.8277 139.988 45.2071 140.1C46.1913 140.369 46.6334 139.4 46.3176 138.4C46.0281 137.5 45.1702 136.295 44.2123 136.448C43.2544 136.6 42.928 137.758 43.4175 138.648Z" fill="#EBB376"/>
<path d="M55.418 137.405C55.3943 137.405 55.3713 137.397 55.3523 137.383C55.3334 137.369 55.3195 137.349 55.3127 137.326C53.4548 130.784 47.3229 132.131 47.2598 132.142C47.2463 132.145 47.2323 132.146 47.2187 132.143C47.2051 132.141 47.192 132.136 47.1803 132.129C47.1685 132.121 47.1584 132.112 47.1503 132.101C47.1423 132.089 47.1366 132.077 47.1335 132.063C47.1303 132.05 47.1299 132.036 47.1322 132.022C47.1345 132.008 47.1394 131.995 47.1468 131.984C47.1541 131.972 47.1637 131.962 47.1749 131.954C47.1862 131.946 47.1989 131.94 47.2124 131.937C47.2756 131.937 53.6074 130.531 55.518 137.269C55.522 137.282 55.5233 137.296 55.5217 137.31C55.5201 137.324 55.5158 137.338 55.5089 137.35C55.502 137.362 55.4928 137.373 55.4817 137.382C55.4706 137.39 55.4579 137.396 55.4443 137.4L55.418 137.405Z" fill="#263238"/>
<path d="M52.2126 140.774C52.0289 141.204 51.8776 141.647 51.76 142.1H51.5126C50.402 141.979 49.9336 141.574 49.7336 141.127C49.6439 140.914 49.606 140.683 49.623 140.453C49.6311 140.322 49.6559 140.193 49.6967 140.069C50.3516 140.448 51.0804 140.681 51.8337 140.753C52.0652 140.763 52.2126 140.774 52.2126 140.774Z" fill="#263238"/>
<path d="M51.8336 140.732L51.6915 141.116C50.6389 141.006 49.9178 140.784 49.623 140.432C49.6311 140.301 49.6559 140.172 49.6967 140.048C50.3516 140.427 51.0804 140.66 51.8336 140.732Z" fill="white"/>
<path d="M51.5126 142.079C50.402 141.958 49.9336 141.553 49.7336 141.105C50.1554 141.16 50.5649 141.287 50.9441 141.479C51.1911 141.616 51.3898 141.825 51.5126 142.079Z" fill="#DE5753"/>
<path d="M51.3336 158.311C51.3169 158.312 51.3001 158.31 51.2846 158.303C51.2691 158.297 51.2553 158.287 51.2441 158.275C48.4474 155.276 46.3387 151.703 45.0649 147.806C45.0569 147.774 45.0618 147.74 45.0785 147.711C45.0952 147.683 45.1225 147.662 45.1544 147.653C45.17 147.649 45.1862 147.648 45.202 147.651C45.2179 147.653 45.2331 147.659 45.2468 147.667C45.2605 147.675 45.2725 147.686 45.2819 147.699C45.2913 147.712 45.2981 147.727 45.3018 147.743C46.5415 151.533 48.5805 155.013 51.281 157.948C51.5968 156.896 52.9074 151.895 50.9336 148.064C50.924 148.035 50.9248 148.004 50.936 147.976C50.9472 147.948 50.968 147.925 50.9947 147.911C51.0213 147.897 51.0521 147.893 51.0814 147.9C51.1107 147.907 51.1367 147.924 51.1547 147.948C53.4127 152.332 51.4705 158.169 51.4494 158.227C51.4425 158.247 51.4307 158.266 51.4151 158.28C51.3995 158.295 51.3806 158.306 51.3599 158.311H51.3336Z" fill="#263238"/>
<path d="M51.4968 158.09L51.8968 158.617C51.9327 158.662 51.9522 158.717 51.9522 158.775C51.9522 158.832 51.9327 158.888 51.8968 158.933L51.4915 159.459C51.4673 159.488 51.4371 159.511 51.403 159.527C51.3689 159.543 51.3318 159.551 51.2942 159.551C51.2565 159.551 51.2194 159.543 51.1853 159.527C51.1512 159.511 51.121 159.488 51.0968 159.459L50.7178 159.027C50.6845 158.983 50.6665 158.93 50.6665 158.875C50.6665 158.82 50.6845 158.766 50.7178 158.722L51.0547 158.111C51.0767 158.073 51.108 158.041 51.1456 158.018C51.1832 157.995 51.226 157.982 51.27 157.98C51.314 157.978 51.3578 157.987 51.3974 158.006C51.4371 158.026 51.4712 158.055 51.4968 158.09Z" fill="white"/>
<path opacity="0.7" d="M40.9858 147.848C37.9436 148.937 37.0699 151.59 37.0067 157.122C38.5857 158.559 43.3807 158.638 43.3807 158.638C43.3807 158.638 44.2123 150.248 40.9858 147.848Z" fill="white"/>
<path d="M72.8134 190.065L78.1505 190.944L80.7138 191.365L81.4611 188.718L79.1453 188.013L73.4819 186.292L72.8134 190.065Z" fill="#EBB376"/>
<path d="M80.9401 188.286L79.7874 191.255C79.7723 191.295 79.7652 191.337 79.7665 191.379C79.7679 191.422 79.7776 191.464 79.7952 191.502C79.8129 191.541 79.838 191.576 79.8692 191.605C79.9004 191.634 79.937 191.656 79.9769 191.671L81.4664 192.197C81.4664 192.197 83.4191 193.05 84.0507 192.776C85.8982 191.981 88.6193 185.47 88.0193 184.881C87.7982 184.655 87.3245 184.881 87.0719 185.049C86.2719 185.639 84.4876 187.349 83.8139 187.834C83.0244 188.402 81.8191 188.223 81.298 188.113C81.2274 188.094 81.1525 188.101 81.0869 188.133C81.0212 188.165 80.9691 188.219 80.9401 188.286Z" fill="#4CAF4F"/>
<path opacity="0.2" d="M72.8134 190.065L78.1505 190.944L79.1453 188.013L73.4819 186.292L72.8134 190.065Z" fill="black"/>
<path d="M78.2242 187.46C78.2242 187.46 56.4654 175.228 48.9493 175.575C41.4332 175.923 40.3595 182.544 43.4544 186.686C46.5492 190.828 52.2758 191.839 52.2758 191.839C52.2758 191.839 48.3861 186.323 48.9493 184.786C49.5125 183.249 51.7126 185.397 51.7126 185.397C51.7126 185.397 65.3974 189.818 77.382 190.834L78.2242 187.46Z" fill="#263238"/>
<path d="M78.5768 187.123L77.3452 186.297L75.7609 191.155H77.661L78.5768 187.123Z" fill="#4CAF4F"/>
<path opacity="0.6" d="M78.5768 187.123L77.3452 186.297L75.7609 191.155H77.661L78.5768 187.123Z" fill="white"/>
</svg>
