<svg width="209" height="193" viewBox="0 0 209 193" fill="none" xmlns="http://www.w3.org/2000/svg">
<path d="M68.4294 181.753C92.5116 181.753 112.034 176.244 112.034 169.449C112.034 162.654 92.5116 157.145 68.4294 157.145C44.3471 157.145 24.8246 162.654 24.8246 169.449C24.8246 176.244 44.3471 181.753 68.4294 181.753Z" fill="#4CAF4F"/>
<path opacity="0.53" d="M68.4294 181.753C92.5116 181.753 112.034 176.244 112.034 169.449C112.034 162.654 92.5116 157.145 68.4294 157.145C44.3471 157.145 24.8246 162.654 24.8246 169.449C24.8246 176.244 44.3471 181.753 68.4294 181.753Z" fill="white"/>
<path d="M190.984 168.917C190.984 170.983 172.181 172.662 148.986 172.662C125.79 172.662 106.987 171 106.987 168.917C106.987 166.834 125.79 165.172 148.986 165.172C172.181 165.172 190.984 166.845 190.984 168.917Z" fill="#4CAF4F"/>
<path opacity="0.53" d="M190.984 168.917C190.984 170.983 172.181 172.662 148.986 172.662C125.79 172.662 106.987 171 106.987 168.917C106.987 166.834 125.79 165.172 148.986 165.172C172.181 165.172 190.984 166.845 190.984 168.917Z" fill="white"/>
<path d="M109.912 142.603H186.098C189.518 142.603 192.291 139.83 192.291 136.409L192.291 7.52786C192.291 4.10721 189.518 1.33423 186.098 1.33423H109.912C106.492 1.33423 103.719 4.10721 103.719 7.52786L103.719 136.409C103.719 139.83 106.492 142.603 109.912 142.603Z" fill="#263238" stroke="#263238" stroke-linecap="round" stroke-linejoin="round"/>
<path d="M183.112 6.15405H112.893C110.632 6.15405 108.799 7.987 108.799 10.2481V133.689C108.799 135.95 110.632 137.783 112.893 137.783H183.112C185.373 137.783 187.206 135.95 187.206 133.689V10.2481C187.206 7.987 185.373 6.15405 183.112 6.15405Z" fill="white"/>
<mask id="mask0_129_12483" style="mask-type:luminance" maskUnits="userSpaceOnUse" x="108" y="6" width="80" height="132">
<path d="M183.112 6.15405H112.893C110.632 6.15405 108.799 7.987 108.799 10.2481V133.689C108.799 135.95 110.632 137.783 112.893 137.783H183.112C185.373 137.783 187.206 135.95 187.206 133.689V10.2481C187.206 7.987 185.373 6.15405 183.112 6.15405Z" fill="white"/>
</mask>
<g mask="url(#mask0_129_12483)">
<path d="M108.799 89.9954V133.689C108.799 134.775 109.23 135.816 109.998 136.584C110.766 137.352 111.807 137.783 112.893 137.783H183.112C184.197 137.783 185.239 137.352 186.006 136.584C186.774 135.816 187.206 134.775 187.206 133.689V89.9954H108.799Z" fill="#4CAF4F"/>
<path opacity="0.53" d="M108.799 89.9954V133.689C108.799 134.775 109.23 135.816 109.998 136.584C110.766 137.352 111.807 137.783 112.893 137.783H183.112C184.197 137.783 185.239 137.352 186.006 136.584C186.774 135.816 187.206 134.775 187.206 133.689V89.9954H108.799Z" fill="white"/>
<path d="M147.728 59.7807C158.284 59.7807 166.841 51.2236 166.841 40.6679C166.841 30.1123 158.284 21.5552 147.728 21.5552C137.172 21.5552 128.615 30.1123 128.615 40.6679C128.615 51.2236 137.172 59.7807 147.728 59.7807Z" fill="#4CAF4F"/>
<path opacity="0.53" d="M147.728 59.7807C158.284 59.7807 166.841 51.2236 166.841 40.6679C166.841 30.1123 158.284 21.5552 147.728 21.5552C137.172 21.5552 128.615 30.1123 128.615 40.6679C128.615 51.2236 137.172 59.7807 147.728 59.7807Z" fill="white"/>
<path d="M153.722 46.1082C153.092 46.112 152.481 46.3213 151.981 46.7042C151.481 47.0872 151.12 47.6229 150.952 48.23H143.379C143.243 47.739 142.979 47.2927 142.616 46.9358C142.252 46.5789 141.801 46.324 141.307 46.1968V45.3326H154.293C154.473 45.3342 154.647 45.2724 154.786 45.1579C154.925 45.0434 155.019 44.8835 155.052 44.7066L156.581 36.6626C156.602 36.551 156.598 36.4362 156.57 36.3262C156.542 36.2163 156.489 36.114 156.417 36.0266C156.344 35.9393 156.253 35.869 156.15 35.8209C156.048 35.7729 155.935 35.7481 155.822 35.7485H141.335V32.1309C141.334 31.9655 141.28 31.8048 141.18 31.6729C141.08 31.5411 140.94 31.4452 140.781 31.3996L136.582 30.059C136.483 30.0192 136.377 30.0002 136.27 30.0032C136.163 30.0063 136.059 30.0313 135.962 30.0766C135.866 30.122 135.78 30.1868 135.709 30.2669C135.639 30.3471 135.586 30.4409 135.553 30.5424C135.521 30.644 135.51 30.7512 135.521 30.8573C135.531 30.9633 135.564 31.066 135.616 31.159C135.669 31.2519 135.739 31.333 135.825 31.3973C135.91 31.4616 136.007 31.5076 136.111 31.5326L139.778 32.696V46.23C139.296 46.3737 138.86 46.6406 138.512 47.0045C138.165 47.3684 137.918 47.8166 137.797 48.3049C137.676 48.7932 137.684 49.3046 137.821 49.7887C137.958 50.2728 138.219 50.7128 138.578 51.0652C138.937 51.4177 139.382 51.6703 139.868 51.7983C140.355 51.9262 140.867 51.925 141.352 51.7948C141.838 51.6645 142.282 51.4098 142.639 51.0557C142.997 50.7016 143.255 50.2603 143.39 49.7756H150.947C151.091 50.2951 151.378 50.7638 151.775 51.1287C152.172 51.4937 152.663 51.7404 153.193 51.841C153.723 51.9416 154.27 51.8921 154.773 51.6981C155.276 51.504 155.715 51.1732 156.04 50.7429C156.365 50.3126 156.563 49.8 156.612 49.263C156.661 48.726 156.559 48.186 156.318 47.7039C156.076 47.2219 155.704 46.817 155.245 46.535C154.785 46.2531 154.256 46.1052 153.717 46.1082H153.722ZM144.858 37.2941H147.074V43.7869H144.858V37.2941ZM148.625 37.2941H150.841V43.7869H148.625V37.2941ZM153.672 43.7925H152.387V37.2941H154.908L153.672 43.7925ZM143.313 37.2941V43.7869H141.335V37.2941H143.313ZM140.609 50.3518C140.342 50.3518 140.08 50.2725 139.858 50.1239C139.636 49.9754 139.463 49.7643 139.36 49.5173C139.258 49.2703 139.231 48.9985 139.283 48.7363C139.336 48.4741 139.464 48.2332 139.653 48.0442C139.842 47.8551 140.083 47.7264 140.345 47.6742C140.608 47.6221 140.879 47.6488 141.126 47.7512C141.373 47.8535 141.585 48.0267 141.733 48.249C141.882 48.4713 141.961 48.7327 141.961 49C141.961 49.1789 141.925 49.3561 141.856 49.5212C141.787 49.6863 141.686 49.836 141.559 49.9618C141.432 50.0875 141.281 50.1867 141.115 50.2537C140.949 50.3206 140.771 50.354 140.593 50.3518H140.609ZM153.739 50.3518C153.471 50.3518 153.21 50.2725 152.988 50.1239C152.765 49.9754 152.592 49.7643 152.49 49.5173C152.388 49.2703 152.361 48.9985 152.413 48.7363C152.465 48.4741 152.594 48.2332 152.783 48.0442C152.972 47.8551 153.213 47.7264 153.475 47.6742C153.737 47.6221 154.009 47.6488 154.256 47.7512C154.503 47.8535 154.714 48.0267 154.863 48.249C155.011 48.4713 155.091 48.7327 155.091 49C155.091 49.1789 155.055 49.3561 154.986 49.5212C154.917 49.6863 154.816 49.836 154.689 49.9618C154.561 50.0875 154.41 50.1867 154.245 50.2537C154.079 50.3206 153.901 50.354 153.722 50.3518H153.739Z" fill="#263238"/>
<path d="M157.284 40.6625C160.402 40.6625 162.93 38.135 162.93 35.0173C162.93 31.8995 160.402 29.3721 157.284 29.3721C154.167 29.3721 151.639 31.8995 151.639 35.0173C151.639 38.135 154.167 40.6625 157.284 40.6625Z" fill="white" stroke="#263238" stroke-width="2" stroke-miterlimit="10"/>
<path d="M154.675 34.3689L156.847 37.4104L160.758 32.4133" stroke="#263238" stroke-width="3" stroke-linecap="round" stroke-linejoin="round"/>
<path d="M167.118 70.0295H128.061C127.143 70.0295 126.399 70.7736 126.399 71.6915V81.6634C126.399 82.5813 127.143 83.3254 128.061 83.3254H167.118C168.036 83.3254 168.78 82.5813 168.78 81.6634V71.6915C168.78 70.7736 168.036 70.0295 167.118 70.0295Z" fill="#4CAF4F"/>
<path d="M137.152 75.708C137.065 75.6107 137.018 75.4841 137.019 75.3534V73.0488C137.019 72.9602 137.019 72.8771 137.019 72.8162C137.029 72.7486 137.044 72.6819 137.064 72.6167C137.083 72.5542 137.117 72.4973 137.163 72.4505C137.211 72.4061 137.268 72.3722 137.33 72.3508C137.413 72.3223 137.501 72.3092 137.59 72.312H138.565C138.707 72.3029 138.849 72.3029 138.991 72.312C139.121 72.3327 139.247 72.368 139.368 72.4173C139.478 72.464 139.58 72.5297 139.667 72.6112C139.753 72.7033 139.817 72.813 139.856 72.9325C139.908 73.0781 139.932 73.2322 139.928 73.3868C139.939 73.5427 139.912 73.6989 139.851 73.8425C139.789 73.9861 139.694 74.1128 139.573 74.2122C139.278 74.4171 138.923 74.5167 138.565 74.4948H137.933V75.3258C137.935 75.4564 137.888 75.583 137.8 75.6803C137.761 75.7271 137.712 75.7647 137.656 75.7906C137.601 75.8164 137.54 75.8298 137.479 75.8299C137.419 75.8349 137.359 75.8265 137.302 75.8054C137.246 75.7844 137.194 75.7511 137.152 75.708ZM138.404 73.9685C138.496 73.9759 138.589 73.9759 138.681 73.9685C138.752 73.9539 138.818 73.9236 138.875 73.8798C138.932 73.8382 138.974 73.7802 138.997 73.7136C139.026 73.6262 139.039 73.5343 139.036 73.4422C139.046 73.3678 139.039 73.2921 139.015 73.221C138.991 73.1499 138.95 73.0853 138.897 73.0322C138.762 72.9531 138.605 72.9165 138.449 72.927H137.895V73.9962L138.404 73.9685Z" fill="black"/>
<path d="M140.532 75.636C140.446 75.543 140.38 75.4338 140.337 75.3149C140.294 75.196 140.276 75.0697 140.282 74.9435V73.9241C140.273 73.7875 140.308 73.6515 140.382 73.5363C140.417 73.4902 140.464 73.4538 140.517 73.4305C140.57 73.4073 140.629 73.3979 140.687 73.4034C140.741 73.3986 140.796 73.4083 140.846 73.4317C140.896 73.4551 140.938 73.4912 140.969 73.5363C141.037 73.6539 141.068 73.7889 141.058 73.9241V74.9324C141.051 75.0533 141.09 75.1724 141.169 75.2648C141.205 75.3034 141.248 75.3338 141.297 75.3539C141.346 75.374 141.399 75.3832 141.451 75.3811C141.518 75.3815 141.584 75.3679 141.645 75.3412C141.706 75.3145 141.761 75.2752 141.806 75.226C141.903 75.1188 141.955 74.9776 141.95 74.8327V73.9241C141.941 73.7875 141.975 73.6515 142.05 73.5363C142.085 73.4902 142.131 73.4538 142.185 73.4305C142.238 73.4073 142.296 73.3979 142.354 73.4034C142.409 73.3986 142.464 73.4083 142.513 73.4317C142.563 73.4551 142.606 73.4912 142.637 73.5363C142.704 73.6539 142.735 73.7889 142.725 73.9241V75.431C142.735 75.5461 142.701 75.6606 142.631 75.7523C142.592 75.7899 142.544 75.8188 142.493 75.8369C142.441 75.855 142.387 75.8621 142.332 75.8575C142.077 75.8575 141.955 75.7135 141.955 75.431V75.3977C141.895 75.5487 141.791 75.678 141.656 75.7689C141.501 75.8519 141.327 75.892 141.152 75.8853C141.037 75.8883 140.923 75.8677 140.816 75.8248C140.709 75.782 140.612 75.7177 140.532 75.636Z" fill="black"/>
<path d="M143.296 75.3367V73.7856C143.294 73.697 143.323 73.6105 143.379 73.5418C143.426 73.4783 143.495 73.4349 143.573 73.4199C143.648 73.4062 143.725 73.4062 143.8 73.4199C143.876 73.4389 143.943 73.484 143.989 73.5473C144.044 73.6139 144.074 73.6987 144.072 73.7856V73.8742C144.094 73.8126 144.121 73.7533 144.155 73.6969C144.194 73.6389 144.236 73.5834 144.282 73.5307C144.333 73.4743 144.396 73.429 144.465 73.3978C144.534 73.3643 144.61 73.3473 144.687 73.3479C144.741 73.3456 144.795 73.3591 144.842 73.3867C144.886 73.4036 144.923 73.4348 144.947 73.4753C144.97 73.5125 144.985 73.554 144.991 73.5972C145.005 73.6423 145.005 73.6906 144.991 73.7357C144.981 73.7788 144.965 73.8199 144.941 73.8576C144.918 73.8983 144.884 73.9311 144.842 73.9518C144.797 73.9739 144.748 73.9853 144.698 73.985C144.541 73.9841 144.388 74.0326 144.26 74.1235C144.201 74.1679 144.154 74.2258 144.122 74.2923C144.09 74.3588 144.075 74.432 144.077 74.5057V75.3478C144.088 75.4813 144.057 75.6149 143.989 75.7301C143.952 75.7734 143.906 75.8071 143.854 75.8284C143.802 75.8496 143.745 75.8577 143.689 75.852C143.429 75.8575 143.296 75.6858 143.296 75.3367Z" fill="black"/>
<path d="M146.011 75.8077C145.863 75.7595 145.726 75.6844 145.606 75.5861C145.481 75.4772 145.382 75.3407 145.318 75.1872C145.246 75.0116 145.21 74.8231 145.213 74.6333C145.209 74.4027 145.266 74.1752 145.379 73.974C145.494 73.7859 145.656 73.6312 145.85 73.5253C146.053 73.4189 146.28 73.3656 146.509 73.3701C146.659 73.3698 146.808 73.3903 146.952 73.4311C147.071 73.4647 147.182 73.5211 147.279 73.5973C147.327 73.6379 147.362 73.6919 147.379 73.7524C147.395 73.8066 147.395 73.8644 147.379 73.9186C147.365 73.9682 147.342 74.015 147.312 74.0571C147.281 74.0964 147.235 74.1221 147.185 74.1291C147.126 74.1338 147.066 74.1224 147.013 74.0959C146.879 74.0183 146.725 73.9799 146.57 73.9851C146.413 73.9859 146.262 74.0474 146.149 74.1568C146.037 74.287 145.981 74.4564 145.994 74.6277C145.994 74.7354 146.013 74.8422 146.049 74.9435C146.093 75.0443 146.166 75.1298 146.259 75.189C146.352 75.2482 146.46 75.2784 146.57 75.2759C146.731 75.2749 146.888 75.2349 147.03 75.1595C147.084 75.1418 147.142 75.1418 147.196 75.1595C147.222 75.1621 147.247 75.1703 147.269 75.1838C147.291 75.1972 147.309 75.2154 147.324 75.2371C147.356 75.2822 147.381 75.3329 147.396 75.3867C147.412 75.4428 147.412 75.5023 147.396 75.5584C147.376 75.6193 147.34 75.6732 147.29 75.7135C147.187 75.7877 147.071 75.8405 146.947 75.8687C146.795 75.9068 146.638 75.9254 146.481 75.9241C146.319 75.9144 146.159 75.8749 146.011 75.8077Z" fill="black"/>
<path d="M147.844 75.3369V72.8384C147.835 72.7014 147.866 72.5647 147.933 72.4451C147.966 72.4009 148.01 72.3659 148.06 72.3436C148.111 72.3213 148.166 72.3124 148.221 72.3176C148.487 72.3176 148.62 72.4894 148.62 72.8384V73.7691C148.708 73.6208 148.839 73.5019 148.994 73.427C149.15 73.3522 149.324 73.3247 149.495 73.3481C149.598 73.3549 149.699 73.3792 149.794 73.4201C149.889 73.4615 149.975 73.5197 150.049 73.5918C150.126 73.6733 150.187 73.7694 150.226 73.8744C150.272 74.0004 150.295 74.1336 150.293 74.2677V75.3369C150.303 75.4722 150.272 75.6074 150.204 75.7247C150.17 75.7704 150.124 75.8066 150.072 75.8298C150.02 75.8531 149.962 75.8627 149.905 75.8577C149.65 75.8577 149.523 75.6859 149.523 75.3369V74.312C149.529 74.1912 149.489 74.0726 149.412 73.9796C149.375 73.9406 149.331 73.9099 149.281 73.8899C149.231 73.8698 149.178 73.8607 149.124 73.8633C149.058 73.8623 148.993 73.8756 148.932 73.9024C148.872 73.9292 148.818 73.9688 148.775 74.0184C148.725 74.0717 148.686 74.1344 148.66 74.2029C148.635 74.2713 148.623 74.3442 148.625 74.4173V75.3369C148.636 75.4722 148.605 75.6074 148.537 75.7247C148.502 75.7704 148.457 75.8066 148.404 75.8298C148.352 75.8531 148.295 75.8627 148.238 75.8577C147.983 75.8577 147.844 75.6859 147.844 75.3369Z" fill="black"/>
<path d="M150.958 75.6857C150.879 75.6116 150.819 75.5202 150.781 75.4188C150.744 75.3174 150.731 75.2088 150.743 75.1013C150.754 74.9939 150.791 74.8907 150.849 74.7999C150.908 74.709 150.987 74.633 151.08 74.5777C151.467 74.4417 151.878 74.3852 152.287 74.4115V74.2564C152.287 74.0071 152.154 73.8797 151.888 73.8797C151.646 73.8929 151.409 73.9531 151.19 74.057C151.152 74.0746 151.109 74.0798 151.067 74.0718C151.025 74.0639 150.987 74.0432 150.958 74.0126C150.925 73.9815 150.9 73.9433 150.885 73.9011C150.87 73.8588 150.864 73.8136 150.869 73.7689C150.87 73.7244 150.884 73.681 150.908 73.6438C150.933 73.6066 150.967 73.577 151.008 73.5584C151.146 73.4971 151.291 73.4525 151.44 73.4254C151.603 73.3885 151.771 73.3699 151.938 73.37C152.082 73.3681 152.225 73.3849 152.365 73.4199C152.486 73.4564 152.599 73.5166 152.697 73.5971C152.8 73.6848 152.878 73.7974 152.924 73.924C152.977 74.0868 153.001 74.2572 152.996 74.4281V75.4641C153 75.5555 152.977 75.6459 152.93 75.7245C152.891 75.7874 152.83 75.833 152.758 75.8519C152.691 75.8686 152.621 75.8686 152.553 75.8519C152.518 75.8418 152.485 75.8248 152.457 75.802C152.428 75.7792 152.405 75.751 152.387 75.7189C152.336 75.6419 152.311 75.5508 152.315 75.4586V75.4198C152.258 75.5768 152.149 75.7094 152.005 75.7952C151.862 75.881 151.694 75.9147 151.528 75.8907C151.319 75.8967 151.115 75.8235 150.958 75.6857ZM152.093 75.2924C152.157 75.238 152.208 75.1698 152.241 75.0931C152.275 75.0163 152.291 74.9329 152.287 74.8492V74.7495H152.049H151.85C151.792 74.7537 151.734 74.763 151.678 74.7772C151.634 74.7861 151.591 74.801 151.551 74.8215C151.512 74.8343 151.477 74.8573 151.451 74.888C151.428 74.9186 151.409 74.9521 151.395 74.9877C151.386 75.0315 151.386 75.0768 151.395 75.1206C151.395 75.1614 151.402 75.2019 151.417 75.2398C151.432 75.2777 151.454 75.3123 151.482 75.3416C151.511 75.371 151.544 75.3944 151.582 75.4107C151.619 75.4269 151.659 75.4357 151.7 75.4364C151.845 75.4417 151.986 75.39 152.093 75.2924Z" fill="black"/>
<path d="M153.589 75.5917C153.549 75.5605 153.518 75.5181 153.501 75.4698C153.484 75.4232 153.484 75.3724 153.501 75.3258C153.516 75.2822 153.54 75.2425 153.573 75.2094C153.606 75.1734 153.651 75.1515 153.7 75.1485C153.757 75.1445 153.815 75.156 153.866 75.1817L153.955 75.2316L154.088 75.2981C154.138 75.3196 154.19 75.3363 154.243 75.3479C154.312 75.3648 154.382 75.3759 154.453 75.3812H154.62L154.78 75.3535C154.829 75.3419 154.873 75.3169 154.908 75.2815C154.925 75.2639 154.938 75.2431 154.947 75.2202C154.955 75.1973 154.959 75.1729 154.958 75.1485C154.956 75.1239 154.949 75.1001 154.936 75.0789C154.924 75.0577 154.906 75.0398 154.886 75.0266C154.821 74.9801 154.747 74.948 154.67 74.9324L154.332 74.8438L154.027 74.7496C153.949 74.7203 153.873 74.6851 153.8 74.6444C153.731 74.6121 153.669 74.567 153.617 74.5114C153.574 74.4569 153.542 74.3949 153.523 74.3286C153.495 74.2466 153.482 74.1603 153.484 74.0738C153.479 73.9624 153.505 73.8518 153.559 73.7542C153.613 73.6565 153.692 73.5754 153.789 73.5198C154.037 73.3776 154.324 73.3193 154.609 73.3536C154.704 73.3576 154.798 73.3706 154.891 73.3923L155.096 73.4478L155.273 73.5253C155.326 73.5484 155.371 73.587 155.401 73.6361C155.431 73.6778 155.445 73.729 155.44 73.7801C155.433 73.8268 155.418 73.8719 155.395 73.9131C155.368 73.9529 155.326 73.9807 155.279 73.9907C155.222 74.0041 155.164 74.0041 155.107 73.9907C154.948 73.93 154.783 73.889 154.614 73.8688H154.426C154.364 73.8736 154.304 73.8905 154.248 73.9186C154.225 73.9275 154.204 73.9433 154.189 73.9641C154.174 73.9848 154.166 74.0095 154.165 74.035C154.164 74.0617 154.17 74.0883 154.182 74.1124C154.193 74.1365 154.21 74.1574 154.232 74.1735C154.299 74.2107 154.372 74.2369 154.448 74.251L154.78 74.3341C154.895 74.3644 155.008 74.4014 155.118 74.4449C155.207 74.4798 155.291 74.5264 155.368 74.5834C155.441 74.6383 155.5 74.7106 155.539 74.794C155.587 74.916 155.604 75.0479 155.59 75.1782C155.576 75.3084 155.53 75.4332 155.456 75.5418C155.359 75.6729 155.224 75.7698 155.068 75.8188C154.89 75.8786 154.702 75.9031 154.514 75.8909C154.184 75.8827 153.862 75.7787 153.589 75.5917Z" fill="black"/>
<path d="M156.548 75.7468C156.352 75.6559 156.19 75.5069 156.082 75.3202C155.962 75.1077 155.902 74.8662 155.91 74.6222C155.906 74.3982 155.959 74.1768 156.066 73.9796C156.174 73.7906 156.331 73.6338 156.52 73.5253C156.725 73.414 156.956 73.3586 157.19 73.3646C157.368 73.3591 157.546 73.3912 157.711 73.4588C157.851 73.5134 157.975 73.603 158.071 73.7192C158.158 73.8318 158.224 73.9595 158.265 74.0959C158.311 74.2429 158.333 74.3962 158.331 74.5502C158.331 74.6831 158.248 74.7496 158.088 74.7496H156.675C156.668 74.8331 156.68 74.917 156.711 74.9951C156.741 75.0733 156.788 75.1435 156.85 75.2005C156.911 75.2576 156.984 75.3 157.065 75.3246C157.145 75.3491 157.229 75.3552 157.312 75.3424C157.426 75.3428 157.539 75.3202 157.644 75.2759C157.746 75.2373 157.84 75.181 157.921 75.1097C157.953 75.0923 157.988 75.0831 158.024 75.0831C158.06 75.0831 158.095 75.0923 158.126 75.1097C158.162 75.1291 158.194 75.1559 158.219 75.1884C158.244 75.2209 158.261 75.2583 158.27 75.2981C158.286 75.3357 158.289 75.3771 158.28 75.4167C158.271 75.4563 158.25 75.4922 158.221 75.5197C158.17 75.5658 158.116 75.6084 158.06 75.6471L157.86 75.7634C157.771 75.808 157.676 75.8397 157.578 75.8576C157.461 75.8804 157.342 75.8915 157.223 75.8908C156.99 75.8948 156.759 75.8456 156.548 75.7468ZM157.683 74.3951C157.684 74.2425 157.641 74.0928 157.561 73.9629C157.518 73.909 157.462 73.8666 157.398 73.8396C157.334 73.8125 157.265 73.8016 157.196 73.8078C157.126 73.8048 157.057 73.8182 156.993 73.8471C156.929 73.876 156.874 73.9195 156.83 73.974C156.736 74.0948 156.684 74.2423 156.68 74.3951H157.683Z" fill="black"/>
<path d="M134.87 80.4834C134.722 80.4352 134.585 80.3601 134.465 80.2618C134.34 80.1529 134.241 80.0164 134.177 79.8629C134.103 79.6877 134.066 79.4992 134.066 79.309C134.064 79.0796 134.123 78.8538 134.238 78.6552C134.351 78.4658 134.511 78.3092 134.704 78.201C134.909 78.0953 135.137 78.042 135.368 78.0459C135.518 78.0461 135.667 78.0666 135.812 78.1068C135.93 78.1416 136.041 78.198 136.138 78.273C136.186 78.3136 136.221 78.3676 136.238 78.4281C136.254 78.4823 136.254 78.5401 136.238 78.5943C136.222 78.643 136.199 78.6895 136.172 78.7328C136.138 78.7733 136.091 78.7992 136.039 78.8048C135.981 78.8088 135.924 78.7973 135.872 78.7716C135.736 78.6932 135.581 78.6548 135.424 78.6608C135.268 78.663 135.12 78.7244 135.008 78.8325C134.952 78.8963 134.909 78.971 134.882 79.052C134.855 79.1329 134.846 79.2185 134.853 79.3034C134.853 79.4111 134.872 79.5179 134.909 79.6192C134.949 79.7153 135.017 79.7979 135.102 79.8574C135.199 79.9223 135.313 79.9553 135.429 79.9516C135.59 79.9499 135.747 79.91 135.889 79.8353C135.94 79.8079 135.998 79.7981 136.055 79.8076C136.081 79.8101 136.106 79.8183 136.128 79.8318C136.15 79.8452 136.169 79.8634 136.183 79.8851C136.216 79.9303 136.24 79.9809 136.255 80.0347C136.271 80.0908 136.271 80.1503 136.255 80.2064C136.236 80.2673 136.199 80.3212 136.149 80.3615C136.047 80.4357 135.93 80.4885 135.806 80.5167C135.654 80.5548 135.497 80.5735 135.341 80.5721C135.18 80.5712 135.02 80.5411 134.87 80.4834Z" fill="black"/>
<path d="M136.953 80.2174C136.835 80.0974 136.743 79.9542 136.683 79.7969C136.622 79.6396 136.596 79.4715 136.604 79.3033C136.602 79.1353 136.63 78.9684 136.687 78.8102C136.742 78.6612 136.824 78.524 136.931 78.4058C137.048 78.2844 137.192 78.1915 137.352 78.1344C137.542 78.0654 137.742 78.0316 137.944 78.0347C138.124 78.0223 138.305 78.0463 138.475 78.1053C138.646 78.1643 138.802 78.2571 138.936 78.3781C139.055 78.5003 139.147 78.6453 139.208 78.8043C139.269 78.9634 139.297 79.1331 139.291 79.3033C139.292 79.4712 139.264 79.6381 139.208 79.7964C139.152 79.9429 139.067 80.0767 138.958 80.1897C138.842 80.3124 138.697 80.4055 138.537 80.4611C138.347 80.5301 138.146 80.5639 137.944 80.5609C137.764 80.5742 137.584 80.5506 137.413 80.4916C137.243 80.4325 137.086 80.3392 136.953 80.2174ZM138.349 79.8573C138.453 79.692 138.504 79.4984 138.493 79.3033C138.502 79.1083 138.452 78.9153 138.349 78.7493C138.301 78.6873 138.24 78.637 138.17 78.6024C138.1 78.5678 138.023 78.5498 137.944 78.5498C137.866 78.5498 137.789 78.5678 137.719 78.6024C137.649 78.637 137.588 78.6873 137.54 78.7493C137.439 78.9159 137.391 79.1089 137.402 79.3033C137.389 79.4979 137.437 79.6916 137.54 79.8573C137.587 79.9203 137.648 79.9715 137.718 80.0068C137.788 80.0421 137.866 80.0604 137.944 80.0604C138.023 80.0604 138.101 80.0421 138.171 80.0068C138.241 79.9715 138.302 79.9203 138.349 79.8573Z" fill="black"/>
<path d="M139.867 80.4003C139.799 80.2827 139.768 80.1477 139.778 80.0125V78.5832C139.77 78.4499 139.801 78.3171 139.867 78.2009C139.903 78.1592 139.948 78.1264 139.999 78.1052C140.05 78.0841 140.105 78.0751 140.16 78.0791C140.214 78.0736 140.269 78.0804 140.32 78.099C140.371 78.1175 140.417 78.1474 140.455 78.1863C140.493 78.2252 140.521 78.2721 140.538 78.3235C140.555 78.375 140.561 78.4297 140.554 78.4835V78.5167C140.605 78.3591 140.714 78.2266 140.858 78.1455C141.016 78.06 141.194 78.0179 141.374 78.0237C141.455 78.0172 141.536 78.0172 141.617 78.0237C141.692 78.0402 141.764 78.0643 141.833 78.0957C141.904 78.1365 141.967 78.1911 142.016 78.2563C142.069 78.3409 142.11 78.4322 142.138 78.5278C142.185 78.4298 142.244 78.3384 142.315 78.2563C142.381 78.1895 142.458 78.1351 142.543 78.0957C142.621 78.0624 142.703 78.0382 142.786 78.0237C142.873 78.0176 142.96 78.0176 143.047 78.0237C143.155 78.0191 143.264 78.0374 143.365 78.0775C143.466 78.1176 143.558 78.1785 143.634 78.2563C143.795 78.4408 143.877 78.682 143.861 78.9267V79.9959C143.869 80.1309 143.838 80.2654 143.772 80.3837C143.738 80.4294 143.692 80.4655 143.64 80.4888C143.588 80.5121 143.53 80.5216 143.473 80.5166C143.213 80.5166 143.085 80.3449 143.085 79.9959V78.971C143.093 78.8527 143.055 78.736 142.98 78.6441C142.946 78.6043 142.904 78.5727 142.856 78.5516C142.808 78.5305 142.756 78.5205 142.703 78.5223C142.637 78.5208 142.572 78.5328 142.511 78.5576C142.45 78.5824 142.395 78.6194 142.349 78.6663C142.251 78.7735 142.199 78.9147 142.205 79.0596V79.9959C142.216 80.132 142.183 80.2681 142.11 80.3837C142.076 80.4294 142.03 80.4655 141.978 80.4888C141.926 80.5121 141.868 80.5216 141.811 80.5166C141.556 80.5166 141.429 80.3449 141.429 79.9959V79.0707C141.438 78.9393 141.403 78.8088 141.329 78.6995C141.297 78.6559 141.254 78.621 141.205 78.5978C141.155 78.5746 141.101 78.5639 141.047 78.5666C140.917 78.5616 140.789 78.6073 140.692 78.694C140.644 78.7391 140.607 78.7943 140.583 78.8557C140.559 78.917 140.549 78.9829 140.554 79.0486V80.0402C140.554 80.3892 140.421 80.561 140.149 80.561C140.092 80.5629 140.035 80.5489 139.985 80.5206C139.935 80.4922 139.894 80.4506 139.867 80.4003Z" fill="black"/>
<path d="M144.52 81.2867C144.457 81.1678 144.428 81.0334 144.437 80.8989V78.622C144.43 78.481 144.463 78.3409 144.531 78.2176C144.564 78.1688 144.609 78.1294 144.661 78.1032C144.714 78.077 144.772 78.0648 144.831 78.068C144.882 78.0652 144.933 78.0737 144.981 78.0928C145.029 78.112 145.072 78.1413 145.108 78.1788C145.175 78.2527 145.211 78.3502 145.207 78.4503V78.5167C145.273 78.3679 145.386 78.2451 145.529 78.1677C145.732 78.0673 145.963 78.0341 146.187 78.0729C146.411 78.1117 146.617 78.2206 146.775 78.3838C146.991 78.6526 147.098 78.9927 147.074 79.3366C147.076 79.525 147.046 79.7123 146.986 79.8906C146.938 80.0387 146.857 80.1735 146.747 80.284C146.65 80.3826 146.533 80.46 146.404 80.5111C146.27 80.5649 146.127 80.5913 145.983 80.5887C145.817 80.5941 145.653 80.5559 145.506 80.4779C145.376 80.412 145.271 80.3049 145.207 80.1732V80.9377C145.207 81.2867 145.074 81.4584 144.808 81.4584C144.749 81.4591 144.691 81.4434 144.64 81.4131C144.589 81.3828 144.548 81.3391 144.52 81.2867ZM146.182 79.8352C146.286 79.6696 146.336 79.4763 146.326 79.2812C146.335 79.1928 146.335 79.1037 146.326 79.0153C146.307 78.9325 146.277 78.8525 146.238 78.7771C146.198 78.7029 146.139 78.6415 146.066 78.5998C145.978 78.5403 145.873 78.5111 145.767 78.5167C145.379 78.5167 145.213 78.7716 145.213 79.2757C145.204 79.4707 145.254 79.6639 145.357 79.8297C145.407 79.8912 145.47 79.9403 145.542 79.973C145.614 80.0057 145.693 80.0211 145.772 80.0181C145.85 80.0263 145.929 80.015 146.002 79.985C146.074 79.955 146.138 79.9073 146.188 79.8463L146.182 79.8352Z" fill="black"/>
<path d="M147.689 80.4003C147.624 80.282 147.593 80.1475 147.601 80.0125V77.514C147.593 77.3789 147.624 77.2444 147.689 77.1262C147.72 77.081 147.763 77.0449 147.812 77.0215C147.862 76.9982 147.917 76.9884 147.972 76.9932C148.03 76.9883 148.088 76.9979 148.141 77.0211C148.194 77.0443 148.241 77.0804 148.276 77.1262C148.351 77.241 148.386 77.3773 148.376 77.514V80.0125C148.386 80.1492 148.351 80.2854 148.276 80.4003C148.241 80.446 148.194 80.4821 148.141 80.5053C148.088 80.5286 148.03 80.5381 147.972 80.5332C147.917 80.538 147.862 80.5282 147.812 80.5049C147.763 80.4815 147.72 80.4454 147.689 80.4003Z" fill="black"/>
<path d="M149.501 80.4223C149.304 80.333 149.141 80.1836 149.035 79.9958C148.913 79.7837 148.852 79.5422 148.858 79.2977C148.855 79.0732 148.911 78.8519 149.019 78.6551C149.124 78.4638 149.282 78.3064 149.473 78.2008C149.677 78.0895 149.906 78.034 150.138 78.0402C150.318 78.0346 150.497 78.0667 150.664 78.1343C150.804 78.1875 150.926 78.2774 151.019 78.3947C151.109 78.5062 151.177 78.6341 151.218 78.7714C151.264 78.9185 151.286 79.0717 151.285 79.2257C151.285 79.3587 151.201 79.4251 151.035 79.4251H149.645C149.638 79.5086 149.65 79.5926 149.68 79.6707C149.711 79.7488 149.758 79.819 149.82 79.8761C149.881 79.9331 149.954 79.9755 150.034 80.0001C150.114 80.0247 150.199 80.0308 150.282 80.0179C150.394 80.0178 150.505 79.9952 150.609 79.9514C150.711 79.9119 150.807 79.8558 150.891 79.7852C150.922 79.7677 150.956 79.7585 150.991 79.7585C151.026 79.7585 151.06 79.7677 151.091 79.7852C151.128 79.8034 151.161 79.8297 151.187 79.8623C151.213 79.8949 151.231 79.933 151.24 79.9736C151.253 80.012 151.255 80.0533 151.245 80.0926C151.235 80.1319 151.214 80.1675 151.185 80.1952C151.136 80.2412 151.084 80.2838 151.03 80.3226L150.83 80.439C150.739 80.4843 150.642 80.516 150.542 80.5331C150.425 80.5565 150.307 80.5676 150.188 80.5664C149.951 80.5729 149.715 80.5236 149.501 80.4223ZM150.636 79.0706C150.635 78.9174 150.591 78.7677 150.509 78.6385C150.466 78.5853 150.411 78.5435 150.348 78.5164C150.285 78.4894 150.217 78.4781 150.149 78.4834C150.078 78.4803 150.008 78.4937 149.944 78.5226C149.879 78.5514 149.822 78.5949 149.778 78.6496C149.684 78.7703 149.632 78.9179 149.628 79.0706H150.636Z" fill="black"/>
<path d="M152.132 80.3448C151.981 80.1411 151.91 79.8886 151.933 79.6357V78.5997H151.783C151.747 78.6025 151.711 78.598 151.677 78.5866C151.643 78.5752 151.611 78.5571 151.584 78.5333C151.534 78.4727 151.51 78.3952 151.517 78.3172C151.513 78.2821 151.516 78.2465 151.528 78.213C151.539 78.1795 151.558 78.1492 151.583 78.1244C151.609 78.0997 151.639 78.0812 151.673 78.0704C151.707 78.0596 151.743 78.0569 151.778 78.0624H151.983L152.038 77.5915C152.066 77.2868 152.193 77.1372 152.409 77.1372C152.625 77.1372 152.708 77.3034 152.708 77.6303V78.0624H153.007C153.179 78.0624 153.262 78.1566 153.262 78.3394C153.266 78.3746 153.261 78.41 153.25 78.4435C153.238 78.4769 153.22 78.5075 153.196 78.5333C153.168 78.5575 153.135 78.5758 153.1 78.5873C153.065 78.5987 153.028 78.6029 152.991 78.5997H152.708V79.464C152.697 79.6123 152.723 79.7611 152.786 79.8961C152.83 79.9792 152.919 80.0124 153.052 80.0069H153.19C153.212 80.0043 153.234 80.0064 153.255 80.0131C153.276 80.0198 153.296 80.0309 153.312 80.0457C153.347 80.0742 153.372 80.1129 153.384 80.1565C153.39 80.2006 153.39 80.2453 153.384 80.2894C153.38 80.3367 153.365 80.3823 153.34 80.4224C153.318 80.461 153.282 80.4905 153.24 80.5055C153.061 80.5587 152.873 80.5812 152.686 80.572C152.583 80.5727 152.481 80.553 152.386 80.514C152.291 80.475 152.205 80.4175 152.132 80.3448Z" fill="black"/>
<path d="M154.326 80.4223C154.131 80.3314 153.968 80.1824 153.861 79.9958C153.74 79.7833 153.681 79.5418 153.689 79.2977C153.684 79.0737 153.738 78.8523 153.844 78.6551C153.952 78.4661 154.109 78.3093 154.298 78.2008C154.504 78.0895 154.735 78.0341 154.969 78.0402C155.147 78.0346 155.324 78.0667 155.489 78.1343C155.631 78.1873 155.755 78.2773 155.849 78.3947C155.938 78.5067 156.004 78.6346 156.043 78.7714C156.089 78.9185 156.112 79.0717 156.11 79.2257C156.11 79.3587 156.027 79.4252 155.866 79.4252H154.453C154.447 79.5086 154.459 79.5926 154.489 79.6707C154.519 79.7488 154.567 79.819 154.628 79.8761C154.689 79.9331 154.763 79.9755 154.843 80.0001C154.923 80.0247 155.008 80.0308 155.09 80.0179C155.205 80.0184 155.318 79.9958 155.423 79.9514C155.523 79.9106 155.617 79.8546 155.7 79.7852C155.731 79.7678 155.766 79.7586 155.802 79.7586C155.838 79.7586 155.874 79.7678 155.905 79.7852C155.941 79.8046 155.972 79.8314 155.997 79.8639C156.022 79.8964 156.04 79.9338 156.049 79.9736C156.064 80.0112 156.068 80.0526 156.059 80.0922C156.05 80.1318 156.029 80.1677 155.999 80.1952C155.949 80.2414 155.895 80.284 155.838 80.3226L155.639 80.439C155.55 80.4835 155.455 80.5152 155.356 80.5331C155.24 80.5559 155.121 80.5671 155.002 80.5664C154.769 80.5704 154.537 80.5211 154.326 80.4223ZM155.462 79.0706C155.462 78.918 155.42 78.7684 155.34 78.6385C155.297 78.5854 155.242 78.5435 155.179 78.5165C155.116 78.4894 155.048 78.4781 154.98 78.4834C154.909 78.4799 154.839 78.4931 154.774 78.522C154.71 78.5509 154.653 78.5946 154.609 78.6496C154.515 78.7703 154.463 78.9179 154.459 79.0706H155.462Z" fill="black"/>
<path d="M156.786 80.2508C156.575 79.9816 156.471 79.6445 156.492 79.3034C156.49 79.1155 156.518 78.9284 156.575 78.7494C156.626 78.6046 156.707 78.4724 156.813 78.3616C156.911 78.2613 157.028 78.1822 157.157 78.129C157.292 78.0795 157.434 78.0551 157.578 78.0569C157.744 78.0507 157.908 78.089 158.054 78.1677C158.186 78.2319 158.292 78.3395 158.354 78.4724V77.5085C158.345 77.3709 158.378 77.2341 158.448 77.1151C158.486 77.0711 158.534 77.0365 158.588 77.0144C158.642 76.9923 158.7 76.9831 158.758 76.9877C158.812 76.9839 158.866 76.9936 158.915 77.0158C158.965 77.0381 159.008 77.0722 159.04 77.1151C159.104 77.2361 159.133 77.3722 159.124 77.5085V79.9848C159.13 80.1257 159.098 80.2657 159.029 80.3893C158.997 80.4369 158.953 80.4753 158.902 80.5006C158.85 80.5259 158.793 80.5372 158.736 80.5333C158.684 80.5368 158.632 80.5293 158.583 80.5111C158.534 80.493 158.49 80.4647 158.453 80.428C158.385 80.3524 158.349 80.2529 158.354 80.151C158.283 80.3007 158.168 80.4247 158.024 80.5061C157.88 80.5875 157.715 80.6222 157.55 80.6053C157.404 80.608 157.26 80.5774 157.127 80.516C156.995 80.4546 156.878 80.3639 156.786 80.2508ZM158.354 79.32C158.364 79.1241 158.312 78.9299 158.204 78.766C158.155 78.7028 158.092 78.6522 158.02 78.6185C157.948 78.5848 157.868 78.5689 157.788 78.5722C157.707 78.5682 157.626 78.5855 157.553 78.6224C157.48 78.6593 157.418 78.7146 157.373 78.7827C157.272 78.9492 157.221 79.1418 157.229 79.3367C157.229 79.4282 157.24 79.5194 157.262 79.6081C157.28 79.6932 157.31 79.7753 157.351 79.8519C157.389 79.928 157.446 79.9928 157.517 80.0402C157.594 80.0854 157.682 80.1083 157.772 80.1067C158.16 80.103 158.354 79.8408 158.354 79.32Z" fill="black"/>
<path d="M159.921 77.2867C159.902 77.206 159.913 77.1212 159.952 77.0479C159.991 76.9746 160.055 76.9178 160.132 76.8879C160.209 76.8489 160.295 76.8286 160.381 76.8286C160.468 76.8286 160.553 76.8489 160.63 76.8879C160.707 76.9186 160.771 76.9754 160.811 77.0482C160.85 77.1211 160.863 77.2055 160.847 77.2867L160.619 79.0872C160.613 79.1541 160.583 79.2167 160.536 79.2645C160.494 79.3042 160.439 79.3261 160.381 79.3254C160.353 79.3256 160.326 79.3204 160.3 79.3099C160.275 79.2994 160.251 79.284 160.232 79.2645C160.208 79.2385 160.19 79.2077 160.18 79.1742C160.169 79.1407 160.166 79.1054 160.171 79.0706L159.921 77.2867ZM160.099 80.4279C160.058 80.3906 160.027 80.345 160.006 80.2944C159.985 80.2437 159.975 80.1891 159.977 80.1343C159.976 80.0801 159.986 80.0262 160.005 79.9758C160.025 79.9254 160.055 79.8795 160.093 79.8407C160.13 79.8005 160.176 79.7688 160.227 79.7477C160.277 79.7267 160.332 79.7168 160.387 79.7188C160.44 79.7179 160.493 79.7278 160.543 79.7477C160.592 79.7677 160.637 79.7974 160.675 79.8351C160.715 79.8733 160.747 79.9198 160.768 79.9714C160.789 80.023 160.799 80.0786 160.797 80.1343C160.797 80.2435 160.756 80.3488 160.68 80.4279C160.642 80.4662 160.597 80.4967 160.547 80.5175C160.497 80.5382 160.444 80.5489 160.389 80.5489C160.335 80.5489 160.282 80.5382 160.232 80.5175C160.182 80.4967 160.137 80.4662 160.099 80.4279Z" fill="black"/>
<path d="M117.607 101.291H177.644" stroke="#263238" stroke-linecap="round" stroke-linejoin="round"/>
<path d="M117.607 108.46H177.644" stroke="#263238" stroke-linecap="round" stroke-linejoin="round"/>
<path d="M117.607 115.629H177.644" stroke="#263238" stroke-linecap="round" stroke-linejoin="round"/>
<path d="M117.607 122.797H177.644" stroke="#263238" stroke-linecap="round" stroke-linejoin="round"/>
<path d="M183.112 6.15405H112.893C111.807 6.15405 110.766 6.58539 109.998 7.35316C109.23 8.12094 108.799 9.16226 108.799 10.2481V13.1732H154.077L156.464 10.4863H187.206V10.2481C187.206 9.16226 186.774 8.12094 186.006 7.35316C185.239 6.58539 184.197 6.15405 183.112 6.15405Z" fill="#4CAF4F"/>
</g>
<path d="M183.112 6.15405H112.893C110.632 6.15405 108.799 7.987 108.799 10.2481V133.689C108.799 135.95 110.632 137.783 112.893 137.783H183.112C185.373 137.783 187.206 135.95 187.206 133.689V10.2481C187.206 7.987 185.373 6.15405 183.112 6.15405Z" stroke="#263238" stroke-linecap="round" stroke-linejoin="round"/>
<path d="M191.045 120.343V124.542C191.045 124.596 191.055 124.648 191.076 124.697C191.096 124.746 191.126 124.791 191.163 124.828C191.201 124.866 191.245 124.896 191.294 124.916C191.343 124.936 191.396 124.947 191.449 124.947C191.502 124.948 191.555 124.938 191.605 124.918C191.654 124.898 191.699 124.868 191.737 124.83C191.774 124.792 191.804 124.747 191.824 124.698C191.844 124.649 191.854 124.596 191.854 124.542V120.343C191.854 120.236 191.811 120.133 191.735 120.057C191.659 119.981 191.556 119.939 191.449 119.939C191.342 119.939 191.239 119.981 191.163 120.057C191.087 120.133 191.045 120.236 191.045 120.343Z" fill="white"/>
<path d="M191.045 104.244V112.892C191.055 112.99 191.102 113.081 191.178 113.145C191.253 113.209 191.35 113.242 191.449 113.235C191.548 113.243 191.646 113.211 191.722 113.147C191.798 113.083 191.845 112.991 191.854 112.892V104.244C191.845 104.145 191.798 104.053 191.722 103.989C191.646 103.925 191.548 103.893 191.449 103.901C191.35 103.894 191.253 103.927 191.178 103.991C191.102 104.055 191.055 104.146 191.045 104.244Z" fill="white"/>
<path d="M23.4285 129.922C23.4285 129.922 25.6444 124.382 18.2597 109.978C10.875 95.5741 17.8885 72.3064 17.8885 72.3064" stroke="#4CAF4F" stroke-miterlimit="10"/>
<path d="M27.8604 131.401C27.8604 131.401 30.4476 125.861 27.4893 117.734C24.5309 109.607 25.3176 104.992 25.3176 104.992" stroke="#4CAF4F" stroke-miterlimit="10"/>
<path d="M16.6254 106.294C16.6254 106.294 10.8694 99.2692 8.65347 90.782C6.4375 82.2948 6.4375 78.2285 6.4375 78.2285" stroke="#4CAF4F" stroke-miterlimit="10"/>
<path d="M20.1045 128.442C20.1045 128.442 17.5174 125.119 16.7806 115.147C16.3531 109.054 16.9772 102.934 18.6254 97.0532" stroke="#4CAF4F" stroke-miterlimit="10"/>
<path d="M17.2625 159.76H30.4088L32.0486 127.418H15.6172L17.2625 159.76Z" fill="white"/>
<path opacity="0.17" d="M17.2625 159.76H30.4088L32.0486 127.418H15.6172L17.2625 159.76Z" fill="black"/>
<path d="M20.5311 109.945C20.5311 110.166 20.8635 110.332 20.9189 110.543C20.9743 110.753 20.797 111.047 20.8801 111.247C20.9632 111.446 21.2956 111.529 21.4341 111.717C21.5726 111.906 21.4341 112.238 21.5782 112.41C21.7222 112.582 22.0546 112.576 22.2097 112.731C22.3648 112.886 22.3593 113.23 22.531 113.363C22.7028 113.496 23.0352 113.402 23.2235 113.512C23.4119 113.623 23.495 113.956 23.6944 114.039C23.8938 114.122 24.193 113.944 24.4035 114C24.614 114.055 24.7802 114.354 24.9963 114.388C25.2123 114.421 25.4506 114.166 25.6722 114.166C25.8938 114.166 26.1264 114.415 26.3425 114.388C26.5585 114.36 26.7247 114.055 26.9353 114C27.1458 113.944 27.4449 114.122 27.6444 114.039C27.8438 113.956 27.9269 113.618 28.1153 113.512C28.3036 113.407 28.636 113.512 28.8078 113.363C28.9795 113.213 28.974 112.886 29.1291 112.731C29.2842 112.576 29.6277 112.587 29.7606 112.41C29.8936 112.233 29.7939 111.911 29.9047 111.717C30.0155 111.524 30.3479 111.451 30.4587 111.247C30.5695 111.042 30.3645 110.753 30.4254 110.543C30.4864 110.332 30.78 110.166 30.8077 109.945C30.8354 109.723 30.5916 109.496 30.5916 109.274C30.5916 109.053 30.8354 108.814 30.8077 108.604C30.78 108.393 30.4808 108.216 30.4254 108.006C30.37 107.795 30.5473 107.502 30.4642 107.302C30.3811 107.103 30.0432 107.02 29.9102 106.831C29.7773 106.643 29.9102 106.31 29.7662 106.139C29.6221 105.967 29.2897 105.972 29.1346 105.817C28.9795 105.662 28.9906 105.319 28.8133 105.186C28.636 105.053 28.3147 105.147 28.1208 105.036C27.9269 104.925 27.8549 104.593 27.6499 104.51C27.4449 104.427 27.1569 104.604 26.9408 104.549C26.7248 104.493 26.5696 104.194 26.348 104.161C26.1264 104.128 25.8993 104.383 25.6777 104.383C25.4561 104.383 25.2179 104.133 25.0018 104.161C24.7858 104.189 24.6196 104.493 24.4091 104.549C24.1985 104.604 23.9049 104.427 23.7055 104.51C23.506 104.593 23.4174 104.925 23.229 105.036C23.0407 105.147 22.7138 105.036 22.5366 105.186C22.3593 105.335 22.3704 105.662 22.2152 105.817C22.0601 105.972 21.7222 105.961 21.5892 106.133C21.4563 106.305 21.5505 106.637 21.4397 106.826C21.3289 107.014 20.9965 107.097 20.8857 107.302C20.7749 107.507 20.9798 107.795 20.9244 108.006C20.869 108.216 20.5643 108.382 20.5366 108.598C20.5089 108.814 20.7582 109.053 20.7582 109.274C20.7582 109.496 20.5034 109.734 20.5311 109.945ZM13.5619 95.3857C13.5619 95.1031 13.2461 94.8317 13.2849 94.5381C13.3237 94.2445 13.7004 94.0506 13.7724 93.7846C13.8444 93.5187 13.6173 93.1476 13.7225 92.8983C13.8278 92.649 14.2488 92.5382 14.3873 92.2999C14.5258 92.0617 14.3873 91.6462 14.5701 91.4302C14.753 91.2141 15.174 91.2197 15.3679 91.0258C15.5618 90.8319 15.5507 90.3997 15.7723 90.228C15.9939 90.0563 16.4039 90.1837 16.6421 90.0452C16.8803 89.9067 16.98 89.4912 17.2404 89.3804C17.5008 89.2696 17.8609 89.5023 18.1323 89.4303C18.4038 89.3582 18.6032 88.976 18.8802 88.9427C19.1572 88.9095 19.4342 89.2197 19.7278 89.2197C20.0214 89.2197 20.2818 88.904 20.5754 88.9427C20.869 88.9815 21.0574 89.3582 21.3233 89.4303C21.5892 89.5023 21.9604 89.2751 22.2152 89.3804C22.4701 89.4857 22.5698 89.9067 22.808 90.0452C23.0462 90.1837 23.4617 90.0452 23.6833 90.228C23.9049 90.4108 23.8883 90.8319 24.0877 91.0258C24.2872 91.2197 24.7138 91.2086 24.88 91.4302C25.0461 91.6518 24.9298 92.0617 25.0683 92.2999C25.2068 92.5382 25.6223 92.6379 25.7276 92.8983C25.8328 93.1586 25.6112 93.5187 25.6832 93.7902C25.7553 94.0616 26.132 94.2611 26.1708 94.5381C26.2095 94.8151 25.8882 95.0921 25.8882 95.3857C25.8882 95.6793 26.204 95.9397 26.1708 96.2333C26.1375 96.5269 25.7553 96.7153 25.6832 96.9812C25.6112 97.2471 25.8328 97.6183 25.7276 97.8731C25.6223 98.1279 25.2013 98.2277 25.0683 98.4659C24.9353 98.7041 25.0683 99.1196 24.88 99.3412C24.6916 99.5628 24.2816 99.5462 24.0822 99.7456C23.8828 99.945 23.8994 100.372 23.6833 100.538C23.4673 100.704 23.0462 100.588 22.808 100.726C22.5698 100.865 22.4701 101.28 22.2152 101.385C21.9604 101.491 21.5892 101.269 21.3233 101.341C21.0574 101.413 20.8524 101.79 20.5754 101.829C20.2984 101.867 20.0214 101.546 19.7278 101.546C19.4342 101.546 19.1738 101.862 18.8802 101.829C18.5866 101.795 18.3927 101.413 18.1268 101.341C17.8609 101.269 17.4897 101.491 17.2404 101.385C16.9911 101.28 16.8803 100.859 16.6421 100.726C16.4039 100.593 15.9884 100.726 15.7723 100.538C15.5562 100.349 15.5618 99.9395 15.3679 99.7401C15.174 99.5406 14.7419 99.5572 14.5701 99.3412C14.3984 99.1251 14.5258 98.7041 14.3873 98.4659C14.2488 98.2277 13.8333 98.1279 13.7225 97.8731C13.6117 97.6183 13.8389 97.2471 13.7724 96.9812C13.7059 96.7153 13.3181 96.5103 13.2849 96.2333C13.2516 95.9563 13.5619 95.6904 13.5619 95.3857ZM12.8084 120.16C12.8084 119.878 12.4982 119.606 12.5314 119.313C12.5647 119.019 12.9469 118.831 13.019 118.565C13.091 118.299 12.8638 117.928 12.9691 117.673C13.0744 117.418 13.5231 117.313 13.6339 117.075C13.7447 116.836 13.6339 116.421 13.8167 116.205C13.9995 115.989 14.4206 115.994 14.6145 115.8C14.8084 115.606 14.7973 115.174 15.0189 115.003C15.2405 114.831 15.6504 114.958 15.8886 114.82C16.1269 114.681 16.2321 114.266 16.487 114.155C16.7418 114.044 17.1074 114.277 17.3789 114.205C17.6503 114.133 17.8498 113.756 18.1268 113.717C18.4038 113.679 18.6808 113.994 18.9744 113.994C19.268 113.994 19.5284 113.684 19.822 113.717C20.1156 113.751 20.304 114.133 20.5699 114.205C20.8358 114.277 21.207 114.05 21.4618 114.155C21.7167 114.26 21.8164 114.681 22.0546 114.82C22.2928 114.958 22.7083 114.82 22.9299 115.008C23.1515 115.196 23.1349 115.606 23.3343 115.8C23.5337 115.994 23.9603 115.989 24.1265 116.205C24.2927 116.421 24.1764 116.836 24.3149 117.08C24.4534 117.324 24.8689 117.418 24.9797 117.673C25.0905 117.928 24.8578 118.293 24.9298 118.565C25.0018 118.836 25.3785 119.036 25.4173 119.313C25.4561 119.59 25.1403 119.867 25.1403 120.16C25.1403 120.454 25.4506 120.714 25.4173 121.008C25.3841 121.301 25.0018 121.49 24.9298 121.756C24.8578 122.022 25.0849 122.393 24.9797 122.648C24.8744 122.903 24.4257 123.008 24.3149 123.246C24.2041 123.484 24.3149 123.9 24.1265 124.116C23.9382 124.332 23.5282 124.326 23.3343 124.52C23.1404 124.714 23.146 125.146 22.9299 125.318C22.7138 125.49 22.2928 125.362 22.0546 125.501C21.8164 125.639 21.7167 126.055 21.4618 126.166C21.207 126.276 20.8358 126.044 20.5699 126.116C20.304 126.188 20.099 126.564 19.822 126.603C19.545 126.642 19.268 126.326 18.9744 126.326C18.6808 126.326 18.4204 126.636 18.1268 126.603C17.8332 126.57 17.6393 126.188 17.3789 126.116C17.1185 126.044 16.7418 126.271 16.487 126.166C16.2321 126.06 16.1269 125.639 15.8886 125.501C15.6504 125.362 15.2349 125.501 15.0189 125.312C14.8028 125.124 14.8084 124.714 14.6145 124.52C14.4206 124.326 13.9884 124.337 13.8167 124.116C13.645 123.894 13.7724 123.484 13.6339 123.24C13.4954 122.997 13.0799 122.903 12.9691 122.648C12.8583 122.393 13.091 122.027 13.019 121.756C12.9469 121.484 12.5647 121.285 12.5314 121.008C12.4982 120.731 12.8084 120.443 12.8084 120.16ZM25.5503 123.678C25.5503 123.495 25.229 123.29 25.2511 123.124C25.2733 122.958 25.6389 122.825 25.6832 122.648C25.7276 122.47 25.4783 122.193 25.5447 122.027C25.6112 121.861 25.9935 121.839 26.0987 121.684C26.204 121.529 26.0156 121.185 26.0987 121.041C26.1818 120.897 26.5807 120.98 26.7081 120.853C26.8355 120.725 26.758 120.349 26.902 120.238C27.0461 120.127 27.384 120.304 27.5391 120.21C27.6942 120.116 27.7164 119.745 27.8826 119.656C28.0488 119.567 28.3313 119.839 28.5086 119.795C28.6859 119.75 28.7967 119.385 28.9795 119.363C29.1623 119.34 29.3618 119.656 29.5335 119.656C29.7052 119.656 29.9213 119.34 30.0875 119.363C30.2537 119.385 30.3866 119.745 30.5639 119.795C30.7412 119.844 31.0182 119.584 31.1899 119.656C31.3617 119.728 31.3728 120.105 31.5334 120.21C31.6941 120.315 32.0265 120.133 32.1705 120.243C32.3145 120.354 32.2314 120.72 32.3644 120.853C32.4974 120.986 32.863 120.897 32.9738 121.041C33.0846 121.185 32.9073 121.523 33.0015 121.684C33.0957 121.844 33.4724 121.855 33.5555 122.027C33.6386 122.199 33.3727 122.476 33.417 122.653C33.4613 122.831 33.8269 122.941 33.8491 123.124C33.8713 123.307 33.5555 123.506 33.5555 123.678C33.5555 123.85 33.8713 124.071 33.8491 124.232C33.8269 124.393 33.4668 124.531 33.417 124.703C33.3671 124.875 33.6275 125.163 33.5555 125.329C33.4835 125.495 33.1068 125.517 33.0015 125.672C32.8962 125.828 33.0846 126.166 32.9738 126.31C32.863 126.454 32.4918 126.376 32.3589 126.503C32.2259 126.631 32.3145 127.002 32.1705 127.113C32.0265 127.224 31.6885 127.052 31.5279 127.141C31.3672 127.229 31.3561 127.611 31.1844 127.695C31.0127 127.778 30.7412 127.506 30.5639 127.556C30.3866 127.606 30.2703 127.96 30.0875 127.988C29.9047 128.016 29.7052 127.689 29.5335 127.689C29.3618 127.689 29.1457 128.01 28.9795 127.988C28.8133 127.966 28.6859 127.6 28.5086 127.556C28.3313 127.512 28.0488 127.761 27.8826 127.695C27.7164 127.628 27.6998 127.246 27.5391 127.141C27.3785 127.035 27.0461 127.224 26.902 127.113C26.758 127.002 26.8355 126.631 26.7081 126.503C26.5807 126.376 26.2095 126.454 26.0987 126.31C25.9879 126.166 26.1597 125.828 26.0987 125.672C26.0378 125.517 25.6278 125.495 25.5447 125.329C25.4616 125.163 25.7331 124.88 25.6832 124.703C25.6334 124.526 25.2788 124.415 25.2511 124.232C25.2234 124.049 25.5503 123.866 25.5503 123.678ZM12.0827 73.0044C12.0827 72.7218 11.7669 72.4227 11.8057 72.1512C11.8445 71.8797 12.2212 71.6692 12.2877 71.4033C12.3542 71.1374 12.1381 70.7662 12.2434 70.5169C12.3486 70.2676 12.7974 70.1568 12.9082 69.9186C13.019 69.6804 12.9082 69.2649 13.091 69.0488C13.2738 68.8328 13.6948 68.8383 13.8887 68.6444C14.0826 68.4505 14.0715 68.0184 14.2931 67.8467C14.5147 67.6749 14.9247 67.8024 15.1629 67.6639C15.4011 67.5254 15.5008 67.1099 15.7612 66.9991C16.0216 66.8883 16.3817 67.1154 16.6476 67.0434C16.9135 66.9714 17.1185 66.5946 17.3955 66.5614C17.6725 66.5282 17.9495 66.8384 18.2486 66.8384C18.5478 66.8384 18.8026 66.5226 19.0963 66.5614C19.3899 66.6002 19.5782 66.9769 19.8441 67.0434C20.1101 67.1099 20.4812 66.8938 20.7361 66.9991C20.9909 67.1043 21.0906 67.5254 21.3289 67.6639C21.5671 67.8024 21.9826 67.6639 22.2042 67.8467C22.4258 68.0295 22.4091 68.4505 22.603 68.6444C22.7969 68.8383 23.2346 68.8272 23.4008 69.0488C23.567 69.2704 23.4451 69.6804 23.5836 69.9186C23.7221 70.1568 24.1376 70.2565 24.2484 70.5169C24.3592 70.7773 24.1321 71.1374 24.2041 71.4033C24.2761 71.6692 24.6528 71.8797 24.6861 72.1567C24.7193 72.4337 24.4091 72.7107 24.4091 73.0044C24.4091 73.298 24.7248 73.5583 24.6861 73.852C24.6473 74.1456 24.2706 74.3339 24.2041 74.5998C24.1376 74.8658 24.3537 75.2369 24.2484 75.4918C24.1431 75.7466 23.6944 75.8463 23.5836 76.0846C23.4728 76.3228 23.5836 76.7383 23.4008 76.9599C23.218 77.1815 22.8025 77.1648 22.603 77.3643C22.4036 77.5637 22.4202 77.9903 22.1986 78.1565C21.977 78.3227 21.5671 78.2008 21.3289 78.3448C21.0906 78.4889 20.9909 78.8988 20.7305 79.0041C20.4702 79.1094 20.1101 78.8878 19.8441 78.9598C19.5782 79.0318 19.3733 79.4085 19.0963 79.4473C18.8193 79.4861 18.5423 79.1648 18.2486 79.1648C17.955 79.1648 17.6947 79.4805 17.3955 79.4418C17.0963 79.403 16.9135 79.0263 16.6476 78.9598C16.3817 78.8933 16.0105 79.1094 15.7612 79.0041C15.5119 78.8988 15.4011 78.4778 15.1629 78.3393C14.9247 78.2008 14.5092 78.3393 14.2876 78.1565C14.066 77.9737 14.0826 77.5582 13.8887 77.3587C13.6948 77.1593 13.2572 77.1759 13.091 76.9599C12.9248 76.7438 13.0467 76.3228 12.9082 76.0846C12.7697 75.8463 12.3542 75.7466 12.2434 75.4918C12.1326 75.2369 12.3597 74.8658 12.2877 74.5998C12.2157 74.3339 11.839 74.129 11.8057 73.852C11.7725 73.575 12.0827 73.2813 12.0827 73.0044ZM0.797861 84.2837C0.797861 84.0067 0.487624 83.7297 0.520864 83.436C0.554103 83.1424 0.936357 82.9541 1.00838 82.6882C1.0804 82.4222 0.85326 82.0511 0.958519 81.7962C1.06378 81.5414 1.51251 81.4417 1.62331 81.2035C1.73411 80.9652 1.62331 80.5497 1.80613 80.3281C1.98895 80.1065 2.40998 80.1232 2.60388 79.9237C2.79778 79.7243 2.7867 79.2977 3.00829 79.1315C3.22989 78.9653 3.63984 79.0817 3.87806 78.9432C4.11628 78.8047 4.22154 78.3892 4.47638 78.2839C4.73121 78.1786 5.09685 78.4002 5.36831 78.3282C5.63976 78.2562 5.8392 77.8795 6.1162 77.8407C6.39319 77.8019 6.67019 78.1232 6.9638 78.1232C7.25742 78.1232 7.5178 77.8075 7.81142 77.8407C8.10503 77.874 8.29339 78.2562 8.55931 78.3282C8.82522 78.4002 9.1964 78.1786 9.45124 78.2839C9.70608 78.3892 9.80579 78.8102 10.044 78.9432C10.2822 79.0761 10.6977 78.9432 10.9193 79.1315C11.1409 79.3199 11.1298 79.7298 11.3237 79.9293C11.5176 80.1287 11.9497 80.1121 12.1159 80.3281C12.2821 80.5442 12.1658 80.9652 12.3043 81.2035C12.4428 81.4417 12.8583 81.5414 12.9691 81.7962C13.0799 82.0511 12.8472 82.4222 12.9192 82.6882C12.9913 82.9541 13.368 83.159 13.4068 83.436C13.4455 83.713 13.1298 83.99 13.1298 84.2837C13.1298 84.5773 13.44 84.8653 13.4068 85.1313C13.3735 85.3972 12.9913 85.6188 12.9192 85.8847C12.8472 86.1506 13.0744 86.5218 12.9691 86.7711C12.8638 87.0204 12.4151 87.1312 12.3043 87.3694C12.1935 87.6076 12.3043 88.0231 12.1159 88.2392C11.9276 88.4552 11.5176 88.4497 11.3237 88.6436C11.1298 88.8375 11.1354 89.2696 10.9193 89.4413C10.7033 89.6131 10.2878 89.4857 10.044 89.6242C9.80025 89.7626 9.70608 90.1781 9.45124 90.2889C9.1964 90.3997 8.82522 90.1671 8.55931 90.2391C8.29339 90.3111 8.08841 90.6934 7.81142 90.7266C7.53442 90.7598 7.25742 90.4496 6.9638 90.4496C6.67019 90.4496 6.40981 90.7654 6.1162 90.7266C5.82258 90.6878 5.62868 90.3111 5.36831 90.2391C5.10793 90.1671 4.73121 90.3942 4.47638 90.2889C4.22154 90.1837 4.11628 89.7626 3.87806 89.6242C3.63984 89.4857 3.22435 89.6242 3.00829 89.4413C2.79224 89.2585 2.79778 88.8375 2.60388 88.6436C2.40998 88.4497 1.97787 88.4608 1.80613 88.2392C1.63439 88.0176 1.76181 87.6076 1.62331 87.3694C1.48481 87.1312 1.06932 87.0315 0.958519 86.7711C0.84772 86.5107 1.0804 86.1506 1.00838 85.8792C0.936357 85.6077 0.554103 85.4083 0.520864 85.1313C0.487624 84.8543 0.797861 84.5662 0.797861 84.2837Z" fill="#4CAF4F"/>
<path opacity="0.53" d="M20.5311 109.945C20.5311 110.166 20.8635 110.332 20.9189 110.543C20.9743 110.753 20.797 111.047 20.8801 111.247C20.9632 111.446 21.2956 111.529 21.4341 111.717C21.5726 111.906 21.4341 112.238 21.5782 112.41C21.7222 112.582 22.0546 112.576 22.2097 112.731C22.3648 112.886 22.3593 113.23 22.531 113.363C22.7028 113.496 23.0352 113.402 23.2235 113.512C23.4119 113.623 23.495 113.956 23.6944 114.039C23.8938 114.122 24.193 113.944 24.4035 114C24.614 114.055 24.7802 114.354 24.9963 114.388C25.2123 114.421 25.4506 114.166 25.6722 114.166C25.8938 114.166 26.1264 114.415 26.3425 114.388C26.5585 114.36 26.7247 114.055 26.9353 114C27.1458 113.944 27.4449 114.122 27.6444 114.039C27.8438 113.956 27.9269 113.618 28.1153 113.512C28.3036 113.407 28.636 113.512 28.8078 113.363C28.9795 113.213 28.974 112.886 29.1291 112.731C29.2842 112.576 29.6277 112.587 29.7606 112.41C29.8936 112.233 29.7939 111.911 29.9047 111.717C30.0155 111.524 30.3479 111.451 30.4587 111.247C30.5695 111.042 30.3645 110.753 30.4254 110.543C30.4864 110.332 30.78 110.166 30.8077 109.945C30.8354 109.723 30.5916 109.496 30.5916 109.274C30.5916 109.053 30.8354 108.814 30.8077 108.604C30.78 108.393 30.4808 108.216 30.4254 108.006C30.37 107.795 30.5473 107.502 30.4642 107.302C30.3811 107.103 30.0432 107.02 29.9102 106.831C29.7773 106.643 29.9102 106.31 29.7662 106.139C29.6221 105.967 29.2897 105.972 29.1346 105.817C28.9795 105.662 28.9906 105.319 28.8133 105.186C28.636 105.053 28.3147 105.147 28.1208 105.036C27.9269 104.925 27.8549 104.593 27.6499 104.51C27.4449 104.427 27.1569 104.604 26.9408 104.549C26.7248 104.493 26.5696 104.194 26.348 104.161C26.1264 104.128 25.8993 104.383 25.6777 104.383C25.4561 104.383 25.2179 104.133 25.0018 104.161C24.7858 104.189 24.6196 104.493 24.4091 104.549C24.1985 104.604 23.9049 104.427 23.7055 104.51C23.506 104.593 23.4174 104.925 23.229 105.036C23.0407 105.147 22.7138 105.036 22.5366 105.186C22.3593 105.335 22.3704 105.662 22.2152 105.817C22.0601 105.972 21.7222 105.961 21.5892 106.133C21.4563 106.305 21.5505 106.637 21.4397 106.826C21.3289 107.014 20.9965 107.097 20.8857 107.302C20.7749 107.507 20.9798 107.795 20.9244 108.006C20.869 108.216 20.5643 108.382 20.5366 108.598C20.5089 108.814 20.7582 109.053 20.7582 109.274C20.7582 109.496 20.5034 109.734 20.5311 109.945ZM13.5619 95.3857C13.5619 95.1031 13.2461 94.8317 13.2849 94.5381C13.3237 94.2445 13.7004 94.0506 13.7724 93.7846C13.8444 93.5187 13.6173 93.1476 13.7225 92.8983C13.8278 92.649 14.2488 92.5382 14.3873 92.2999C14.5258 92.0617 14.3873 91.6462 14.5701 91.4302C14.753 91.2141 15.174 91.2197 15.3679 91.0258C15.5618 90.8319 15.5507 90.3997 15.7723 90.228C15.9939 90.0563 16.4039 90.1837 16.6421 90.0452C16.8803 89.9067 16.98 89.4912 17.2404 89.3804C17.5008 89.2696 17.8609 89.5023 18.1323 89.4303C18.4038 89.3582 18.6032 88.976 18.8802 88.9427C19.1572 88.9095 19.4342 89.2197 19.7278 89.2197C20.0214 89.2197 20.2818 88.904 20.5754 88.9427C20.869 88.9815 21.0574 89.3582 21.3233 89.4303C21.5892 89.5023 21.9604 89.2751 22.2152 89.3804C22.4701 89.4857 22.5698 89.9067 22.808 90.0452C23.0462 90.1837 23.4617 90.0452 23.6833 90.228C23.9049 90.4108 23.8883 90.8319 24.0877 91.0258C24.2872 91.2197 24.7138 91.2086 24.88 91.4302C25.0461 91.6518 24.9298 92.0617 25.0683 92.2999C25.2068 92.5382 25.6223 92.6379 25.7276 92.8983C25.8328 93.1586 25.6112 93.5187 25.6832 93.7902C25.7553 94.0616 26.132 94.2611 26.1708 94.5381C26.2095 94.8151 25.8882 95.0921 25.8882 95.3857C25.8882 95.6793 26.204 95.9397 26.1708 96.2333C26.1375 96.5269 25.7553 96.7153 25.6832 96.9812C25.6112 97.2471 25.8328 97.6183 25.7276 97.8731C25.6223 98.1279 25.2013 98.2277 25.0683 98.4659C24.9353 98.7041 25.0683 99.1196 24.88 99.3412C24.6916 99.5628 24.2816 99.5462 24.0822 99.7456C23.8828 99.945 23.8994 100.372 23.6833 100.538C23.4673 100.704 23.0462 100.588 22.808 100.726C22.5698 100.865 22.4701 101.28 22.2152 101.385C21.9604 101.491 21.5892 101.269 21.3233 101.341C21.0574 101.413 20.8524 101.79 20.5754 101.829C20.2984 101.867 20.0214 101.546 19.7278 101.546C19.4342 101.546 19.1738 101.862 18.8802 101.829C18.5866 101.795 18.3927 101.413 18.1268 101.341C17.8609 101.269 17.4897 101.491 17.2404 101.385C16.9911 101.28 16.8803 100.859 16.6421 100.726C16.4039 100.593 15.9884 100.726 15.7723 100.538C15.5562 100.349 15.5618 99.9395 15.3679 99.7401C15.174 99.5406 14.7419 99.5572 14.5701 99.3412C14.3984 99.1251 14.5258 98.7041 14.3873 98.4659C14.2488 98.2277 13.8333 98.1279 13.7225 97.8731C13.6117 97.6183 13.8389 97.2471 13.7724 96.9812C13.7059 96.7153 13.3181 96.5103 13.2849 96.2333C13.2516 95.9563 13.5619 95.6904 13.5619 95.3857ZM12.8084 120.16C12.8084 119.878 12.4982 119.606 12.5314 119.313C12.5647 119.019 12.9469 118.831 13.019 118.565C13.091 118.299 12.8638 117.928 12.9691 117.673C13.0744 117.418 13.5231 117.313 13.6339 117.075C13.7447 116.836 13.6339 116.421 13.8167 116.205C13.9995 115.989 14.4206 115.994 14.6145 115.8C14.8084 115.606 14.7973 115.174 15.0189 115.003C15.2405 114.831 15.6504 114.958 15.8886 114.82C16.1269 114.681 16.2321 114.266 16.487 114.155C16.7418 114.044 17.1074 114.277 17.3789 114.205C17.6503 114.133 17.8498 113.756 18.1268 113.717C18.4038 113.679 18.6808 113.994 18.9744 113.994C19.268 113.994 19.5284 113.684 19.822 113.717C20.1156 113.751 20.304 114.133 20.5699 114.205C20.8358 114.277 21.207 114.05 21.4618 114.155C21.7167 114.26 21.8164 114.681 22.0546 114.82C22.2928 114.958 22.7083 114.82 22.9299 115.008C23.1515 115.196 23.1349 115.606 23.3343 115.8C23.5337 115.994 23.9603 115.989 24.1265 116.205C24.2927 116.421 24.1764 116.836 24.3149 117.08C24.4534 117.324 24.8689 117.418 24.9797 117.673C25.0905 117.928 24.8578 118.293 24.9298 118.565C25.0018 118.836 25.3785 119.036 25.4173 119.313C25.4561 119.59 25.1403 119.867 25.1403 120.16C25.1403 120.454 25.4506 120.714 25.4173 121.008C25.3841 121.301 25.0018 121.49 24.9298 121.756C24.8578 122.022 25.0849 122.393 24.9797 122.648C24.8744 122.903 24.4257 123.008 24.3149 123.246C24.2041 123.484 24.3149 123.9 24.1265 124.116C23.9382 124.332 23.5282 124.326 23.3343 124.52C23.1404 124.714 23.146 125.146 22.9299 125.318C22.7138 125.49 22.2928 125.362 22.0546 125.501C21.8164 125.639 21.7167 126.055 21.4618 126.166C21.207 126.276 20.8358 126.044 20.5699 126.116C20.304 126.188 20.099 126.564 19.822 126.603C19.545 126.642 19.268 126.326 18.9744 126.326C18.6808 126.326 18.4204 126.636 18.1268 126.603C17.8332 126.57 17.6393 126.188 17.3789 126.116C17.1185 126.044 16.7418 126.271 16.487 126.166C16.2321 126.06 16.1269 125.639 15.8886 125.501C15.6504 125.362 15.2349 125.501 15.0189 125.312C14.8028 125.124 14.8084 124.714 14.6145 124.52C14.4206 124.326 13.9884 124.337 13.8167 124.116C13.645 123.894 13.7724 123.484 13.6339 123.24C13.4954 122.997 13.0799 122.903 12.9691 122.648C12.8583 122.393 13.091 122.027 13.019 121.756C12.9469 121.484 12.5647 121.285 12.5314 121.008C12.4982 120.731 12.8084 120.443 12.8084 120.16ZM25.5503 123.678C25.5503 123.495 25.229 123.29 25.2511 123.124C25.2733 122.958 25.6389 122.825 25.6832 122.648C25.7276 122.47 25.4783 122.193 25.5447 122.027C25.6112 121.861 25.9935 121.839 26.0987 121.684C26.204 121.529 26.0156 121.185 26.0987 121.041C26.1818 120.897 26.5807 120.98 26.7081 120.853C26.8355 120.725 26.758 120.349 26.902 120.238C27.0461 120.127 27.384 120.304 27.5391 120.21C27.6942 120.116 27.7164 119.745 27.8826 119.656C28.0488 119.567 28.3313 119.839 28.5086 119.795C28.6859 119.75 28.7967 119.385 28.9795 119.363C29.1623 119.34 29.3618 119.656 29.5335 119.656C29.7052 119.656 29.9213 119.34 30.0875 119.363C30.2537 119.385 30.3866 119.745 30.5639 119.795C30.7412 119.844 31.0182 119.584 31.1899 119.656C31.3617 119.728 31.3728 120.105 31.5334 120.21C31.6941 120.315 32.0265 120.133 32.1705 120.243C32.3145 120.354 32.2314 120.72 32.3644 120.853C32.4974 120.986 32.863 120.897 32.9738 121.041C33.0846 121.185 32.9073 121.523 33.0015 121.684C33.0957 121.844 33.4724 121.855 33.5555 122.027C33.6386 122.199 33.3727 122.476 33.417 122.653C33.4613 122.831 33.8269 122.941 33.8491 123.124C33.8713 123.307 33.5555 123.506 33.5555 123.678C33.5555 123.85 33.8713 124.071 33.8491 124.232C33.8269 124.393 33.4668 124.531 33.417 124.703C33.3671 124.875 33.6275 125.163 33.5555 125.329C33.4835 125.495 33.1068 125.517 33.0015 125.672C32.8962 125.828 33.0846 126.166 32.9738 126.31C32.863 126.454 32.4918 126.376 32.3589 126.503C32.2259 126.631 32.3145 127.002 32.1705 127.113C32.0265 127.224 31.6885 127.052 31.5279 127.141C31.3672 127.229 31.3561 127.611 31.1844 127.695C31.0127 127.778 30.7412 127.506 30.5639 127.556C30.3866 127.606 30.2703 127.96 30.0875 127.988C29.9047 128.016 29.7052 127.689 29.5335 127.689C29.3618 127.689 29.1457 128.01 28.9795 127.988C28.8133 127.966 28.6859 127.6 28.5086 127.556C28.3313 127.512 28.0488 127.761 27.8826 127.695C27.7164 127.628 27.6998 127.246 27.5391 127.141C27.3785 127.035 27.0461 127.224 26.902 127.113C26.758 127.002 26.8355 126.631 26.7081 126.503C26.5807 126.376 26.2095 126.454 26.0987 126.31C25.9879 126.166 26.1597 125.828 26.0987 125.672C26.0378 125.517 25.6278 125.495 25.5447 125.329C25.4616 125.163 25.7331 124.88 25.6832 124.703C25.6334 124.526 25.2788 124.415 25.2511 124.232C25.2234 124.049 25.5503 123.866 25.5503 123.678ZM12.0827 73.0044C12.0827 72.7218 11.7669 72.4227 11.8057 72.1512C11.8445 71.8797 12.2212 71.6692 12.2877 71.4033C12.3542 71.1374 12.1381 70.7662 12.2434 70.5169C12.3486 70.2676 12.7974 70.1568 12.9082 69.9186C13.019 69.6804 12.9082 69.2649 13.091 69.0488C13.2738 68.8328 13.6948 68.8383 13.8887 68.6444C14.0826 68.4505 14.0715 68.0184 14.2931 67.8467C14.5147 67.6749 14.9247 67.8024 15.1629 67.6639C15.4011 67.5254 15.5008 67.1099 15.7612 66.9991C16.0216 66.8883 16.3817 67.1154 16.6476 67.0434C16.9135 66.9714 17.1185 66.5946 17.3955 66.5614C17.6725 66.5282 17.9495 66.8384 18.2486 66.8384C18.5478 66.8384 18.8026 66.5226 19.0963 66.5614C19.3899 66.6002 19.5782 66.9769 19.8441 67.0434C20.1101 67.1099 20.4812 66.8938 20.7361 66.9991C20.9909 67.1043 21.0906 67.5254 21.3289 67.6639C21.5671 67.8024 21.9826 67.6639 22.2042 67.8467C22.4258 68.0295 22.4091 68.4505 22.603 68.6444C22.7969 68.8383 23.2346 68.8272 23.4008 69.0488C23.567 69.2704 23.4451 69.6804 23.5836 69.9186C23.7221 70.1568 24.1376 70.2565 24.2484 70.5169C24.3592 70.7773 24.1321 71.1374 24.2041 71.4033C24.2761 71.6692 24.6528 71.8797 24.6861 72.1567C24.7193 72.4337 24.4091 72.7107 24.4091 73.0044C24.4091 73.298 24.7248 73.5583 24.6861 73.852C24.6473 74.1456 24.2706 74.3339 24.2041 74.5998C24.1376 74.8658 24.3537 75.2369 24.2484 75.4918C24.1431 75.7466 23.6944 75.8463 23.5836 76.0846C23.4728 76.3228 23.5836 76.7383 23.4008 76.9599C23.218 77.1815 22.8025 77.1648 22.603 77.3643C22.4036 77.5637 22.4202 77.9903 22.1986 78.1565C21.977 78.3227 21.5671 78.2008 21.3289 78.3448C21.0906 78.4889 20.9909 78.8988 20.7305 79.0041C20.4702 79.1094 20.1101 78.8878 19.8441 78.9598C19.5782 79.0318 19.3733 79.4085 19.0963 79.4473C18.8193 79.4861 18.5423 79.1648 18.2486 79.1648C17.955 79.1648 17.6947 79.4805 17.3955 79.4418C17.0963 79.403 16.9135 79.0263 16.6476 78.9598C16.3817 78.8933 16.0105 79.1094 15.7612 79.0041C15.5119 78.8988 15.4011 78.4778 15.1629 78.3393C14.9247 78.2008 14.5092 78.3393 14.2876 78.1565C14.066 77.9737 14.0826 77.5582 13.8887 77.3587C13.6948 77.1593 13.2572 77.1759 13.091 76.9599C12.9248 76.7438 13.0467 76.3228 12.9082 76.0846C12.7697 75.8463 12.3542 75.7466 12.2434 75.4918C12.1326 75.2369 12.3597 74.8658 12.2877 74.5998C12.2157 74.3339 11.839 74.129 11.8057 73.852C11.7725 73.575 12.0827 73.2813 12.0827 73.0044ZM0.797861 84.2837C0.797861 84.0067 0.487624 83.7297 0.520864 83.436C0.554103 83.1424 0.936357 82.9541 1.00838 82.6882C1.0804 82.4222 0.85326 82.0511 0.958519 81.7962C1.06378 81.5414 1.51251 81.4417 1.62331 81.2035C1.73411 80.9652 1.62331 80.5497 1.80613 80.3281C1.98895 80.1065 2.40998 80.1232 2.60388 79.9237C2.79778 79.7243 2.7867 79.2977 3.00829 79.1315C3.22989 78.9653 3.63984 79.0817 3.87806 78.9432C4.11628 78.8047 4.22154 78.3892 4.47638 78.2839C4.73121 78.1786 5.09685 78.4002 5.36831 78.3282C5.63976 78.2562 5.8392 77.8795 6.1162 77.8407C6.39319 77.8019 6.67019 78.1232 6.9638 78.1232C7.25742 78.1232 7.5178 77.8075 7.81142 77.8407C8.10503 77.874 8.29339 78.2562 8.55931 78.3282C8.82522 78.4002 9.1964 78.1786 9.45124 78.2839C9.70608 78.3892 9.80579 78.8102 10.044 78.9432C10.2822 79.0761 10.6977 78.9432 10.9193 79.1315C11.1409 79.3199 11.1298 79.7298 11.3237 79.9293C11.5176 80.1287 11.9497 80.1121 12.1159 80.3281C12.2821 80.5442 12.1658 80.9652 12.3043 81.2035C12.4428 81.4417 12.8583 81.5414 12.9691 81.7962C13.0799 82.0511 12.8472 82.4222 12.9192 82.6882C12.9913 82.9541 13.368 83.159 13.4068 83.436C13.4455 83.713 13.1298 83.99 13.1298 84.2837C13.1298 84.5773 13.44 84.8653 13.4068 85.1313C13.3735 85.3972 12.9913 85.6188 12.9192 85.8847C12.8472 86.1506 13.0744 86.5218 12.9691 86.7711C12.8638 87.0204 12.4151 87.1312 12.3043 87.3694C12.1935 87.6076 12.3043 88.0231 12.1159 88.2392C11.9276 88.4552 11.5176 88.4497 11.3237 88.6436C11.1298 88.8375 11.1354 89.2696 10.9193 89.4413C10.7033 89.6131 10.2878 89.4857 10.044 89.6242C9.80025 89.7626 9.70608 90.1781 9.45124 90.2889C9.1964 90.3997 8.82522 90.1671 8.55931 90.2391C8.29339 90.3111 8.08841 90.6934 7.81142 90.7266C7.53442 90.7598 7.25742 90.4496 6.9638 90.4496C6.67019 90.4496 6.40981 90.7654 6.1162 90.7266C5.82258 90.6878 5.62868 90.3111 5.36831 90.2391C5.10793 90.1671 4.73121 90.3942 4.47638 90.2889C4.22154 90.1837 4.11628 89.7626 3.87806 89.6242C3.63984 89.4857 3.22435 89.6242 3.00829 89.4413C2.79224 89.2585 2.79778 88.8375 2.60388 88.6436C2.40998 88.4497 1.97787 88.4608 1.80613 88.2392C1.63439 88.0176 1.76181 87.6076 1.62331 87.3694C1.48481 87.1312 1.06932 87.0315 0.958519 86.7711C0.84772 86.5107 1.0804 86.1506 1.00838 85.8792C0.936357 85.6077 0.554103 85.4083 0.520864 85.1313C0.487624 84.8543 0.797861 84.5662 0.797861 84.2837Z" fill="white"/>
<path d="M65.8644 158.175L48.3083 157.522C48.1278 157.511 47.9472 157.539 47.7782 157.603C47.6092 157.667 47.4556 157.767 47.3275 157.894C47.1994 158.022 47.0997 158.175 47.0348 158.344C46.9699 158.512 46.9414 158.693 46.9511 158.873C46.9503 158.953 46.9667 159.032 46.9993 159.105C47.0318 159.178 47.0797 159.243 47.1397 159.295C47.1997 159.348 47.2703 159.387 47.3467 159.41C47.4232 159.433 47.5036 159.439 47.5826 159.427C48.2535 159.453 48.92 159.31 49.5216 159.012L63.3714 163.167C63.3714 163.167 67.9419 164.269 65.8644 158.175Z" fill="#263238" stroke="#263238" stroke-linecap="round" stroke-linejoin="round"/>
<path d="M65.1719 143.217V159.56L41.2117 172.025C41.2117 172.025 39.4112 174.518 41.4887 174.795C41.8102 174.872 42.1447 174.877 42.4684 174.81C42.7922 174.743 43.0971 174.605 43.3616 174.407C43.6261 174.208 43.8436 173.954 43.9986 173.662C44.1537 173.37 44.2425 173.048 44.2586 172.717C44.2586 172.717 70.2963 164.823 70.8503 164.823C71.4043 164.823 96.057 171.471 96.057 171.471C96.057 171.471 95.0875 172.579 96.888 173.133C98.6885 173.687 98.827 171.471 98.273 170.64C97.719 169.809 71.4043 158.452 71.4043 158.452V143.633L65.1719 143.217Z" fill="#263238" stroke="#263238" stroke-linecap="round" stroke-linejoin="round"/>
<path d="M103.026 107.551C101.835 107.361 100.683 106.974 99.6192 106.405C97.5647 105.25 95.6292 103.895 93.841 102.361C89.2595 98.4604 84.8276 90.4496 80.9496 86.1562C77.0716 81.8627 69.5927 79.5083 58.9284 80.6163C48.264 81.7242 42.8626 86.0177 40.7851 91.5576C38.7076 97.0976 38.4306 102.361 36.2146 107.208C33.9987 112.055 29.2897 113.856 30.1207 118.842C30.9517 123.828 35.7991 131.999 45.771 138.37C55.7429 144.741 67.5153 147.095 80.6726 145.71C93.8299 144.326 99.2314 138.647 103.802 131.999C108.372 125.351 108.926 117.457 108.234 113.302C107.658 109.767 105.264 107.939 103.026 107.551Z" fill="white" stroke="#263238" stroke-linecap="round" stroke-linejoin="round"/>
<path opacity="0.17" d="M52.5297 87.6242C50.3276 88.5966 48.3194 89.9592 46.602 91.6462C41.738 96.3773 43.8321 102.909 42.2753 108.82C41.7087 110.876 40.9308 112.868 39.9541 114.764C39.9541 114.764 41.8598 126.642 49.4939 131.307C57.1279 135.971 69.4376 139.151 79.8139 137.24C90.1902 135.329 95.7135 129.822 98.2564 125.157C100.799 120.493 99.7189 112.864 93.1375 108.432C86.556 104 82.3235 95.0754 76.3847 90.8374C69.3157 85.7628 60.1139 84.2725 52.5297 87.6242Z" fill="black"/>
<path d="M105.07 108.322C104.556 108.33 104.044 108.374 103.536 108.455C103.536 108.455 100.489 108.316 98.55 113.163C96.611 118.011 97.996 123.412 95.503 127.29C93.0101 131.168 91.0711 131.584 75.1438 131.722C59.2165 131.861 53.6765 134.631 47.3056 126.321C40.9347 118.011 43.4277 113.856 38.1647 111.917C35.5665 110.959 33.8823 111.285 32.6248 112.244C30.9628 114.177 29.6388 115.989 30.1152 118.842C30.9462 123.828 35.7936 131.999 45.7655 138.37C55.7374 144.741 67.5097 147.096 80.6671 145.711C93.8244 144.326 99.2259 138.647 103.796 131.999C108.367 125.351 108.921 117.457 108.228 113.302C108.1 112.291 107.75 111.32 107.205 110.46C106.659 109.599 105.93 108.869 105.07 108.322Z" fill="white"/>
<mask id="mask1_129_12483" style="mask-type:luminance" maskUnits="userSpaceOnUse" x="30" y="108" width="79" height="39">
<path d="M105.07 108.322C104.556 108.33 104.044 108.374 103.536 108.455C103.536 108.455 100.489 108.316 98.55 113.163C96.611 118.011 97.996 123.412 95.503 127.29C93.0101 131.168 91.0711 131.584 75.1438 131.722C59.2165 131.861 53.6765 134.631 47.3056 126.321C40.9347 118.011 43.4277 113.856 38.1647 111.917C35.5665 110.959 33.8823 111.285 32.6248 112.244C30.9628 114.177 29.6388 115.989 30.1152 118.842C30.9462 123.828 35.7936 131.999 45.7655 138.37C55.7374 144.741 67.5097 147.096 80.6671 145.711C93.8244 144.326 99.2259 138.647 103.796 131.999C108.367 125.351 108.921 117.457 108.228 113.302C108.1 112.291 107.75 111.32 107.205 110.46C106.659 109.599 105.93 108.869 105.07 108.322Z" fill="white"/>
</mask>
<g mask="url(#mask1_129_12483)">
<path opacity="0.17" d="M105.07 108.322C104.556 108.33 104.044 108.374 103.536 108.455C103.536 108.455 100.489 108.316 98.55 113.163C96.611 118.011 97.996 123.412 95.503 127.29C93.0101 131.168 91.0711 131.584 75.1438 131.722C59.2165 131.861 53.6765 134.631 47.3056 126.321C40.9347 118.011 43.4277 113.856 38.1647 111.917C35.5665 110.959 33.8823 111.285 32.6248 112.244C30.9628 114.177 29.6388 115.989 30.1152 118.842C30.9462 123.828 35.7936 131.999 45.7655 138.37C55.7374 144.741 67.5097 147.096 80.6671 145.711C93.8244 144.326 99.2259 138.647 103.796 131.999C108.367 125.351 108.921 117.457 108.228 113.302C108.1 112.291 107.75 111.32 107.205 110.46C106.659 109.599 105.93 108.869 105.07 108.322Z" fill="black"/>
</g>
<path d="M105.07 108.322C104.556 108.33 104.044 108.374 103.536 108.455C103.536 108.455 100.489 108.316 98.55 113.163C96.611 118.011 97.996 123.412 95.503 127.29C93.0101 131.168 91.0711 131.584 75.1438 131.722C59.2165 131.861 53.6765 134.631 47.3056 126.321C40.9347 118.011 43.4277 113.856 38.1647 111.917C35.5665 110.959 33.8823 111.285 32.6248 112.244C30.9628 114.177 29.6388 115.989 30.1152 118.842C30.9462 123.828 35.7936 131.999 45.7655 138.37C55.7374 144.741 67.5097 147.096 80.6671 145.711C93.8244 144.326 99.2259 138.647 103.796 131.999C108.367 125.351 108.921 117.457 108.228 113.302C108.1 112.291 107.75 111.32 107.205 110.46C106.659 109.599 105.93 108.869 105.07 108.322Z" stroke="#263238" stroke-linecap="round" stroke-linejoin="round"/>
<path d="M58.2359 102.892C58.2359 102.892 51.865 109.817 50.0645 116.465C48.264 123.113 51.1725 130.453 56.2969 132.254C61.4213 134.054 68.9002 131.561 72.3627 130.176C75.8252 128.791 80.9496 131.284 86.628 131.423C92.3065 131.561 93.1375 120.227 91.7636 113.418C90.3897 106.61 84.2846 100.538 78.3292 99.5683C72.3738 98.5988 61.2939 99.175 58.2359 102.892Z" fill="#263238" stroke="#263238" stroke-linecap="round" stroke-linejoin="round"/>
<path d="M79.4704 60.2346C79.4704 60.2346 84.955 62.9271 87.6474 63.6472C90.3398 64.3674 96.5445 64.373 96.8548 66.6499C97.165 68.9268 95.9241 81.3418 95.1928 85.3749C94.4615 89.4079 94.3673 95.4132 94.7773 96.9644C95.1872 98.5156 96.4393 100.997 94.9878 103.485C93.5363 105.972 92.7109 109.174 89.398 108.654C86.0851 108.133 85.2597 105.756 85.2597 105.756L65.0888 108.244C65.0888 108.244 63.5321 100.067 61.7648 92.8261C59.9976 85.5854 56.3855 75.2368 56.6958 70.273C57.006 65.3092 63.4213 62.2013 67.8698 60.7554C72.3184 59.3095 79.4704 60.2346 79.4704 60.2346Z" fill="#4CAF4F"/>
<mask id="mask2_129_12483" style="mask-type:luminance" maskUnits="userSpaceOnUse" x="56" y="59" width="41" height="50">
<path d="M79.4704 60.2346C79.4704 60.2346 84.955 62.9271 87.6474 63.6472C90.3398 64.3674 96.5445 64.373 96.8548 66.6499C97.165 68.9268 95.9241 81.3418 95.1928 85.3749C94.4615 89.4079 94.3673 95.4132 94.7773 96.9644C95.1872 98.5156 96.4393 100.997 94.9878 103.485C93.5363 105.972 92.7109 109.174 89.398 108.654C86.0851 108.133 85.2597 105.756 85.2597 105.756L65.0888 108.244C65.0888 108.244 63.5321 100.067 61.7648 92.8261C59.9976 85.5854 56.3855 75.2368 56.6958 70.273C57.006 65.3092 63.4213 62.2013 67.8698 60.7554C72.3184 59.3095 79.4704 60.2346 79.4704 60.2346Z" fill="white"/>
</mask>
<g mask="url(#mask2_129_12483)">
<path opacity="0.17" d="M94.456 73.73C93.9352 75.392 91.5475 81.4139 91.5475 81.4139C91.5475 81.4139 92.4948 75.8739 93.1319 71.442C93.769 67.01 93.9241 67.4865 91.8633 67.4865C89.8024 67.4865 86.1627 65.7414 84.8996 65.1098C83.6365 64.4783 84.2625 65.902 82.9994 64.9492C81.7363 63.9963 79.8305 60.9937 79.8305 60.9937C76.3459 60.2014 62.4185 61.9465 61.1499 65.902C60.3023 68.5446 60.7288 82.1895 61.7039 92.5768L61.7703 92.8372C62.967 97.7677 64.0694 103.125 64.6511 106.044C65.189 106.829 65.8625 107.512 66.6399 108.061L85.1045 105.79C87.3981 103.319 89.1819 99.8618 89.7913 99.1417C90.506 98.3162 92.7995 96.7706 92.9602 95.3413C93.1208 93.9119 92.3286 84.1007 93.1208 80.6217C93.7358 77.9625 94.2454 74.849 94.456 73.73ZM89.9631 89.7958C87.9078 92.4882 82.3623 90.588 79.199 89.48C76.0357 88.372 73.1826 91.696 69.698 90.9038C66.2134 90.1116 70.4902 85.0481 74.9221 84.8874C79.3541 84.7267 78.2461 84.5716 82.2072 79.8239C86.1682 75.0762 88.5393 79.3475 90.1237 82.9872C90.584 84.0689 90.8078 85.2364 90.7801 86.4116C90.7524 87.5868 90.4738 88.7425 89.9631 89.8013V89.7958Z" fill="black"/>
<path d="M94.6831 66.7607C94.6831 66.7607 94.5778 71.6193 93.7524 74.2064C92.9269 76.7936 91.4755 81.3474 91.4755 83.9345C91.4755 86.5217 91.9907 90.2445 91.1652 92.6267C90.3398 95.0089 86.6114 98.7206 86.6114 102.349" stroke="#263238" stroke-linecap="round" stroke-linejoin="round"/>
</g>
<path d="M79.4704 60.2346C79.4704 60.2346 84.955 62.9271 87.6474 63.6472C90.3398 64.3674 96.5445 64.373 96.8548 66.6499C97.165 68.9268 95.9241 81.3418 95.1928 85.3749C94.4615 89.4079 94.3673 95.4132 94.7773 96.9644C95.1872 98.5156 96.4393 100.997 94.9878 103.485C93.5363 105.972 92.7109 109.174 89.398 108.654C86.0851 108.133 85.2597 105.756 85.2597 105.756L65.0888 108.244C65.0888 108.244 63.5321 100.067 61.7648 92.8261C59.9976 85.5854 56.3855 75.2368 56.6958 70.273C57.006 65.3092 63.4213 62.2013 67.8698 60.7554C72.3184 59.3095 79.4704 60.2346 79.4704 60.2346Z" stroke="#263238" stroke-linecap="round" stroke-linejoin="round"/>
<path d="M63.4379 85.7961C63.4379 85.7961 64.0584 93.1421 64.6788 96.455C65.045 98.3671 65.2874 100.301 65.4046 102.244C65.4046 102.244 67.8865 101.729 68.4017 103.696C68.6778 104.845 68.6201 106.049 68.2354 107.167C67.8507 108.285 67.155 109.27 66.23 110.006C64.1581 111.557 61.3659 112.593 59.2995 111.972C57.2332 111.352 56.5296 106.178 56.5296 102.97C56.5296 99.7623 56.5296 95.624 55.5989 93.2473C54.6682 90.8707 57.3329 83.1037 63.4379 85.7961Z" fill="#4CAF4F"/>
<mask id="mask3_129_12483" style="mask-type:luminance" maskUnits="userSpaceOnUse" x="55" y="85" width="14" height="28">
<path d="M63.4379 85.7961C63.4379 85.7961 64.0584 93.1421 64.6788 96.455C65.045 98.3671 65.2874 100.301 65.4046 102.244C65.4046 102.244 67.8865 101.729 68.4017 103.696C68.6778 104.845 68.6201 106.049 68.2354 107.167C67.8507 108.285 67.155 109.27 66.23 110.006C64.1581 111.557 61.3659 112.593 59.2995 111.972C57.2332 111.352 56.5296 106.178 56.5296 102.97C56.5296 99.7623 56.5296 95.624 55.5989 93.2473C54.6682 90.8707 57.3329 83.1037 63.4379 85.7961Z" fill="white"/>
</mask>
<g mask="url(#mask3_129_12483)">
<path opacity="0.17" d="M65.8034 105.302C64.291 105.635 60.9394 106.139 60.6014 104.798C60.2635 103.458 62.5072 101.934 62.5072 101.934L64.291 102.111V100.937C64.291 100.937 63.4545 94.0618 62.629 91.519C61.8036 88.9761 57.2608 91.519 55.5822 93.2197C56.5185 95.5964 56.5185 99.7347 56.5185 102.942C56.5185 106.15 57.2387 111.324 59.2885 111.945C61.3382 112.565 64.147 111.529 66.2189 109.978C67.3005 109.139 68.0612 107.954 68.374 106.621C68.1131 106.181 67.7334 105.824 67.2787 105.591C66.8239 105.358 66.3126 105.258 65.8034 105.302Z" fill="black"/>
</g>
<path d="M63.4379 85.7961C63.4379 85.7961 64.0584 93.1421 64.6788 96.455C65.045 98.3671 65.2874 100.301 65.4046 102.244C65.4046 102.244 67.8865 101.729 68.4017 103.696C68.6778 104.845 68.6201 106.049 68.2354 107.167C67.8507 108.285 67.155 109.27 66.23 110.006C64.1581 111.557 61.3659 112.593 59.2995 111.972C57.2332 111.352 56.5296 106.178 56.5296 102.97C56.5296 99.7623 56.5296 95.624 55.5989 93.2473C54.6682 90.8707 57.3329 83.1037 63.4379 85.7961Z" stroke="#263238" stroke-linecap="round" stroke-linejoin="round"/>
<path d="M65.9198 102.554C64.7692 102.427 63.6289 102.22 62.5072 101.934C60.33 101.419 58.9893 102.455 58.5738 105.352" stroke="#263238" stroke-linecap="round" stroke-linejoin="round"/>
<path d="M69.2327 64.6667C69.2327 64.6667 68.9224 69.2205 68.1967 73.2536C67.8072 75.5944 67.0003 77.8461 65.8145 79.9015C65.8145 79.9015 65.8145 70.6942 64.3686 66.2456C62.9227 61.797 63.4379 58.5894 65.6095 59.5977C67.7812 60.6059 69.2327 64.6667 69.2327 64.6667Z" fill="#263238" stroke="#263238" stroke-linecap="round" stroke-linejoin="round"/>
<path d="M68.0914 64.9991C67.914 66.8915 67.914 68.7963 68.0914 70.6886C68.2524 72.1854 68.5303 73.6672 68.9224 75.1206L71.8143 72.1235L70.5733 75.7466L77.0717 79.896L81.1047 73.6913L78.7337 70.9989C78.7337 70.9989 82.4565 73.0708 82.7667 72.9656C83.077 72.8603 82.2515 67.7913 80.4898 64.6889C78.7281 61.5865 73.7643 59.703 72.1079 60.2569C70.4514 60.8109 67.7812 63.448 68.0914 64.9991Z" fill="#4CAF4F" stroke="#263238" stroke-linecap="round" stroke-linejoin="round"/>
<path d="M71.5317 68.4173C71.5317 68.4173 74.8557 78.2451 76.2961 77.9349C77.7364 77.6246 78.4677 67.071 78.4677 67.071C77.4648 67.7572 76.332 68.2306 75.1391 68.4622C73.9462 68.6937 72.7185 68.6784 71.5317 68.4173Z" fill="white"/>
<mask id="mask4_129_12483" style="mask-type:luminance" maskUnits="userSpaceOnUse" x="71" y="67" width="8" height="11">
<path d="M71.5317 68.4173C71.5317 68.4173 74.8557 78.2451 76.2961 77.9349C77.7364 77.6246 78.4677 67.071 78.4677 67.071C77.4648 67.7572 76.332 68.2306 75.1391 68.4622C73.9462 68.6937 72.7185 68.6784 71.5317 68.4173Z" fill="white"/>
</mask>
<g mask="url(#mask4_129_12483)">
<path d="M71.5317 68.4173C71.5317 68.4173 74.8557 78.2451 76.2961 77.9349C77.7364 77.6246 78.4677 67.071 78.4677 67.071C77.4648 67.7572 76.332 68.2306 75.1391 68.4622C73.9462 68.6937 72.7185 68.6784 71.5317 68.4173Z" fill="#4CAF4F"/>
<path opacity="0.53" d="M71.5317 68.4173C71.5317 68.4173 74.8557 78.2451 76.2961 77.9349C77.7364 77.6246 78.4677 67.071 78.4677 67.071C77.4648 67.7572 76.332 68.2306 75.1391 68.4622C73.9462 68.6937 72.7185 68.6784 71.5317 68.4173Z" fill="white"/>
</g>
<path d="M71.5317 68.4173C71.5317 68.4173 74.8557 78.2451 76.2961 77.9349C77.7364 77.6246 78.4677 67.071 78.4677 67.071C77.4648 67.7572 76.332 68.2306 75.1391 68.4622C73.9462 68.6937 72.7185 68.6784 71.5317 68.4173Z" stroke="#263238" stroke-linecap="round" stroke-linejoin="round"/>
<path d="M63.0224 58.9994C63.0224 58.9994 66.712 65.6473 69.5429 67.8965C72.1799 69.9961 76.2683 70.8992 78.2295 68.517C80.1906 66.1348 80.7169 60.7611 80.6117 57.3429C80.5064 53.9248 78.0245 51.6534 75.2324 48.8613C72.4403 46.0692 68.1967 42.4461 65.4045 44.3075C62.6124 46.1689 62.1138 56.8277 63.0224 58.9994Z" fill="white"/>
<mask id="mask5_129_12483" style="mask-type:luminance" maskUnits="userSpaceOnUse" x="62" y="43" width="19" height="27">
<path d="M63.0224 58.9994C63.0224 58.9994 66.712 65.6473 69.5429 67.8965C72.1799 69.9961 76.2683 70.8992 78.2295 68.517C80.1906 66.1348 80.7169 60.7611 80.6117 57.3429C80.5064 53.9248 78.0245 51.6534 75.2324 48.8613C72.4403 46.0692 68.1967 42.4461 65.4045 44.3075C62.6124 46.1689 62.1138 56.8277 63.0224 58.9994Z" fill="white"/>
</mask>
<g mask="url(#mask5_129_12483)">
<path d="M78.2295 68.5447C78.2959 68.4671 78.3569 68.3785 78.4178 68.2954C77.3592 68.7297 76.2361 68.9861 75.0939 69.0544C71.3932 69.215 68.9999 65.8357 68.9999 65.8357C68.9999 65.8357 68.6786 65.3537 66.7507 61.8137C64.8228 58.2737 65.4378 48.4292 65.4378 48.4292C65.4378 48.4292 66.8837 50.3626 70.9057 51.3266C73.2312 51.8899 75.5992 52.2605 77.9857 52.4346L77.8361 51.5094C77.055 50.6396 76.1741 49.7699 75.2434 48.8447C72.4735 46.0747 68.2077 42.4295 65.4156 44.2909C62.6235 46.1523 62.0916 56.8111 63.0334 58.9828C63.0334 58.9828 66.723 65.6307 69.5539 67.8799C72.1798 69.9962 76.2683 70.8992 78.2295 68.5447Z" fill="#4CAF4F"/>
<path opacity="0.53" d="M78.2295 68.5447C78.2959 68.4671 78.3569 68.3785 78.4178 68.2954C77.3592 68.7297 76.2361 68.9861 75.0939 69.0544C71.3932 69.215 68.9999 65.8357 68.9999 65.8357C68.9999 65.8357 68.6786 65.3537 66.7507 61.8137C64.8228 58.2737 65.4378 48.4292 65.4378 48.4292C65.4378 48.4292 66.8837 50.3626 70.9057 51.3266C73.2312 51.8899 75.5992 52.2605 77.9857 52.4346L77.8361 51.5094C77.055 50.6396 76.1741 49.7699 75.2434 48.8447C72.4735 46.0747 68.2077 42.4295 65.4156 44.2909C62.6235 46.1523 62.0916 56.8111 63.0334 58.9828C63.0334 58.9828 66.723 65.6307 69.5539 67.8799C72.1798 69.9962 76.2683 70.8992 78.2295 68.5447Z" fill="white"/>
<path d="M67.0555 58.2737C67.0555 58.2737 69.4376 58.8942 70.3794 57.4482" stroke="#263238" stroke-linecap="round" stroke-linejoin="round"/>
<path d="M75.1271 56.4124C75.1271 56.4124 77.404 57.0329 78.3348 55.3044" stroke="#263238" stroke-linecap="round" stroke-linejoin="round"/>
<path d="M65.4045 56.2073C65.9835 55.6821 66.6805 55.3041 67.4366 55.1055C68.1927 54.9068 68.9855 54.8933 69.7478 55.0661" stroke="#263238" stroke-linecap="round" stroke-linejoin="round"/>
<path d="M74.1964 54.4456C74.1964 54.4456 75.1271 52.6894 78.1298 52.9996" stroke="#263238" stroke-linecap="round" stroke-linejoin="round"/>
<path d="M72.7505 61.6918C72.7505 61.6918 74.3017 62.3123 74.9221 60.9661" stroke="#263238" stroke-linecap="round" stroke-linejoin="round"/>
<path d="M72.6397 64.2734C72.6397 64.2734 75.3266 64.5892 76.4678 63.0325" stroke="#263238" stroke-linecap="round" stroke-linejoin="round"/>
</g>
<path d="M63.0224 58.9994C63.0224 58.9994 66.712 65.6473 69.5429 67.8965C72.1799 69.9961 76.2683 70.8992 78.2295 68.517C80.1906 66.1348 80.7169 60.7611 80.6117 57.3429C80.5064 53.9248 78.0245 51.6534 75.2324 48.8613C72.4403 46.0692 68.1967 42.4461 65.4045 44.3075C62.6124 46.1689 62.1138 56.8277 63.0224 58.9994Z" stroke="#263238" stroke-linecap="round" stroke-linejoin="round"/>
<path d="M65.7148 106.283C65.6599 105.036 65.7285 103.787 65.9198 102.554C66.23 100.892 66.8505 100.178 66.8505 98.3164C66.8505 96.455 66.9557 95.7292 68.1967 95.7292C69.4376 95.7292 71.8143 95.8345 71.9195 96.66C72.0248 97.4854 72.1245 98.0062 71.6093 97.9009C71.0941 97.7956 68.9224 97.6959 68.9224 97.6959L68.6122 98.5214C69.6308 98.8482 70.6312 99.2292 71.6093 99.6626C72.1245 99.9728 72.2298 102.244 72.2298 103.491C72.2815 104.045 72.1459 104.6 71.8446 105.069C71.5433 105.537 71.0937 105.89 70.5678 106.072C69.4321 106.488 68.3961 105.042 68.3961 105.042C68.3961 105.042 68.6066 106.593 67.4654 107.108C66.3242 107.623 65.4046 106.903 65.7148 106.283Z" fill="white" stroke="#263238" stroke-linecap="round" stroke-linejoin="round"/>
<path d="M70.4237 92.9758L68.5955 108.814C68.5713 109.025 68.5931 109.239 68.6595 109.441C68.7259 109.643 68.8353 109.828 68.9802 109.983C69.125 110.139 69.3018 110.261 69.4985 110.341C69.6951 110.421 69.9068 110.458 70.119 110.449L84.0963 109.845C84.4053 109.831 84.7021 109.72 84.9447 109.528C85.1874 109.337 85.3634 109.073 85.448 108.776L89.7969 93.2638C89.859 93.0437 89.8689 92.8122 89.8257 92.5876C89.7825 92.363 89.6875 92.1515 89.5481 91.9702C89.4087 91.7889 89.2289 91.6426 89.023 91.5431C88.817 91.4435 88.5907 91.3935 88.362 91.3969L71.8586 91.6573C71.4992 91.6623 71.1542 91.7996 70.8896 92.0428C70.6249 92.286 70.4591 92.6181 70.4237 92.9758Z" fill="white" stroke="#263238" stroke-linecap="round" stroke-linejoin="round"/>
<path opacity="0.17" d="M71.1329 93.613L69.4709 108.178C69.4482 108.372 69.4681 108.569 69.529 108.755C69.5899 108.941 69.6905 109.111 69.8238 109.255C69.957 109.398 70.1198 109.51 70.3009 109.585C70.482 109.659 70.677 109.693 70.8725 109.684L83.7251 109.13C84.0094 109.118 84.2825 109.015 84.5053 108.838C84.7281 108.661 84.8894 108.418 84.9661 108.144L88.9714 93.8955C89.0284 93.6927 89.0373 93.4794 88.9972 93.2726C88.9571 93.0658 88.8693 92.8712 88.7407 92.7044C88.612 92.5375 88.4462 92.4031 88.2564 92.3117C88.0666 92.2204 87.858 92.1746 87.6474 92.1782L72.4735 92.4164C72.1422 92.4169 71.8227 92.5391 71.5755 92.7597C71.3284 92.9803 71.1709 93.2839 71.1329 93.613Z" fill="black"/>
<path d="M70.7174 97.2139L69.4543 108.177" stroke="#263238" stroke-width="0.75" stroke-linecap="round" stroke-linejoin="round"/>
<path d="M73.3433 92.3997H72.4569C72.1285 92.4042 71.813 92.5282 71.5693 92.7484C71.3257 92.9686 71.1705 93.27 71.1329 93.5963L70.939 95.286" stroke="#263238" stroke-width="0.75" stroke-linecap="round" stroke-linejoin="round"/>
<path d="M91.9907 102.455C91.9907 102.455 90.3287 99.9729 89.0933 99.9729C87.8579 99.9729 82.2681 103.175 80.8166 104.111C79.3652 105.047 80.9219 105.452 80.9219 105.452C80.839 105.665 80.8243 105.899 80.8799 106.122C80.9354 106.344 81.0585 106.543 81.2321 106.693C81.5191 107.036 81.9243 107.26 82.3678 107.319C82.5678 107.636 82.8569 107.886 83.1988 108.039C83.7966 108.25 84.4265 108.355 85.0602 108.349C85.0602 108.349 85.5755 108.765 87.3371 108.765C89.0988 108.765 90.7497 108.66 91.7691 107.419C92.7884 106.178 92.7164 104.937 91.9907 102.455Z" fill="white" stroke="#263238" stroke-linecap="round" stroke-linejoin="round"/>
<path d="M80.9496 105.452C80.9496 105.452 87.5975 104.316 88.8108 103.075" stroke="#263238" stroke-linecap="round" stroke-linejoin="round"/>
<path d="M82.3679 107.324C82.3679 107.324 87.7471 106.493 89.4036 105.562" stroke="#263238" stroke-linecap="round" stroke-linejoin="round"/>
<path d="M85.0602 108.349C85.0602 108.349 88.3842 108.144 89.819 107.524" stroke="#263238" stroke-linecap="round" stroke-linejoin="round"/>
<path d="M55.4659 113.302C55.4659 113.302 76.9332 110.393 85.6585 111.363" stroke="white" stroke-miterlimit="10"/>
<path d="M83.8691 143.079C83.8691 143.079 89.8246 140.586 99.381 143.079C99.381 143.079 98.4115 144.602 92.3175 145.849C86.2236 147.095 83.8691 143.079 83.8691 143.079Z" fill="white" stroke="#263238" stroke-linecap="round" stroke-linejoin="round"/>
<path d="M84.3456 111.357C83.976 111.578 83.5865 111.763 83.1822 111.911C82.1906 112.271 80.1242 113.39 79.3043 116.604C78.1963 120.897 83.7362 132.531 84.4287 137.655C84.6988 140.033 85.1151 142.392 85.6752 144.719C85.6752 144.719 87.7527 145.273 91.2151 145.827C94.6776 146.381 95.9241 144.58 95.9241 144.58C95.9241 144.58 97.4475 131.838 95.2316 124.082C93.0156 116.327 92.6001 112.726 89.6916 111.618C87.6474 110.864 85.2652 110.82 84.3456 111.357Z" fill="white"/>
<mask id="mask6_129_12483" style="mask-type:luminance" maskUnits="userSpaceOnUse" x="79" y="110" width="18" height="36">
<path d="M84.3456 111.357C83.976 111.578 83.5865 111.763 83.1822 111.911C82.1906 112.271 80.1242 113.39 79.3043 116.604C78.1963 120.897 83.7362 132.531 84.4287 137.655C84.6988 140.033 85.1151 142.392 85.6752 144.719C85.6752 144.719 87.7527 145.273 91.2151 145.827C94.6776 146.381 95.9241 144.58 95.9241 144.58C95.9241 144.58 97.4475 131.838 95.2316 124.082C93.0156 116.327 92.6001 112.726 89.6916 111.618C87.6474 110.864 85.2652 110.82 84.3456 111.357Z" fill="white"/>
</mask>
<g mask="url(#mask6_129_12483)">
<path d="M95.1928 146.104C95.1928 146.104 95.8354 133.55 92.2954 123.096C88.7554 112.643 85.6974 112.958 83.1213 115.047C80.5452 117.135 80.3901 121.806 81.836 126.476C83.282 131.146 85.714 136.287 86.0187 140.63C86.3234 144.974 85.858 147.871 87.6308 148.032C89.4036 148.192 95.0322 149.317 95.1928 146.104Z" fill="#4CAF4F"/>
<path opacity="0.53" d="M95.1928 146.104C95.1928 146.104 95.8354 133.55 92.2954 123.096C88.7554 112.643 85.6974 112.958 83.1213 115.047C80.5452 117.135 80.3901 121.806 81.836 126.476C83.282 131.146 85.714 136.287 86.0187 140.63C86.3234 144.974 85.858 147.871 87.6308 148.032C89.4036 148.192 95.0322 149.317 95.1928 146.104Z" fill="white"/>
</g>
<path d="M84.3456 111.357C83.976 111.578 83.5865 111.763 83.1822 111.911C82.1906 112.271 80.1242 113.39 79.3043 116.604C78.1963 120.897 83.7362 132.531 84.4287 137.655C84.6988 140.033 85.1151 142.392 85.6752 144.719C85.6752 144.719 87.7527 145.273 91.2151 145.827C94.6776 146.381 95.9241 144.58 95.9241 144.58C95.9241 144.58 97.4475 131.838 95.2316 124.082C93.0156 116.327 92.6001 112.726 89.6916 111.618C87.6474 110.864 85.2652 110.82 84.3456 111.357Z" stroke="#263238" stroke-linecap="round" stroke-linejoin="round"/>
<path d="M83.8692 143.079C83.8692 143.079 93.4255 145.433 99.381 143.079C99.381 143.079 95.9185 159.145 93.4255 166.208C90.9326 173.271 91.0711 176.595 90.6556 180.473C90.2401 184.351 87.8856 191.138 84.8386 192.246C81.7917 193.354 81.5147 188.091 83.5922 182.966C85.6696 177.842 86.5006 171.61 85.6696 164.131C84.8386 156.652 83.8692 143.079 83.8692 143.079Z" fill="#4CAF4F"/>
<mask id="mask7_129_12483" style="mask-type:luminance" maskUnits="userSpaceOnUse" x="82" y="143" width="18" height="50">
<path d="M83.8692 143.079C83.8692 143.079 93.4255 145.433 99.381 143.079C99.381 143.079 95.9185 159.145 93.4255 166.208C90.9326 173.271 91.0711 176.595 90.6556 180.473C90.2401 184.351 87.8856 191.138 84.8386 192.246C81.7917 193.354 81.5147 188.091 83.5922 182.966C85.6696 177.842 86.5006 171.61 85.6696 164.131C84.8386 156.652 83.8692 143.079 83.8692 143.079Z" fill="white"/>
</mask>
<g mask="url(#mask7_129_12483)">
<path opacity="0.17" d="M96.3174 149.317C96.9525 147.46 97.4125 145.548 97.6913 143.605C93.902 144.519 89.2872 144.043 86.4619 143.605C86.7721 148.004 87.5366 160.147 87.1433 168.324C86.7001 177.715 84.4564 181.443 82.7113 185.653C82.2291 187.299 82.1269 189.032 82.4122 190.722C83.2875 191.481 84.9661 191.143 86.6502 189.725C89.7083 187.149 90.3509 177.975 90.6722 172.989C90.9935 168.003 94.8659 153.5 96.3174 149.317Z" fill="black"/>
</g>
<path d="M83.8692 143.079C83.8692 143.079 93.4255 145.433 99.381 143.079C99.381 143.079 95.9185 159.145 93.4255 166.208C90.9326 173.271 91.0711 176.595 90.6556 180.473C90.2401 184.351 87.8856 191.138 84.8386 192.246C81.7917 193.354 81.5147 188.091 83.5922 182.966C85.6696 177.842 86.5006 171.61 85.6696 164.131C84.8386 156.652 83.8692 143.079 83.8692 143.079Z" stroke="#263238" stroke-linecap="round" stroke-linejoin="round"/>
<path d="M93.7025 163.3L93.564 176.319L94.672 175.765L93.7025 163.3Z" fill="#4CAF4F" stroke="#263238" stroke-linecap="round" stroke-linejoin="round"/>
<path d="M93.9796 161.915L95.0875 174.518L96.057 173.826L93.9796 161.915Z" fill="#4CAF4F" stroke="#263238" stroke-linecap="round" stroke-linejoin="round"/>
<path d="M79.8416 143.888C79.8416 143.888 75.2712 141.533 65.1608 143.195C66.6055 145.204 68.7222 146.629 71.1273 147.212C75.1438 148.203 79.8416 143.888 79.8416 143.888Z" fill="white" stroke="#263238" stroke-linecap="round" stroke-linejoin="round"/>
<path d="M77.0716 112.31C77.0716 112.31 72.0857 110.233 68.4848 113.557C64.8838 116.881 65.9918 124.083 66.2688 125.467C66.5458 126.852 66.8228 128.376 66.8228 128.376L67.5153 145.965L77.2101 146.104C77.2101 146.104 79.0106 132.115 80.3956 126.021C81.7806 119.928 81.7917 115.241 77.0716 112.31Z" fill="white"/>
<mask id="mask8_129_12483" style="mask-type:luminance" maskUnits="userSpaceOnUse" x="65" y="111" width="17" height="36">
<path d="M77.0716 112.31C77.0716 112.31 72.0857 110.233 68.4848 113.557C64.8838 116.881 65.9918 124.083 66.2688 125.467C66.5458 126.852 66.8228 128.376 66.8228 128.376L67.5153 145.965L77.2101 146.104C77.2101 146.104 79.0106 132.115 80.3956 126.021C81.7806 119.928 81.7917 115.241 77.0716 112.31Z" fill="white"/>
</mask>
<g mask="url(#mask8_129_12483)">
<path d="M76.2019 116.188C70.5733 114.254 69.288 119.407 68.8005 123.911C68.313 128.415 68.3185 144.663 68.4792 145.633C68.5236 145.777 68.5993 145.909 68.7008 146.02L77.2212 146.142C77.2212 146.142 79.0217 132.154 80.4067 126.06C80.5008 125.634 80.5895 125.212 80.6726 124.803C80.7058 122.166 80.174 117.529 76.2019 116.188Z" fill="#4CAF4F"/>
<path opacity="0.53" d="M76.2019 116.188C70.5733 114.254 69.288 119.407 68.8005 123.911C68.313 128.415 68.3185 144.663 68.4792 145.633C68.5236 145.777 68.5993 145.909 68.7008 146.02L77.2212 146.142C77.2212 146.142 79.0217 132.154 80.4067 126.06C80.5008 125.634 80.5895 125.212 80.6726 124.803C80.7058 122.166 80.174 117.529 76.2019 116.188Z" fill="white"/>
</g>
<path d="M77.0716 112.31C77.0716 112.31 72.0857 110.233 68.4848 113.557C64.8838 116.881 65.9918 124.083 66.2688 125.467C66.5458 126.852 66.8228 128.376 66.8228 128.376L67.5153 145.965L77.2101 146.104C77.2101 146.104 79.0106 132.115 80.3956 126.021C81.7806 119.928 81.7917 115.241 77.0716 112.31Z" stroke="#263238" stroke-linecap="round" stroke-linejoin="round"/>
<path d="M65.1719 143.217C65.1719 143.217 66.9724 156.513 68.7728 162.607C70.5733 168.701 72.3738 175.903 72.3738 183.105C72.3738 190.307 78.1907 193.354 79.7142 191.969C81.2377 190.584 79.9912 183.659 78.7447 180.058C77.4982 176.457 75.8362 167.454 76.3902 162.746C76.9442 158.037 79.8416 143.888 79.8416 143.888C79.8416 143.888 70.1578 144.442 65.1719 143.217Z" fill="#4CAF4F"/>
<mask id="mask9_129_12483" style="mask-type:luminance" maskUnits="userSpaceOnUse" x="65" y="143" width="16" height="50">
<path d="M65.1719 143.217C65.1719 143.217 66.9724 156.513 68.7728 162.607C70.5733 168.701 72.3738 175.903 72.3738 183.105C72.3738 190.307 78.1907 193.354 79.7142 191.969C81.2377 190.584 79.9912 183.659 78.7447 180.058C77.4982 176.457 75.8362 167.454 76.3902 162.746C76.9442 158.037 79.8416 143.888 79.8416 143.888C79.8416 143.888 70.1578 144.442 65.1719 143.217Z" fill="white"/>
</mask>
<g mask="url(#mask9_129_12483)">
<path opacity="0.17" d="M74.9166 159.449C75.5592 147.544 78.6173 144.004 78.6173 144.004L78.3458 143.971C74.9165 144.112 71.4815 144.026 68.0637 143.71C68.2798 146.796 69.072 156.591 70.8337 164.823C72.9721 174.739 72.6452 180.368 74.2574 184.872C75.8695 189.376 79.2433 192.761 79.2433 189.055C79.2433 185.348 74.3017 171.36 74.9166 159.449Z" fill="black"/>
</g>
<path d="M65.1719 143.217C65.1719 143.217 66.9724 156.513 68.7728 162.607C70.5733 168.701 72.3738 175.903 72.3738 183.105C72.3738 190.307 78.1907 193.354 79.7142 191.969C81.2377 190.584 79.9912 183.659 78.7447 180.058C77.4982 176.457 75.8362 167.454 76.3902 162.746C76.9442 158.037 79.8416 143.888 79.8416 143.888C79.8416 143.888 70.1578 144.442 65.1719 143.217Z" stroke="#263238" stroke-linecap="round" stroke-linejoin="round"/>
<path d="M68.3573 160.114L67.8033 173.826L68.4958 174.103L68.3573 160.114Z" fill="#4CAF4F" stroke="#263238" stroke-linecap="round" stroke-linejoin="round"/>
<path d="M68.7728 160.668L69.3268 174.38L70.4348 173.41L68.7728 160.668Z" fill="#4CAF4F" stroke="#263238" stroke-linecap="round" stroke-linejoin="round"/>
<path d="M66.025 45.8587C66.025 45.8587 63.2274 55.066 65.194 62.9327C67.1607 70.7994 66.23 79.5858 66.025 84.4498C65.82 89.3139 64.0584 93.347 60.125 96.4549C56.1916 99.5628 50.9176 99.0365 46.9843 96.3496C43.0509 93.6627 41.8155 86.001 43.9872 80.6217C46.1588 75.2425 51.5381 65.8301 53.0893 60.9661C54.6405 56.102 53.7098 53.6201 54.1252 49.0663C54.5407 44.5124 57.2276 36.2358 62.8174 34.3744C68.4072 32.513 74.9222 32.6182 79.3707 38.618C83.8193 44.6177 84.2348 53.8251 84.6447 56.8277C85.0547 59.8304 86.3067 60.8608 88.7831 61.3815C91.2594 61.9023 90.855 63.6529 88.9936 63.8634C87.1322 64.074 82.2903 62.7942 80.9496 61.0325C79.6089 59.2708 80.7169 56.5175 78.44 53.8306C76.1631 51.1437 68.3019 50.1022 66.025 45.8587Z" fill="#263238" stroke="#263238" stroke-linecap="round" stroke-linejoin="round"/>
<path d="M63.9088 81.7241C63.9863 85.6409 63.7149 88.9925 62.8008 90.865C60.1084 96.4548 56.1529 96.4049 51.4439 95.574" stroke="white" stroke-linecap="round" stroke-linejoin="round"/>
<path d="M66.025 45.8586C66.025 45.8586 60.8784 51.5315 61.7094 59.0104C62.1692 63.1599 63.2883 70.7994 63.7315 77.7299" stroke="white" stroke-linecap="round" stroke-linejoin="round"/>
<path d="M49.0119 83.7185C47.6158 84.9761 46.7516 84.2171 46.7516 84.2171" stroke="white" stroke-linecap="round" stroke-linejoin="round"/>
<path d="M53.9535 58.7336C53.9535 58.7336 55.0615 71.1985 52.0145 78.6774C51.567 79.8153 51.026 80.9141 50.3969 81.9626" stroke="white" stroke-linecap="round" stroke-linejoin="round"/>
<path d="M79.8084 44.252C77.9582 42.3284 75.4532 41.1698 72.7893 41.0056C65.5874 40.4516 65.4045 44.3296 65.4045 44.3296C65.4045 44.3296 62.5404 37.9808 72.7893 37.6816" stroke="white" stroke-linecap="round" stroke-linejoin="round"/>
<path d="M82.2072 47.9305C81.9711 47.3251 81.6761 46.7443 81.3264 46.1965" stroke="white" stroke-linecap="round" stroke-linejoin="round"/>
</svg>
