<svg width="163" height="29" viewBox="0 0 163 29" fill="none" xmlns="http://www.w3.org/2000/svg">
<g clip-path="url(#clip0_129_12196)">
<mask id="mask0_129_12196" style="mask-type:luminance" maskUnits="userSpaceOnUse" x="0" y="0" width="163" height="29">
<path d="M162.313 0H0V28.1913H162.313V0Z" fill="white"/>
</mask>
<g mask="url(#mask0_129_12196)">
<mask id="mask1_129_12196" style="mask-type:luminance" maskUnits="userSpaceOnUse" x="0" y="0" width="30" height="29">
<path d="M29.4784 0H0V28.1913H29.4784V0Z" fill="white"/>
</mask>
<g mask="url(#mask1_129_12196)">
<mask id="mask2_129_12196" style="mask-type:luminance" maskUnits="userSpaceOnUse" x="0" y="0" width="30" height="29">
<path d="M29.4784 0H0V28.1913H29.4784V0Z" fill="white"/>
</mask>
<g mask="url(#mask2_129_12196)">
<mask id="mask3_129_12196" style="mask-type:luminance" maskUnits="userSpaceOnUse" x="10" y="1" width="20" height="28">
<path d="M10.4145 1.67798H29.4848V28.1763H10.4145V1.67798Z" fill="white"/>
</mask>
<g mask="url(#mask3_129_12196)">
<path fill-rule="evenodd" clip-rule="evenodd" d="M16.7222 12.3204C16.3278 12.1351 16.1642 11.6772 16.3582 11.3014L20.0467 4.18799L21.4827 4.86097L17.7942 11.9743C17.5993 12.3501 17.1176 12.5048 16.7222 12.3204ZM21.2105 1.79677L21.2325 1.81426C27.4356 5.03837 29.9151 12.3694 26.7599 18.4549C25.8349 20.2387 24.5258 21.7227 22.9739 22.8616C20.3583 24.78 17.0541 25.716 13.7399 25.4512L17.7409 17.7349C18.3386 16.6248 18.5996 16.4413 19.723 15.9929C20.9007 15.5218 21.3053 15.4266 21.9351 14.3865C23.1395 12.3991 24.4356 8.75456 25.2483 6.61419L24.2803 6.18331C23.2579 8.31323 22.7303 9.5796 21.6601 11.5706C19.1954 16.1572 18.8349 13.8333 17.0376 15.5586C16.8298 15.7578 16.0585 17.0705 15.141 18.7224L10.8861 26.9299L10.4991 27.6763C14.5535 28.7558 19.0621 28.2077 22.8369 25.8086C25.4148 24.1708 27.2848 21.9028 28.3706 19.3631C28.3144 19.4889 28.2556 19.6138 28.1949 19.7388C31.4164 13.1079 28.503 5.20707 21.5718 1.95934C21.4514 1.90341 21.3311 1.84921 21.2105 1.7959V1.79677ZM18.7752 13.2818C18.3807 13.0974 18.2162 12.6386 18.4111 12.2636L22.0996 5.14938L23.5347 5.82147L19.8462 12.9357C19.6522 13.3106 19.1696 13.4662 18.7752 13.2809V13.2818Z" fill="#C4AB62"/>
</g>
<mask id="mask4_129_12196" style="mask-type:luminance" maskUnits="userSpaceOnUse" x="0" y="-1" width="20" height="28">
<path d="M0.0652161 -0.0148926H19.4169V26.0656H0.0652161V-0.0148926Z" fill="white"/>
</mask>
<g mask="url(#mask4_129_12196)">
<path fill-rule="evenodd" clip-rule="evenodd" d="M0.852157 12.8369L1.10314 12.5293C1.28609 12.2549 1.20059 12.4201 1.37435 12.0827L2.39576 10.0821C3.64241 7.96797 6.66253 4.2754 10.1487 3.26856C7.77863 4.87841 4.31448 7.14991 2.05008 13.0651C0.00542272 18.4034 1.36608 22.4805 4.12876 24.4155C6.68735 26.2071 9.98049 26.6495 11.2805 24.2442C12.2955 22.3669 13.3932 20.3366 14.4551 18.3728C15.2742 16.6746 15.9003 15.2937 15.9398 15.0158C16.2846 12.6106 14.1259 13.7537 16.4519 9.10153C17.4613 7.08173 18.1959 5.91324 19.3506 3.84538L18.4019 3.3778C17.1102 5.29444 14.8605 8.4915 13.9356 10.61C13.452 11.7182 13.6175 12.0809 13.942 13.2564C14.2518 14.376 14.2574 14.6854 13.6956 15.812L10.522 21.6895C9.04184 24.4313 6.14585 23.7023 4.27678 21.6721C2.77638 20.0421 2.17144 17.4674 3.09357 14.6994C4.67211 13.8639 6.703 14.0203 8.92232 12.6368C12.6457 10.3155 13.269 3.77545 17.5368 0.976964C12.7744 -2.48577 -3.61226 3.51327 0.852157 12.8369Z" fill="#4CAF4F"/>
</g>
</g>
</g>
<path d="M36.7927 11.1322C36.6147 11.1429 36.4251 11.1465 36.2241 11.1465C36.0213 11.1465 35.7199 11.1322 35.3219 11.1035V15.4726H32.9715V4.24911C33.7998 4.14529 34.8177 4.09155 36.027 4.09155C37.6741 4.09155 38.9024 4.38165 39.7118 4.95819C40.5194 5.5312 40.9248 6.41754 40.9248 7.61546C40.9248 8.54299 40.5532 9.33801 39.8104 10.0005C39.5677 10.2118 39.2893 10.3945 38.9763 10.5521L40.7883 14.1619C41.1468 14.9068 41.4197 15.3491 41.6072 15.4869L41.5617 15.5299C40.9892 15.4404 40.087 15.4422 38.8551 15.5371L36.7927 11.1322ZM36.1938 6.07553C35.8905 6.07553 35.5986 6.08987 35.3219 6.1185V9.32729C35.6138 9.36669 35.955 9.38456 36.3454 9.38456C36.7396 9.38456 37.0675 9.35414 37.331 9.29146C37.5985 9.22521 37.8314 9.12493 38.0286 8.99064C38.4475 8.69518 38.6579 8.25114 38.6579 7.65843C38.6579 7.06215 38.438 6.64496 37.9984 6.40502C37.589 6.18658 36.986 6.07553 36.1938 6.07553Z" fill="#C4AB62"/>
<path d="M50.7204 13.46C51.0879 13.46 51.3441 13.4278 51.4861 13.3598L51.5166 13.3669L51.4329 15.4727H44.7763V4.24916C44.9317 4.25993 45.1096 4.26708 45.3069 4.27065L45.9285 4.28499C46.3419 4.29932 46.7928 4.30648 47.2783 4.30648C48.6372 4.30648 49.9794 4.2832 51.3041 4.23486C51.2379 4.73265 51.2055 5.39156 51.2055 6.21169C51.2055 6.303 51.2131 6.36925 51.2284 6.41223L51.2055 6.44086C50.8965 6.35491 50.4587 6.31194 49.8939 6.31194H47.0963V8.45351H49.1966C49.8484 8.45351 50.2389 8.43739 50.3717 8.40339L50.4019 10.4733C50.1137 10.45 49.7443 10.4375 49.2948 10.4375H47.0963V13.46H50.7204Z" fill="#C4AB62"/>
<path d="M60.3886 4.09155C61.4993 4.09155 62.4451 4.276 63.2243 4.64307V7.2072L63.209 7.22869C62.8757 6.74703 62.174 6.42651 61.1088 6.26891C60.7943 6.22236 60.398 6.1973 59.9187 6.1973C59.4372 6.1973 58.9652 6.28325 58.5008 6.45515C58.0401 6.62347 57.6631 6.86341 57.3712 7.17856C56.7947 7.78557 56.5069 8.654 56.5069 9.78567C56.5069 11.1035 56.8708 12.0848 57.5987 12.7294C58.205 13.2648 59.0049 13.5316 60.0021 13.5316C61.1277 13.5316 62.0415 13.306 62.7392 12.8512C62.991 12.69 63.2054 12.4895 63.3833 12.2496L63.4139 12.2639V14.6131C62.5077 15.3258 61.2871 15.6803 59.7517 15.6803C57.9415 15.6803 56.5258 15.1396 55.5061 14.0545C54.5202 13.0195 54.0274 11.6461 54.0274 9.93608C54.0274 8.13115 54.5657 6.70942 55.6425 5.66727C56.7343 4.61801 58.3149 4.09155 60.3886 4.09155Z" fill="#C4AB62"/>
<path d="M67.1296 4.27065C67.721 4.29571 68.0791 4.30648 68.2061 4.30648H68.843C69.156 4.30648 69.4078 4.2832 69.6015 4.23486L69.5938 15.4727H67.1296V4.27065Z" fill="#C4AB62"/>
<path d="M73.9632 4.24911C74.7857 4.14529 75.6311 4.09155 76.4954 4.09155C78.1066 4.09155 79.333 4.44968 80.1726 5.16591C81.0104 5.87857 81.4314 6.94578 81.4314 8.36751C81.4314 9.63884 80.9707 10.6434 80.0514 11.3829C79.1907 12.0759 78.0876 12.4215 76.7382 12.4215C76.5864 12.4215 76.4157 12.4143 76.2301 12.4V15.4726H73.9632V4.24911ZM76.7684 6.1185C76.5864 6.1185 76.4063 6.1239 76.2301 6.13284V10.5521C76.4216 10.5771 76.6548 10.5879 76.9278 10.5879C77.2007 10.5879 77.4831 10.5341 77.7768 10.4231C78.0745 10.3139 78.3246 10.1617 78.5276 9.96472C78.9465 9.55468 79.1569 9.01749 79.1569 8.35318C79.1569 6.86341 78.3606 6.1185 76.7684 6.1185Z" fill="#C4AB62"/>
<path d="M90.4019 13.46C90.7699 13.46 91.0257 13.4278 91.1677 13.3598L91.1982 13.3669L91.1145 15.4727H84.4579V4.24916C84.6133 4.25993 84.7912 4.26708 84.9885 4.27065L85.6101 4.28499C86.0235 4.29932 86.4744 4.30648 86.9599 4.30648C88.3188 4.30648 89.661 4.2832 90.9857 4.23486C90.9195 4.73265 90.8871 5.39156 90.8871 6.21169C90.8871 6.303 90.8947 6.36925 90.91 6.41223L90.8871 6.44086C90.5785 6.35491 90.1403 6.31194 89.5755 6.31194H86.7779V8.45351H88.8782C89.53 8.45351 89.9205 8.43739 90.0533 8.40339L90.0835 10.4733C89.7953 10.45 89.4259 10.4375 88.9764 10.4375H86.7779V13.46H90.4019Z" fill="#C4AB62"/>
<path d="M105.836 11.1322C105.658 11.1429 105.468 11.1465 105.267 11.1465C105.064 11.1465 104.763 11.1322 104.365 11.1035V15.4726H102.014V4.24911C102.843 4.14529 103.861 4.09155 105.07 4.09155C106.717 4.09155 107.945 4.38165 108.755 4.95819C109.562 5.5312 109.968 6.41754 109.968 7.61546C109.968 8.54299 109.596 9.33801 108.853 10.0005C108.611 10.2118 108.332 10.3945 108.02 10.5521L109.832 14.1619C110.19 14.9068 110.463 15.3491 110.65 15.4869L110.605 15.5299C110.032 15.4404 109.13 15.4422 107.898 15.5371L105.836 11.1322ZM105.237 6.07553C104.933 6.07553 104.641 6.08987 104.365 6.1185V9.32729C104.657 9.36669 104.998 9.38456 105.388 9.38456C105.783 9.38456 106.111 9.35414 106.374 9.29146C106.641 9.22521 106.875 9.12493 107.071 8.99064C107.49 8.69518 107.701 8.25114 107.701 7.65843C107.701 7.06215 107.481 6.64496 107.041 6.40502C106.632 6.18658 106.029 6.07553 105.237 6.07553Z" fill="#C4AB62"/>
<path d="M114.782 14.1476C114.246 13.6605 113.821 13.0768 113.508 12.3928C113.199 11.7106 113.046 10.9639 113.046 10.151C113.046 9.33444 113.19 8.56447 113.478 7.83748C113.77 7.10692 114.185 6.46591 114.721 5.91082C115.262 5.35751 115.914 4.91522 116.677 4.58576C117.439 4.2563 118.296 4.09155 119.248 4.09155C120.886 4.09155 122.262 4.57861 123.38 5.55268C124.578 6.59483 125.177 8.00044 125.177 9.77134C125.177 11.4867 124.559 12.9121 123.327 14.0473C122.569 14.7456 121.667 15.2255 120.62 15.4869C120.105 15.6159 119.5 15.6803 118.808 15.6803C118.114 15.6803 117.405 15.546 116.677 15.2793C115.954 15.0124 115.322 14.6346 114.782 14.1476ZM115.518 10.0292C115.518 10.5503 115.609 11.0301 115.791 11.4688C115.972 11.904 116.227 12.2782 116.556 12.5933C117.248 13.2523 118.141 13.5818 119.233 13.5818C120.268 13.5818 121.1 13.2666 121.727 12.6363C122.368 11.9827 122.69 11.0892 122.69 9.95757C122.69 8.89397 122.383 8.00581 121.772 7.29315C121.115 6.53395 120.214 6.15433 119.074 6.15433C117.961 6.15433 117.079 6.53931 116.427 7.30749C115.821 8.03448 115.518 8.94052 115.518 10.0292Z" fill="#C4AB62"/>
<path d="M129.626 14.1476C129.09 13.6605 128.665 13.0768 128.353 12.3928C128.044 11.7106 127.89 10.9639 127.89 10.151C127.89 9.33444 128.034 8.56447 128.322 7.83748C128.614 7.10692 129.029 6.46591 129.566 5.91082C130.106 5.35751 130.758 4.91522 131.522 4.58576C132.284 4.2563 133.141 4.09155 134.092 4.09155C135.73 4.09155 137.106 4.57861 138.224 5.55268C139.422 6.59483 140.021 8.00044 140.021 9.77134C140.021 11.4867 139.403 12.9121 138.171 14.0473C137.413 14.7456 136.511 15.2255 135.465 15.4869C134.949 15.6159 134.344 15.6803 133.652 15.6803C132.959 15.6803 132.25 15.546 131.522 15.2793C130.798 15.0124 130.167 14.6346 129.626 14.1476ZM130.362 10.0292C130.362 10.5503 130.453 11.0301 130.635 11.4688C130.817 11.904 131.071 12.2782 131.401 12.5933C132.092 13.2523 132.985 13.5818 134.077 13.5818C135.112 13.5818 135.944 13.2666 136.571 12.6363C137.212 11.9827 137.534 11.0892 137.534 9.95757C137.534 8.89397 137.227 8.00581 136.617 7.29315C135.959 6.53395 135.059 6.15433 133.918 6.15433C132.805 6.15433 131.924 6.53931 131.272 7.30749C130.665 8.03448 130.362 8.94052 130.362 10.0292Z" fill="#C4AB62"/>
<path d="M147.769 15.5228C147.485 15.4887 146.755 15.4726 145.578 15.4726H145.29V6.18297H143.53C143.009 6.18297 142.7 6.20985 142.606 6.26176C142.509 6.3101 142.435 6.35486 142.385 6.39784L142.355 6.39069V4.23481L142.385 4.21333C142.583 4.276 143.11 4.30643 143.97 4.30643H149.543C150.062 4.30643 150.369 4.28315 150.46 4.23481C150.555 4.18287 150.631 4.13453 150.688 4.09155L150.71 4.10589V6.25461L150.688 6.2761C150.491 6.21521 149.962 6.18297 149.103 6.18297H147.769V15.5228Z" fill="#C4AB62"/>
<path d="M160.963 4.92955L160.796 7.39344L160.735 7.41492C160.295 6.79001 159.547 6.38711 158.491 6.20445C158.157 6.1436 157.839 6.11135 157.536 6.11135C157.232 6.11135 156.971 6.1382 156.755 6.19015C156.537 6.23849 156.353 6.3101 156.201 6.40502C155.871 6.60556 155.708 6.86877 155.708 7.19287C155.708 7.61904 155.848 7.93777 156.133 8.15264C156.491 8.41049 157.083 8.59315 157.907 8.69697C158.73 8.79726 159.389 8.93873 159.886 9.11957C160.386 9.29683 160.796 9.52067 161.114 9.79282C161.721 10.3085 162.024 11.0373 162.024 11.9774C162.024 13.2093 161.531 14.1601 160.546 14.828C159.7 15.3974 158.639 15.6803 157.361 15.6803C156.33 15.6803 155.31 15.4959 154.306 15.1288C153.972 15.0053 153.68 14.862 153.434 14.6991L153.532 11.8986L153.57 11.8699C154.302 13.0696 155.507 13.6677 157.187 13.6677C158.373 13.6677 159.162 13.3955 159.553 12.8512C159.677 12.6703 159.742 12.468 159.742 12.2424C159.742 12.0132 159.704 11.8252 159.628 11.6765C159.553 11.5243 159.425 11.3954 159.249 11.2898C158.904 11.0803 158.326 10.9388 157.513 10.8672C156.703 10.792 156.042 10.6523 155.526 10.4518C155.011 10.2512 154.598 10.0041 154.29 9.70687C153.73 9.1679 153.449 8.41585 153.449 7.45071C153.449 6.45872 153.821 5.65297 154.563 5.03699C155.316 4.40671 156.33 4.09155 157.604 4.09155C158.881 4.09155 160.002 4.37089 160.963 4.92955Z" fill="#C4AB62"/>
<path d="M55.4234 25.6121C55.4478 25.5458 55.4613 25.3936 55.4613 25.1537V24.4518C55.1523 23.8126 54.9551 23.4132 54.8699 23.2557C54.7826 23.0945 54.7105 22.9656 54.6501 22.8689C54.4623 22.5735 54.3488 22.4033 54.3087 22.3604C54.2727 22.3174 54.2367 22.2816 54.2028 22.2529H55.1199C55.1389 22.287 55.1676 22.3371 55.2036 22.4033L55.8478 23.6926C55.8784 23.621 55.9122 23.5422 55.9541 23.4562C56.3427 22.6683 56.5396 22.2673 56.5454 22.2529H57.4251C57.3341 22.3245 57.222 22.4714 57.0913 22.6898C57.0495 22.7579 57.0098 22.8313 56.9702 22.9119L56.3635 24.1008C56.2972 24.2441 56.2423 24.373 56.1968 24.4876V25.211C56.1968 25.3829 56.2063 25.5172 56.227 25.6121H55.4234Z" fill="#4CAF4F"/>
<path d="M59.1224 25.2182C58.9594 25.0713 58.8306 24.8941 58.7356 24.6881C58.6446 24.484 58.5991 24.2584 58.5991 24.0149C58.5991 23.7678 58.6409 23.5332 58.7279 23.313C58.8189 23.0945 58.9441 22.9029 59.1071 22.74C59.2684 22.5735 59.4634 22.4392 59.6909 22.3389C59.9223 22.2386 60.18 22.1885 60.4642 22.1885C60.9534 22.1885 61.3682 22.3371 61.7078 22.6326C62.0659 22.9441 62.246 23.3667 62.246 23.9003C62.246 24.416 62.0604 24.844 61.6925 25.1824C61.465 25.3937 61.1921 25.5387 60.8737 25.6193C60.7219 25.6569 60.5421 25.6766 60.3354 25.6766C60.1269 25.6766 59.9125 25.6354 59.6909 25.5548C59.4729 25.4742 59.2833 25.3614 59.1224 25.2182ZM59.3422 23.9791C59.3422 24.1331 59.3688 24.2763 59.4256 24.4088C59.4805 24.5377 59.5562 24.6506 59.653 24.7455C59.8597 24.946 60.1269 25.0463 60.4566 25.0463C60.7696 25.0463 61.0196 24.9514 61.2074 24.7598C61.3988 24.5646 61.4953 24.2942 61.4953 23.9504C61.4953 23.6317 61.4043 23.3667 61.2223 23.1554C61.0254 22.9262 60.7543 22.8116 60.4111 22.8116C60.0777 22.8116 59.8121 22.9262 59.6152 23.1554C59.4332 23.3756 59.3422 23.6496 59.3422 23.9791Z" fill="#4CAF4F"/>
<path d="M65.9272 22.2386C66.0371 22.2494 66.1281 22.2529 66.2002 22.2529H66.42C66.4957 22.2529 66.5736 22.2458 66.6551 22.2314V24.3229C66.6551 24.7383 66.5223 25.0713 66.2606 25.3185C66.0066 25.5584 65.6921 25.6766 65.3129 25.6766C64.898 25.6766 64.5625 25.5745 64.3045 25.3686C64.0166 25.1394 63.8725 24.8099 63.8725 24.3802V22.2386C64.0242 22.2494 64.1643 22.2529 64.2972 22.2529C64.4278 22.2529 64.5341 22.2458 64.6156 22.2314V24.416C64.6156 24.6273 64.6855 24.792 64.8278 24.9102C64.953 25.0158 65.112 25.0678 65.3053 25.0678C65.5877 25.0678 65.7773 24.9299 65.8741 24.6524C65.9083 24.5574 65.9272 24.4357 65.9272 24.2871V22.2386Z" fill="#4CAF4F"/>
<path d="M69.6695 24.3086C69.6182 24.3086 69.5633 24.3086 69.5028 24.3086C69.4421 24.3086 69.3511 24.3068 69.2299 24.3014V25.6121H68.5246V22.2386C68.771 22.2064 69.0781 22.1885 69.4421 22.1885C69.9367 22.1885 70.3064 22.278 70.5491 22.4535C70.7915 22.6254 70.9131 22.8904 70.9131 23.2485C70.9131 23.5314 70.801 23.7696 70.5794 23.9648C70.5073 24.0328 70.424 24.0865 70.329 24.1295L70.8749 25.2182C70.9811 25.4438 71.0608 25.5763 71.1176 25.6193L71.11 25.6264C70.932 25.6032 70.6591 25.6049 70.2911 25.6336L69.6695 24.3086ZM69.4952 22.7901C69.4042 22.7901 69.3151 22.7937 69.2299 22.7973V23.7642C69.3151 23.775 69.4155 23.7785 69.5331 23.7785C69.6542 23.7785 69.7547 23.7696 69.8362 23.7499C69.9159 23.732 69.984 23.7033 70.0411 23.6639C70.1659 23.5744 70.2307 23.4401 70.2307 23.2628C70.2307 23.082 70.1641 22.9549 70.0335 22.8832C69.9123 22.8224 69.7321 22.7901 69.4952 22.7901Z" fill="#4CAF4F"/>
<path d="M76.1406 25.6264C76.0136 25.6157 75.8542 25.6121 75.6628 25.6121H75.4582V22.2458H75.5641C75.6402 22.2511 75.6951 22.2529 75.7312 22.2529H75.8069C75.9623 22.2529 76.0744 22.2458 76.1406 22.2314V23.6568L77.2171 22.2458C77.3328 22.2511 77.4293 22.2529 77.5053 22.2529H77.6567C77.8387 22.2529 77.9697 22.2458 78.0512 22.2314L77.0198 23.5063L78.0283 25.4116C78.0738 25.5029 78.1138 25.5691 78.1499 25.6121H77.9905C77.6112 25.6121 77.3765 25.6193 77.2855 25.6336C77.2644 25.519 77.24 25.4223 77.2095 25.3399L76.5271 24.108L76.1406 24.5879V25.6264Z" fill="#4CAF4F"/>
<path d="M79.6955 22.2458C79.8716 22.2511 79.9779 22.2529 80.0139 22.2529H80.2112C80.3021 22.2529 80.3778 22.2458 80.4386 22.2314L80.431 25.6121H79.6955V22.2458Z" fill="#4CAF4F"/>
<path d="M83.6863 25.6264C83.5993 25.6157 83.3795 25.6121 83.0269 25.6121H82.9359V22.8188H82.4126C82.2553 22.8188 82.1625 22.8259 82.1323 22.8402C82.1018 22.8546 82.0792 22.8689 82.0639 22.8832H82.0563V22.2315L82.0639 22.2243C82.1247 22.244 82.2837 22.2529 82.5418 22.2529H84.2173C84.3727 22.2529 84.4637 22.2458 84.4902 22.2315C84.5205 22.2171 84.5434 22.2028 84.5583 22.1885L84.5736 22.1956V22.8402L84.5583 22.8474C84.5015 22.8295 84.3461 22.8188 84.0885 22.8188H83.6863V25.6264Z" fill="#4CAF4F"/>
<path d="M87.7049 22.1885C88.0382 22.1885 88.3206 22.244 88.5539 22.3532V23.1339C88.4517 22.9871 88.2391 22.8904 87.917 22.8474C87.8261 22.8295 87.7067 22.8188 87.5608 22.8188C87.4185 22.8188 87.2762 22.8456 87.136 22.8976C86.9996 22.9513 86.886 23.0247 86.795 23.1196C86.6225 23.3022 86.537 23.5619 86.537 23.9003C86.537 24.2978 86.6451 24.5933 86.8631 24.7884C87.0451 24.9514 87.2838 25.0319 87.5833 25.0319C87.9207 25.0319 88.1976 24.9639 88.4098 24.8243C88.4855 24.7777 88.5499 24.7168 88.6071 24.6452H88.6147V25.3543C88.3418 25.5691 87.972 25.6766 87.5076 25.6766C86.9654 25.6766 86.541 25.5119 86.2339 25.1824C85.9343 24.8726 85.7866 24.4625 85.7866 23.9504C85.7866 23.4061 85.9474 22.9764 86.2717 22.6612C86.5996 22.346 87.0775 22.1885 87.7049 22.1885Z" fill="#4CAF4F"/>
<path d="M90.9733 25.6264C90.8008 25.6157 90.5963 25.6121 90.3594 25.6121H90.276V22.2386C90.3859 22.2494 90.4653 22.2529 90.5108 22.2529H90.6247C90.7612 22.2529 90.8769 22.2458 90.9733 22.2314V23.578H92.2322V22.2386C92.3781 22.2494 92.52 22.2529 92.6565 22.2529C92.797 22.2529 92.8858 22.2458 92.9218 22.2314V25.6264C92.8348 25.6157 92.666 25.6121 92.4141 25.6121H92.2322V24.1868H90.9733V25.6264Z" fill="#4CAF4F"/>
<path d="M96.6459 25.0033C96.7558 25.0033 96.8355 24.9944 96.881 24.9747L96.8887 24.9818L96.8661 25.6121H94.8645V22.2386C94.91 22.2386 94.9627 22.2422 95.0235 22.2458H95.2055C95.3307 22.2511 95.4671 22.2529 95.6149 22.2529C96.0243 22.2529 96.4279 22.2458 96.8279 22.2314C96.8071 22.3801 96.7977 22.5788 96.7977 22.8259C96.7977 22.8546 96.7995 22.8761 96.8053 22.8904L96.7977 22.8975C96.7067 22.8689 96.5739 22.8546 96.4035 22.8546H95.5618V23.4992H96.191C96.3883 23.4992 96.5058 23.4956 96.5476 23.4849L96.5549 24.108C96.468 24.099 96.358 24.0937 96.2216 24.0937H95.5618V25.0033H96.6459Z" fill="#4CAF4F"/>
<path d="M98.5944 25.6121C98.6039 25.5548 98.6097 25.4939 98.6097 25.4259V22.2529H99.1403L100.558 24.3587V22.4248C100.558 22.3353 100.551 22.278 100.535 22.2529H101.256C101.244 22.321 101.241 22.3944 101.241 22.475V25.6121H100.687L99.2921 23.5923V25.6121H98.5944Z" fill="#4CAF4F"/>
<path d="M106.207 25.6337C106.055 25.6193 105.875 25.6122 105.669 25.6122H105.456L106.617 22.5323C106.672 22.3945 106.7 22.3157 106.7 22.296C106.7 22.2727 106.696 22.2584 106.692 22.253L106.7 22.2458C106.815 22.2512 106.937 22.253 107.064 22.253C107.174 22.253 107.303 22.2512 107.45 22.2458V22.253C107.45 22.2638 107.45 22.2727 107.45 22.2817C107.45 22.3157 107.475 22.4016 107.526 22.5395L108.716 25.6193C108.68 25.6193 108.637 25.6193 108.588 25.6193C108.588 25.6193 108.542 25.6158 108.451 25.6122C108.406 25.6122 108.364 25.6122 108.33 25.6122H107.913L107.663 24.8816H106.457L106.207 25.6337ZM107.458 24.28L107.056 23.1053L106.662 24.28H107.458Z" fill="#4CAF4F"/>
<path d="M112.26 22.4392L112.207 23.184L112.191 23.1912C112.055 23.0014 111.829 22.8796 111.517 22.8259C111.414 22.808 111.319 22.7973 111.228 22.7973C111.137 22.7973 111.058 22.8045 110.993 22.8188C110.927 22.8331 110.872 22.8546 110.826 22.8832C110.724 22.9459 110.675 23.0247 110.675 23.1196C110.675 23.2485 110.717 23.347 110.804 23.4132C110.91 23.4903 111.086 23.5457 111.335 23.578C111.581 23.6066 111.782 23.6478 111.934 23.6997C112.085 23.7535 112.208 23.8215 112.305 23.9075C112.487 24.0614 112.578 24.2781 112.578 24.5592C112.578 24.9317 112.428 25.2182 112.13 25.4187C111.876 25.5906 111.558 25.6766 111.175 25.6766C110.866 25.6766 110.561 25.6211 110.258 25.5118C110.155 25.4742 110.068 25.4313 109.992 25.3829L110.023 24.5377L110.031 24.5306C110.252 24.8887 110.616 25.0678 111.122 25.0678C111.48 25.0678 111.717 24.9872 111.835 24.8243C111.869 24.7669 111.888 24.7061 111.888 24.638C111.888 24.5718 111.875 24.5163 111.85 24.4733C111.829 24.4267 111.793 24.3855 111.744 24.3515C111.638 24.2907 111.463 24.2495 111.221 24.2298C110.978 24.2065 110.777 24.1635 110.622 24.1008C110.464 24.04 110.341 23.9648 110.25 23.8788C110.083 23.7176 110 23.4903 110 23.1984C110 22.9029 110.11 22.6612 110.334 22.475C110.561 22.2852 110.866 22.1885 111.251 22.1885C111.634 22.1885 111.971 22.2726 112.26 22.4392Z" fill="#4CAF4F"/>
<path d="M116.414 22.4392L116.36 23.184L116.345 23.1912C116.209 23.0014 115.983 22.8796 115.67 22.8259C115.568 22.808 115.473 22.7973 115.382 22.7973C115.291 22.7973 115.212 22.8045 115.147 22.8188C115.081 22.8331 115.026 22.8546 114.98 22.8832C114.878 22.9459 114.829 23.0247 114.829 23.1196C114.829 23.2485 114.87 23.347 114.958 23.4132C115.064 23.4903 115.24 23.5457 115.488 23.578C115.735 23.6066 115.936 23.6478 116.087 23.6997C116.239 23.7535 116.362 23.8215 116.459 23.9075C116.641 24.0614 116.732 24.2781 116.732 24.5592C116.732 24.9317 116.582 25.2182 116.284 25.4187C116.031 25.5906 115.712 25.6766 115.329 25.6766C115.02 25.6766 114.715 25.6211 114.412 25.5118C114.309 25.4742 114.222 25.4313 114.146 25.3829L114.177 24.5377L114.184 24.5306C114.406 24.8887 114.77 25.0678 115.276 25.0678C115.634 25.0678 115.871 24.9872 115.989 24.8243C116.023 24.7669 116.042 24.7061 116.042 24.638C116.042 24.5718 116.029 24.5163 116.004 24.4733C115.983 24.4267 115.947 24.3855 115.898 24.3515C115.792 24.2907 115.617 24.2495 115.375 24.2298C115.132 24.2065 114.931 24.1635 114.776 24.1008C114.618 24.04 114.495 23.9648 114.404 23.8788C114.237 23.7176 114.154 23.4903 114.154 23.1984C114.154 22.9029 114.264 22.6612 114.488 22.475C114.715 22.2852 115.02 22.1885 115.405 22.1885C115.788 22.1885 116.125 22.2726 116.414 22.4392Z" fill="#4CAF4F"/>
<path d="M118.505 22.2458C118.681 22.2511 118.787 22.2529 118.824 22.2529H119.021C119.112 22.2529 119.187 22.2458 119.248 22.2314L119.241 25.6121H118.505V22.2458Z" fill="#4CAF4F"/>
<path d="M123.36 22.4392L123.308 23.184L123.292 23.1912C123.156 23.0014 122.93 22.8796 122.617 22.8259C122.515 22.808 122.42 22.7973 122.329 22.7973C122.238 22.7973 122.159 22.8045 122.094 22.8188C122.028 22.8331 121.973 22.8546 121.927 22.8832C121.825 22.9459 121.776 23.0247 121.776 23.1196C121.776 23.2485 121.818 23.347 121.905 23.4132C122.011 23.4903 122.187 23.5457 122.436 23.578C122.682 23.6066 122.883 23.6478 123.035 23.6997C123.186 23.7535 123.309 23.8215 123.406 23.9075C123.588 24.0614 123.679 24.2781 123.679 24.5592C123.679 24.9317 123.529 25.2182 123.231 25.4187C122.977 25.5906 122.659 25.6766 122.276 25.6766C121.967 25.6766 121.662 25.6211 121.359 25.5118C121.256 25.4742 121.169 25.4313 121.093 25.3829L121.124 24.5377L121.131 24.5306C121.353 24.8887 121.717 25.0678 122.223 25.0678C122.581 25.0678 122.818 24.9872 122.936 24.8243C122.97 24.7669 122.989 24.7061 122.989 24.638C122.989 24.5718 122.976 24.5163 122.951 24.4733C122.93 24.4267 122.894 24.3855 122.845 24.3515C122.739 24.2907 122.564 24.2495 122.322 24.2298C122.079 24.2065 121.878 24.1635 121.723 24.1008C121.565 24.04 121.442 23.9648 121.351 23.8788C121.184 23.7176 121.101 23.4903 121.101 23.1984C121.101 22.9029 121.211 22.6612 121.435 22.475C121.662 22.2852 121.967 22.1885 122.352 22.1885C122.735 22.1885 123.072 22.2726 123.36 22.4392Z" fill="#4CAF4F"/>
<path d="M126.65 25.6264C126.563 25.6157 126.343 25.6121 125.99 25.6121H125.899V22.8188H125.376C125.219 22.8188 125.126 22.8259 125.096 22.8402C125.065 22.8546 125.043 22.8689 125.027 22.8832H125.02V22.2315L125.027 22.2243C125.088 22.244 125.247 22.2529 125.505 22.2529H127.181C127.336 22.2529 127.427 22.2458 127.454 22.2315C127.484 22.2171 127.507 22.2028 127.522 22.1885L127.537 22.1956V22.8402L127.522 22.8474C127.465 22.8295 127.31 22.8188 127.052 22.8188H126.65V25.6264Z" fill="#4CAF4F"/>
<path d="M129.334 25.6337C129.182 25.6193 129.002 25.6122 128.796 25.6122H128.583L129.743 22.5323C129.798 22.3945 129.827 22.3157 129.827 22.296C129.827 22.2727 129.823 22.2584 129.819 22.253L129.827 22.2458C129.942 22.2512 130.064 22.253 130.191 22.253C130.3 22.253 130.429 22.2512 130.577 22.2458V22.253C130.577 22.2638 130.577 22.2727 130.577 22.2817C130.577 22.3157 130.602 22.4016 130.653 22.5395L131.844 25.6193C131.808 25.6193 131.764 25.6193 131.715 25.6193C131.715 25.6193 131.669 25.6158 131.578 25.6122C131.533 25.6122 131.491 25.6122 131.457 25.6122H131.04L130.79 24.8816H129.584L129.334 25.6337ZM130.585 24.28L130.183 23.1053L129.789 24.28H130.585Z" fill="#4CAF4F"/>
<path d="M133.264 25.6121C133.273 25.5548 133.278 25.4939 133.278 25.4259V22.2529H133.809L135.227 24.3587V22.4248C135.227 22.3353 135.22 22.278 135.204 22.2529H135.925C135.913 22.321 135.91 22.3944 135.91 22.475V25.6121H135.356L133.961 23.5923V25.6121H133.264Z" fill="#4CAF4F"/>
<path d="M139.12 25.6264C139.033 25.6157 138.813 25.6121 138.461 25.6121H138.37V22.8188H137.846C137.689 22.8188 137.596 22.8259 137.566 22.8402C137.535 22.8546 137.513 22.8689 137.498 22.8832H137.49V22.2315L137.498 22.2243C137.558 22.244 137.717 22.2529 137.975 22.2529H139.651C139.806 22.2529 139.897 22.2458 139.924 22.2315C139.954 22.2171 139.977 22.2028 139.992 22.1885L140.007 22.1956V22.8402L139.992 22.8474C139.935 22.8295 139.78 22.8188 139.522 22.8188H139.12V25.6264Z" fill="#4CAF4F"/>
</g>
</g>
<defs>
<clipPath id="clip0_129_12196">
<rect width="162.313" height="28.1913" fill="white"/>
</clipPath>
</defs>
</svg>
